<svg width="89" height="79" viewBox="0 0 89 79" fill="none" xmlns="http://www.w3.org/2000/svg">
<g filter="url(#filter0_d_1306_195)">
<rect x="2.5061" y="1.5" width="84.4062" height="74" rx="3" fill="white"/>
<path fill-rule="evenodd" clip-rule="evenodd" d="M52.7458 7.28125H78.8186V69.7188L52.7458 7.28125ZM34.3787 7.28125H8.28735V69.7188L34.3787 7.28125ZM43.5638 30.2916L60.176 69.7188H49.29L44.3221 57.1616H32.1625L43.5638 30.2916Z" fill="#6B7280"/>
<path fill-rule="evenodd" clip-rule="evenodd" d="M81.9775 7.5127C82.238 7.51389 82.4957 7.56667 82.7357 7.668C82.9757 7.76932 83.1933 7.91718 83.3758 8.10304C83.5584 8.28889 83.7023 8.50907 83.7993 8.75085C83.8963 8.99264 83.9445 9.25124 83.9411 9.51174C83.9411 10.64 83.0702 11.52 81.9682 11.52C80.8754 11.52 79.9861 10.6415 79.9861 9.51174C79.9847 9.25025 80.0349 8.99104 80.1338 8.74897C80.2327 8.5069 80.3783 8.28671 80.5625 8.10102C80.7466 7.91534 80.9655 7.76779 81.2067 7.66683C81.4479 7.56588 81.7067 7.5135 81.9682 7.5127H81.9775ZM81.9682 7.82249C81.0881 7.82249 80.3684 8.57926 80.3684 9.51174C80.3684 10.4627 81.0881 11.2087 81.9775 11.2087C82.8652 11.2179 83.5773 10.4627 83.5773 9.52099C83.5773 8.57927 82.8652 7.82249 81.9775 7.82249H81.9682ZM81.5952 10.677H81.2392V8.44517C81.448 8.4105 81.6594 8.39298 81.8711 8.39277C82.2087 8.39277 82.4306 8.46213 82.5631 8.56077C82.6972 8.65787 82.7681 8.81045 82.7681 9.02315C82.7681 9.31599 82.5724 9.49479 82.332 9.56569V9.58263C82.5277 9.61808 82.6618 9.79688 82.7065 10.1267C82.7589 10.4735 82.8128 10.6061 82.8483 10.6785H82.4753C82.4213 10.6061 82.3674 10.4026 82.3242 10.1098C82.2703 9.82462 82.1285 9.71827 81.8434 9.71827H81.5952V10.677ZM81.5952 9.44084H81.8526C82.1455 9.44084 82.3951 9.33449 82.3951 9.0586C82.3951 8.86286 82.2533 8.66712 81.8526 8.66712C81.737 8.66712 81.6569 8.67637 81.5952 8.68562V9.44084Z" fill="#6B7280"/>
</g>
<defs>
<filter id="filter0_d_1306_195" x="0.506104" y="0.5" width="88.4062" height="78" filterUnits="userSpaceOnUse" color-interpolation-filters="sRGB">
<feFlood flood-opacity="0" result="BackgroundImageFix"/>
<feColorMatrix in="SourceAlpha" type="matrix" values="0 0 0 0 0 0 0 0 0 0 0 0 0 0 0 0 0 0 127 0" result="hardAlpha"/>
<feOffset dy="1"/>
<feGaussianBlur stdDeviation="1"/>
<feColorMatrix type="matrix" values="0 0 0 0 0 0 0 0 0 0 0 0 0 0 0 0 0 0 0.05 0"/>
<feBlend mode="normal" in2="BackgroundImageFix" result="effect1_dropShadow_1306_195"/>
<feBlend mode="normal" in="SourceGraphic" in2="effect1_dropShadow_1306_195" result="shape"/>
</filter>
</defs>
</svg>
