<svg width="524" height="400" viewBox="0 0 524 400" fill="none" xmlns="http://www.w3.org/2000/svg">
<line x1="255.951" y1="47.3203" x2="255.951" y2="397.549" stroke="#E5E7EB" stroke-width="2"/>
<line x1="372.694" y1="47.3203" x2="372.694" y2="397.549" stroke="#E5E7EB" stroke-width="2"/>
<line x1="489.437" y1="47.3203" x2="489.437" y2="397.549" stroke="#E5E7EB" stroke-width="2"/>
<line x1="139.208" y1="47.3203" x2="139.208" y2="397.549" stroke="#E5E7EB" stroke-width="2"/>
<line x1="488.437" y1="165.063" x2="138.208" y2="165.063" stroke="#E5E7EB" stroke-width="2"/>
<line x1="488.437" y1="281.806" x2="138.208" y2="281.806" stroke="#E5E7EB" stroke-width="2"/>
<line x1="490.847" y1="398.549" x2="138.208" y2="398.549" stroke="#E5E7EB" stroke-width="2"/>
<line x1="488.437" y1="48.3203" x2="138.208" y2="48.3203" stroke="#E5E7EB" stroke-width="2"/>
<g filter="url(#filter0_dd_1501_842)">
<g clip-path="url(#clip0_1501_842)">
<rect x="20.0774" width="354.559" height="322.764" rx="14" fill="#F9FAFB"/>
<g filter="url(#filter1_dd_1501_842)">
<path d="M283.264 151.143H282.671V151.736V346.585C282.671 359.669 272.019 370.28 258.874 370.28H146.902C133.757 370.28 123.105 359.669 123.105 346.585V74.459C123.105 61.3754 133.757 50.7648 146.902 50.7648H258.874C272.019 50.7648 282.671 61.3754 282.671 74.459V107.578V108.171H283.264H283.818C284.106 108.171 284.334 108.402 284.334 108.682V125.793C284.334 126.073 284.106 126.304 283.818 126.304H283.264H282.671V126.897V132.417V133.01H283.264H283.818C284.106 133.01 284.334 133.241 284.334 133.521V150.632C284.334 150.912 284.106 151.143 283.818 151.143H283.264Z" fill="#F9FAFB" stroke="#4B5563" stroke-width="1.18582"/>
<path d="M175.688 60.6593C175.688 61.8537 174.715 62.8263 173.509 62.8263C172.304 62.8263 171.33 61.8537 171.33 60.6593C171.33 59.4649 172.304 58.4923 173.509 58.4923C174.715 58.4923 175.688 59.4649 175.688 60.6593ZM179.645 60.6593C179.645 59.4649 180.618 58.4923 181.824 58.4923H231.712C232.918 58.4923 233.891 59.4649 233.891 60.6593C233.891 61.8537 232.918 62.8263 231.712 62.8263H181.824C180.618 62.8263 179.645 61.8537 179.645 60.6593Z" fill="#4B5563" stroke="#4B5563" stroke-width="1.18582"/>
<g opacity="0.8">
<mask id="path-13-inside-1_1501_842" fill="white">
<path d="M164.004 61.7629L164.527 61.579L164.396 61.2109H164.004V61.7629ZM241.771 61.7629V61.2109H241.379L241.249 61.579L241.771 61.7629ZM148.565 62.3149H164.004V61.2109H148.565V62.3149ZM133.044 77.7703C133.044 69.2345 139.993 62.3149 148.565 62.3149V61.2109C139.381 61.2109 131.935 68.6249 131.935 77.7703H133.044ZM133.044 346.585V77.7703H131.935V346.585H133.044ZM148.565 362.04C139.993 362.04 133.044 355.121 133.044 346.585H131.935C131.935 355.731 139.381 363.144 148.565 363.144V362.04ZM257.211 362.04H148.565V363.144H257.211V362.04ZM272.732 346.585C272.732 355.121 265.783 362.04 257.211 362.04V363.144C266.395 363.144 273.84 355.731 273.84 346.585H272.732ZM272.732 77.7703V346.585H273.84V77.7703H272.732ZM257.211 62.3149C265.783 62.3149 272.732 69.2345 272.732 77.7703H273.84C273.84 68.6249 266.395 61.2109 257.211 61.2109V62.3149ZM241.771 62.3149H257.211V61.2109H241.771V62.3149ZM241.249 61.579C240.183 64.5812 237.308 66.7307 233.93 66.7307V67.8347C237.792 67.8347 241.076 65.3763 242.294 61.9468L241.249 61.579ZM233.93 66.7307H171.846V67.8347H233.93V66.7307ZM171.846 66.7307C168.468 66.7307 165.593 64.5812 164.527 61.579L163.482 61.9468C164.699 65.3763 167.984 67.8347 171.846 67.8347V66.7307Z"/>
</mask>
<path d="M164.004 61.7629L164.527 61.579L164.396 61.2109H164.004V61.7629ZM241.771 61.7629V61.2109H241.379L241.249 61.579L241.771 61.7629ZM148.565 62.3149H164.004V61.2109H148.565V62.3149ZM133.044 77.7703C133.044 69.2345 139.993 62.3149 148.565 62.3149V61.2109C139.381 61.2109 131.935 68.6249 131.935 77.7703H133.044ZM133.044 346.585V77.7703H131.935V346.585H133.044ZM148.565 362.04C139.993 362.04 133.044 355.121 133.044 346.585H131.935C131.935 355.731 139.381 363.144 148.565 363.144V362.04ZM257.211 362.04H148.565V363.144H257.211V362.04ZM272.732 346.585C272.732 355.121 265.783 362.04 257.211 362.04V363.144C266.395 363.144 273.84 355.731 273.84 346.585H272.732ZM272.732 77.7703V346.585H273.84V77.7703H272.732ZM257.211 62.3149C265.783 62.3149 272.732 69.2345 272.732 77.7703H273.84C273.84 68.6249 266.395 61.2109 257.211 61.2109V62.3149ZM241.771 62.3149H257.211V61.2109H241.771V62.3149ZM241.249 61.579C240.183 64.5812 237.308 66.7307 233.93 66.7307V67.8347C237.792 67.8347 241.076 65.3763 242.294 61.9468L241.249 61.579ZM233.93 66.7307H171.846V67.8347H233.93V66.7307ZM171.846 66.7307C168.468 66.7307 165.593 64.5812 164.527 61.579L163.482 61.9468C164.699 65.3763 167.984 67.8347 171.846 67.8347V66.7307Z" fill="#D1D5DB"/>
<path d="M164.004 61.7629H162.819V63.4373L164.398 62.8815L164.004 61.7629ZM164.527 61.579L164.921 62.6976L166.042 62.3029L165.645 61.1823L164.527 61.579ZM164.396 61.2109L165.514 60.8142L165.234 60.0251H164.396V61.2109ZM164.004 61.2109V60.0251H162.819V61.2109H164.004ZM241.771 61.7629L241.377 62.8814L242.957 63.4378V61.7629H241.771ZM241.771 61.2109H242.957V60.0251H241.771V61.2109ZM241.379 61.2109V60.0251H240.541L240.261 60.8153L241.379 61.2109ZM241.249 61.579L240.131 61.1834L239.735 62.3029L240.855 62.6975L241.249 61.579ZM148.565 62.3149H147.379V63.5007H148.565V62.3149ZM164.004 62.3149V63.5007H165.19V62.3149H164.004ZM164.004 61.2109H165.19V60.0251H164.004V61.2109ZM148.565 61.2109V60.0251H147.379V61.2109H148.565ZM133.044 77.7703V78.9562H134.23V77.7703H133.044ZM148.565 62.3149V63.5007H149.751V62.3149H148.565ZM148.565 61.2109H149.751V60.0251H148.565V61.2109ZM131.935 77.7703H130.749V78.9562H131.935V77.7703ZM133.044 346.585V347.771H134.23V346.585H133.044ZM133.044 77.7703H134.23V76.5845H133.044V77.7703ZM131.935 77.7703V76.5845H130.749V77.7703H131.935ZM131.935 346.585H130.749V347.771H131.935V346.585ZM148.565 362.04H149.751V360.854H148.565V362.04ZM133.044 346.585H134.23V345.399H133.044V346.585ZM131.935 346.585V345.399H130.749V346.585H131.935ZM148.565 363.144V364.33H149.751V363.144H148.565ZM257.211 362.04H258.397V360.854H257.211V362.04ZM148.565 362.04V360.854H147.379V362.04H148.565ZM148.565 363.144H147.379V364.33H148.565V363.144ZM257.211 363.144V364.33H258.397V363.144H257.211ZM272.732 346.585V345.399H271.546V346.585H272.732ZM257.211 362.04V360.854H256.025V362.04H257.211ZM257.211 363.144H256.025V364.33H257.211V363.144ZM273.84 346.585H275.026V345.399H273.84V346.585ZM272.732 77.7703V76.5845H271.546V77.7703H272.732ZM272.732 346.585H271.546V347.771H272.732V346.585ZM273.84 346.585V347.771H275.026V346.585H273.84ZM273.84 77.7703H275.026V76.5845H273.84V77.7703ZM257.211 62.3149H256.025V63.5007H257.211V62.3149ZM272.732 77.7703H271.546V78.9562H272.732V77.7703ZM273.84 77.7703V78.9562H275.026V77.7703H273.84ZM257.211 61.2109V60.0251H256.025V61.2109H257.211ZM241.771 62.3149H240.585V63.5007H241.771V62.3149ZM257.211 62.3149V63.5007H258.397V62.3149H257.211ZM257.211 61.2109H258.397V60.0251H257.211V61.2109ZM241.771 61.2109V60.0251H240.585V61.2109H241.771ZM241.249 61.579L241.643 60.4605L240.527 60.0678L240.131 61.1822L241.249 61.579ZM233.93 66.7307V65.5449H232.744V66.7307H233.93ZM233.93 67.8347H232.744V69.0205H233.93V67.8347ZM242.294 61.9468L243.411 62.3435L243.809 61.2231L242.687 60.8283L242.294 61.9468ZM233.93 66.7307H235.115V65.5449H233.93V66.7307ZM171.846 66.7307V65.5449H170.66V66.7307H171.846ZM171.846 67.8347H170.66V69.0205H171.846V67.8347ZM233.93 67.8347V69.0205H235.115V67.8347H233.93ZM171.846 66.7307H173.032V65.5449H171.846V66.7307ZM164.527 61.579L165.645 61.1824L165.249 60.0678L164.134 60.4604L164.527 61.579ZM163.482 61.9468L163.088 60.8283L161.967 61.223L162.364 62.3435L163.482 61.9468ZM171.846 67.8347V69.0205H173.032V67.8347H171.846ZM164.398 62.8815L164.921 62.6976L164.134 60.4604L163.611 60.6443L164.398 62.8815ZM165.645 61.1823L165.514 60.8142L163.279 61.6076L163.41 61.9757L165.645 61.1823ZM164.396 60.0251H164.004V62.3968H164.396V60.0251ZM162.819 61.2109V61.7629H165.19V61.2109H162.819ZM242.957 61.7629V61.2109H240.585V61.7629H242.957ZM241.771 60.0251H241.379V62.3968H241.771V60.0251ZM240.261 60.8153L240.131 61.1834L242.367 61.9746L242.497 61.6066L240.261 60.8153ZM240.855 62.6975L241.377 62.8814L242.165 60.6445L241.643 60.4605L240.855 62.6975ZM148.565 63.5007H164.004V61.1291H148.565V63.5007ZM165.19 62.3149V61.2109H162.819V62.3149H165.19ZM164.004 60.0251H148.565V62.3968H164.004V60.0251ZM147.379 61.2109V62.3149H149.751V61.2109H147.379ZM134.23 77.7703C134.23 69.8941 140.643 63.5007 148.565 63.5007V61.1291C139.343 61.1291 131.858 68.5749 131.858 77.7703H134.23ZM149.751 62.3149V61.2109H147.379V62.3149H149.751ZM148.565 60.0251C138.73 60.0251 130.749 67.9652 130.749 77.7703H133.121C133.121 69.2845 140.031 62.3968 148.565 62.3968V60.0251ZM131.935 78.9562H133.044V76.5845H131.935V78.9562ZM134.23 346.585V77.7703H131.858V346.585H134.23ZM133.044 76.5845H131.935V78.9562H133.044V76.5845ZM130.749 77.7703V346.585H133.121V77.7703H130.749ZM131.935 347.771H133.044V345.399H131.935V347.771ZM148.565 360.854C140.643 360.854 134.23 354.461 134.23 346.585H131.858C131.858 355.78 139.343 363.226 148.565 363.226V360.854ZM133.044 345.399H131.935V347.771H133.044V345.399ZM130.749 346.585C130.749 356.39 138.73 364.33 148.565 364.33V361.958C140.031 361.958 133.121 355.071 133.121 346.585H130.749ZM149.751 363.144V362.04H147.379V363.144H149.751ZM257.211 360.854H148.565V363.226H257.211V360.854ZM147.379 362.04V363.144H149.751V362.04H147.379ZM148.565 364.33H257.211V361.958H148.565V364.33ZM258.397 363.144V362.04H256.025V363.144H258.397ZM271.546 346.585C271.546 354.461 265.133 360.854 257.211 360.854V363.226C266.433 363.226 273.918 355.78 273.918 346.585H271.546ZM256.025 362.04V363.144H258.397V362.04H256.025ZM257.211 364.33C267.046 364.33 275.026 356.39 275.026 346.585H272.655C272.655 355.071 265.745 361.958 257.211 361.958V364.33ZM273.84 345.399H272.732V347.771H273.84V345.399ZM271.546 77.7703V346.585H273.918V77.7703H271.546ZM272.732 347.771H273.84V345.399H272.732V347.771ZM275.026 346.585V77.7703H272.655V346.585H275.026ZM273.84 76.5845H272.732V78.9562H273.84V76.5845ZM257.211 63.5007C265.133 63.5007 271.546 69.8941 271.546 77.7703H273.918C273.918 68.5749 266.433 61.1291 257.211 61.1291V63.5007ZM272.732 78.9562H273.84V76.5845H272.732V78.9562ZM275.026 77.7703C275.026 67.9652 267.046 60.0251 257.211 60.0251V62.3968C265.745 62.3968 272.655 69.2845 272.655 77.7703H275.026ZM256.025 61.2109V62.3149H258.397V61.2109H256.025ZM241.771 63.5007H257.211V61.1291H241.771V63.5007ZM258.397 62.3149V61.2109H256.025V62.3149H258.397ZM257.211 60.0251H241.771V62.3968H257.211V60.0251ZM240.585 61.2109V62.3149H242.957V61.2109H240.585ZM240.131 61.1822C239.229 63.7237 236.793 65.5449 233.93 65.5449V67.9166C237.822 67.9166 241.137 65.4387 242.366 61.9758L240.131 61.1822ZM232.744 66.7307V67.8347H235.115V66.7307H232.744ZM233.93 69.0205C238.307 69.0205 242.03 66.2335 243.411 62.3435L241.176 61.5502C240.122 64.5192 237.277 66.6489 233.93 66.6489V69.0205ZM242.687 60.8283L241.643 60.4605L240.855 62.6975L241.9 63.0654L242.687 60.8283ZM233.93 65.5449H171.846V67.9166H233.93V65.5449ZM170.66 66.7307V67.8347H173.032V66.7307H170.66ZM171.846 69.0205H233.93V66.6489H171.846V69.0205ZM235.115 67.8347V66.7307H232.744V67.8347H235.115ZM171.846 65.5449C168.983 65.5449 166.547 63.7236 165.645 61.1824L163.41 61.9756C164.639 65.4387 167.953 67.9166 171.846 67.9166V65.5449ZM164.134 60.4604L163.088 60.8283L163.876 63.0654L164.921 62.6976L164.134 60.4604ZM162.364 62.3435C163.745 66.2335 167.468 69.0205 171.846 69.0205V66.6489C168.499 66.6489 165.653 64.5192 164.599 61.5502L162.364 62.3435ZM173.032 67.8347V66.7307H170.66V67.8347H173.032Z" fill="#374151" mask="url(#path-13-inside-1_1501_842)"/>
</g>
</g>
<g filter="url(#filter2_dd_1501_842)">
<rect x="192.984" y="96.2832" width="143.564" height="143.564" rx="10" fill="white"/>
</g>
<mask id="mask0_1501_842" style="mask-type:alpha" maskUnits="userSpaceOnUse" x="202" y="105" width="126" height="126">
<rect x="202.303" y="105.602" width="124.927" height="124.927" rx="5" fill="white"/>
</mask>
<g mask="url(#mask0_1501_842)">
<path d="M289.133 179.606C292.334 175.369 298.698 175.37 301.898 179.606L331.421 218.676C335.403 223.946 331.644 231.499 325.038 231.499H265.993C259.387 231.499 255.628 223.946 259.61 218.676L289.133 179.606Z" fill="#C4B5FD"/>
<path d="M232.073 160.254C235.274 156.018 241.638 156.018 244.839 160.254L298.895 231.792H194.089C187.484 231.792 183.724 224.239 187.707 218.969L232.073 160.254Z" fill="#8B5CF6"/>
<circle cx="273.84" cy="143.895" r="17.4874" fill="#A78BFA"/>
</g>
<g filter="url(#filter3_dd_1501_842)">
<rect x="92.4026" y="35.2817" width="66.2385" height="66.2385" rx="8" fill="#A78BFA"/>
</g>
<path d="M145.079 88.5334C145.079 83.3465 143.019 78.372 139.351 74.7043C135.683 71.0366 130.709 68.9761 125.522 68.9761C120.335 68.9761 115.361 71.0366 111.693 74.7043C108.025 78.372 105.965 83.3465 105.965 88.5334L125.522 88.5334H145.079Z" fill="white"/>
<circle cx="125.522" cy="60.4546" r="12.0468" fill="white" stroke="#A78BFA" stroke-width="3.5282"/>
<g filter="url(#filter4_dd_1501_842)">
<rect x="39.7261" y="230.529" width="66.2385" height="66.2385" rx="8" fill="white"/>
</g>
<path d="M87.8987 260.567C90.2703 261.936 90.2703 265.359 87.8987 266.729L65.5876 279.61C63.2159 280.979 60.2514 279.268 60.2514 276.529L60.2514 250.766C60.2514 248.028 63.2159 246.316 65.5876 247.685L87.8987 260.567Z" fill="#A78BFA"/>
</g>
<rect x="21.5774" y="1.5" width="351.559" height="319.764" rx="12.5" stroke="white" stroke-width="3"/>
</g>
<g filter="url(#filter5_dd_1501_842)">
<rect x="455.077" y="8.78125" width="66.2385" height="66.2385" rx="8" fill="white"/>
</g>
<path d="M489.398 28.8109C488.734 28.1477 487.659 28.1477 486.996 28.8109L475.107 40.6996C474.444 41.3629 474.444 42.4382 475.107 43.1015C475.77 43.7648 476.846 43.7648 477.509 43.1015L478.006 42.6041V53.7893C478.006 54.7273 478.767 55.4877 479.705 55.4877H483.102C484.04 55.4877 484.8 54.7273 484.8 53.7893V50.3925C484.8 49.4545 485.56 48.6941 486.498 48.6941H489.895C490.833 48.6941 491.593 49.4545 491.593 50.3925V53.7893C491.593 54.7273 492.354 55.4877 493.292 55.4877H496.689C497.627 55.4877 498.387 54.7273 498.387 53.7893V42.6041L498.884 43.1015C499.548 43.7648 500.623 43.7648 501.286 43.1015C501.95 42.4382 501.95 41.3629 501.286 40.6996L489.398 28.8109Z" fill="#A78BFA"/>
<g filter="url(#filter6_dd_1501_842)">
<rect x="228.979" y="255.603" width="217.252" height="43.096" rx="21.548" fill="#F9FAFB"/>
<rect x="229.979" y="256.603" width="215.252" height="41.096" rx="20.548" stroke="#E2E8F0" stroke-width="2"/>
</g>
<path d="M428.356 285.512L422.782 279.938M424.64 275.292C424.64 278.884 421.728 281.796 418.137 281.796C414.545 281.796 411.633 278.884 411.633 275.292C411.633 271.701 414.545 268.789 418.137 268.789C421.728 268.789 424.64 271.701 424.64 275.292Z" stroke="#CBD5E1" stroke-width="1.85811" stroke-linecap="round" stroke-linejoin="round"/>
<path d="M249.481 280.65V279.748L253.583 273.865H249.458V272.65H255.38V273.553L251.282 279.436H255.403V280.65H249.481ZM259.36 280.768C258.774 280.768 258.267 280.639 257.837 280.381C257.407 280.123 257.074 279.762 256.837 279.299C256.603 278.835 256.485 278.294 256.485 277.674C256.485 277.054 256.603 276.511 256.837 276.045C257.074 275.579 257.407 275.217 257.837 274.959C258.267 274.701 258.774 274.572 259.36 274.572C259.946 274.572 260.454 274.701 260.884 274.959C261.313 275.217 261.646 275.579 261.88 276.045C262.117 276.511 262.235 277.054 262.235 277.674C262.235 278.294 262.117 278.835 261.88 279.299C261.646 279.762 261.313 280.123 260.884 280.381C260.454 280.639 259.946 280.768 259.36 280.768ZM259.368 279.635C259.686 279.635 259.951 279.548 260.165 279.373C260.379 279.196 260.537 278.959 260.642 278.662C260.748 278.365 260.802 278.035 260.802 277.67C260.802 277.303 260.748 276.971 260.642 276.674C260.537 276.374 260.379 276.136 260.165 275.959C259.951 275.782 259.686 275.693 259.368 275.693C259.043 275.693 258.772 275.782 258.556 275.959C258.342 276.136 258.182 276.374 258.075 276.674C257.971 276.971 257.919 277.303 257.919 277.67C257.919 278.035 257.971 278.365 258.075 278.662C258.182 278.959 258.342 279.196 258.556 279.373C258.772 279.548 259.043 279.635 259.368 279.635ZM266.092 280.768C265.49 280.768 264.971 280.643 264.533 280.393C264.098 280.14 263.764 279.783 263.529 279.322C263.295 278.859 263.178 278.313 263.178 277.686C263.178 277.068 263.295 276.527 263.529 276.061C263.766 275.592 264.097 275.227 264.521 274.967C264.946 274.704 265.445 274.572 266.018 274.572C266.387 274.572 266.736 274.632 267.064 274.752C267.395 274.869 267.687 275.051 267.939 275.299C268.195 275.546 268.395 275.861 268.541 276.244C268.687 276.624 268.76 277.077 268.76 277.604V278.037H263.842V277.084H267.404C267.402 276.813 267.343 276.572 267.229 276.361C267.114 276.148 266.954 275.98 266.748 275.857C266.545 275.735 266.308 275.674 266.037 275.674C265.748 275.674 265.494 275.744 265.275 275.885C265.057 276.023 264.886 276.205 264.764 276.432C264.644 276.656 264.583 276.902 264.58 277.17V278.002C264.58 278.351 264.644 278.65 264.771 278.9C264.899 279.148 265.077 279.338 265.307 279.471C265.536 279.601 265.804 279.666 266.111 279.666C266.317 279.666 266.503 279.637 266.67 279.58C266.837 279.52 266.981 279.433 267.104 279.318C267.226 279.204 267.318 279.062 267.381 278.893L268.701 279.041C268.618 279.39 268.459 279.695 268.225 279.955C267.993 280.213 267.696 280.413 267.334 280.557C266.972 280.697 266.558 280.768 266.092 280.768ZM271.245 278.768L271.241 277.061H271.468L273.624 274.65H275.276L272.624 277.604H272.331L271.245 278.768ZM269.956 280.65V272.65H271.37V280.65H269.956ZM273.722 280.65L271.769 277.92L272.722 276.924L275.413 280.65H273.722ZM278.628 280.768C278.026 280.768 277.507 280.643 277.069 280.393C276.634 280.14 276.3 279.783 276.065 279.322C275.831 278.859 275.714 278.313 275.714 277.686C275.714 277.068 275.831 276.527 276.065 276.061C276.302 275.592 276.633 275.227 277.058 274.967C277.482 274.704 277.981 274.572 278.554 274.572C278.924 274.572 279.272 274.632 279.601 274.752C279.931 274.869 280.223 275.051 280.476 275.299C280.731 275.546 280.931 275.861 281.077 276.244C281.223 276.624 281.296 277.077 281.296 277.604V278.037H276.378V277.084H279.94C279.938 276.813 279.879 276.572 279.765 276.361C279.65 276.148 279.49 275.98 279.284 275.857C279.081 275.735 278.844 275.674 278.573 275.674C278.284 275.674 278.03 275.744 277.812 275.885C277.593 276.023 277.422 276.205 277.3 276.432C277.18 276.656 277.119 276.902 277.116 277.17V278.002C277.116 278.351 277.18 278.65 277.308 278.9C277.435 279.148 277.614 279.338 277.843 279.471C278.072 279.601 278.34 279.666 278.647 279.666C278.853 279.666 279.039 279.637 279.206 279.58C279.373 279.52 279.517 279.433 279.64 279.318C279.762 279.204 279.854 279.062 279.917 278.893L281.237 279.041C281.154 279.39 280.995 279.695 280.761 279.955C280.529 280.213 280.232 280.413 279.87 280.557C279.508 280.697 279.094 280.768 278.628 280.768ZM283.906 277.135V280.65H282.492V274.65H283.844V275.67H283.914C284.052 275.334 284.272 275.067 284.574 274.869C284.879 274.671 285.255 274.572 285.703 274.572C286.117 274.572 286.478 274.661 286.785 274.838C287.095 275.015 287.335 275.271 287.504 275.607C287.676 275.943 287.76 276.351 287.758 276.83V280.65H286.344V277.049C286.344 276.648 286.24 276.334 286.031 276.107C285.826 275.881 285.54 275.768 285.176 275.768C284.928 275.768 284.708 275.822 284.516 275.932C284.326 276.038 284.176 276.193 284.066 276.396C283.96 276.6 283.906 276.846 283.906 277.135ZM290.066 280.736C289.829 280.736 289.626 280.653 289.457 280.486C289.288 280.32 289.204 280.117 289.207 279.877C289.204 279.643 289.288 279.442 289.457 279.275C289.626 279.109 289.829 279.025 290.066 279.025C290.296 279.025 290.495 279.109 290.664 279.275C290.836 279.442 290.923 279.643 290.926 279.877C290.923 280.036 290.882 280.18 290.801 280.311C290.723 280.441 290.618 280.545 290.488 280.623C290.361 280.699 290.22 280.736 290.066 280.736ZM293.257 280.736C293.02 280.736 292.817 280.653 292.647 280.486C292.478 280.32 292.395 280.117 292.397 279.877C292.395 279.643 292.478 279.442 292.647 279.275C292.817 279.109 293.02 279.025 293.257 279.025C293.486 279.025 293.685 279.109 293.854 279.275C294.026 279.442 294.114 279.643 294.116 279.877C294.114 280.036 294.072 280.18 293.991 280.311C293.913 280.441 293.809 280.545 293.679 280.623C293.551 280.699 293.41 280.736 293.257 280.736ZM296.447 280.736C296.21 280.736 296.007 280.653 295.838 280.486C295.669 280.32 295.585 280.117 295.588 279.877C295.585 279.643 295.669 279.442 295.838 279.275C296.007 279.109 296.21 279.025 296.447 279.025C296.676 279.025 296.876 279.109 297.045 279.275C297.217 279.442 297.304 279.643 297.307 279.877C297.304 280.036 297.262 280.18 297.182 280.311C297.104 280.441 296.999 280.545 296.869 280.623C296.742 280.699 296.601 280.736 296.447 280.736Z" fill="#9CA3AF"/>
<path d="M427.302 109.532L423.536 118.947L416.004 98.2337L436.718 105.766L427.302 109.532ZM427.302 109.532L436.718 118.947M412.592 85.5015L414.055 90.9581M408.728 96.2842L403.272 94.8221M425.325 88.9131L421.33 92.9077M410.678 103.56L406.684 107.554" stroke="#9CA3AF" stroke-width="3.49805" stroke-linecap="round" stroke-linejoin="round"/>
<defs>
<filter id="filter0_dd_1501_842" x="0.0773926" y="0" width="394.559" height="362.764" filterUnits="userSpaceOnUse" color-interpolation-filters="sRGB">
<feFlood flood-opacity="0" result="BackgroundImageFix"/>
<feColorMatrix in="SourceAlpha" type="matrix" values="0 0 0 0 0 0 0 0 0 0 0 0 0 0 0 0 0 0 127 0" result="hardAlpha"/>
<feMorphology radius="5" operator="erode" in="SourceAlpha" result="effect1_dropShadow_1501_842"/>
<feOffset dy="10"/>
<feGaussianBlur stdDeviation="5"/>
<feColorMatrix type="matrix" values="0 0 0 0 0 0 0 0 0 0 0 0 0 0 0 0 0 0 0.04 0"/>
<feBlend mode="normal" in2="BackgroundImageFix" result="effect1_dropShadow_1501_842"/>
<feColorMatrix in="SourceAlpha" type="matrix" values="0 0 0 0 0 0 0 0 0 0 0 0 0 0 0 0 0 0 127 0" result="hardAlpha"/>
<feMorphology radius="5" operator="erode" in="SourceAlpha" result="effect2_dropShadow_1501_842"/>
<feOffset dy="20"/>
<feGaussianBlur stdDeviation="12.5"/>
<feColorMatrix type="matrix" values="0 0 0 0 0 0 0 0 0 0 0 0 0 0 0 0 0 0 0.1 0"/>
<feBlend mode="normal" in2="effect1_dropShadow_1501_842" result="effect2_dropShadow_1501_842"/>
<feBlend mode="normal" in="SourceGraphic" in2="effect2_dropShadow_1501_842" result="shape"/>
</filter>
<filter id="filter1_dd_1501_842" x="108.282" y="47.8002" width="190.874" height="349.16" filterUnits="userSpaceOnUse" color-interpolation-filters="sRGB">
<feFlood flood-opacity="0" result="BackgroundImageFix"/>
<feColorMatrix in="SourceAlpha" type="matrix" values="0 0 0 0 0 0 0 0 0 0 0 0 0 0 0 0 0 0 127 0" result="hardAlpha"/>
<feMorphology radius="2.37163" operator="erode" in="SourceAlpha" result="effect1_dropShadow_1501_842"/>
<feOffset dy="4.74326"/>
<feGaussianBlur stdDeviation="3.55745"/>
<feColorMatrix type="matrix" values="0 0 0 0 0 0 0 0 0 0 0 0 0 0 0 0 0 0 0.05 0"/>
<feBlend mode="normal" in2="BackgroundImageFix" result="effect1_dropShadow_1501_842"/>
<feColorMatrix in="SourceAlpha" type="matrix" values="0 0 0 0 0 0 0 0 0 0 0 0 0 0 0 0 0 0 127 0" result="hardAlpha"/>
<feMorphology radius="3.55745" operator="erode" in="SourceAlpha" result="effect2_dropShadow_1501_842"/>
<feOffset dy="11.8582"/>
<feGaussianBlur stdDeviation="8.89362"/>
<feColorMatrix type="matrix" values="0 0 0 0 0 0 0 0 0 0 0 0 0 0 0 0 0 0 0.1 0"/>
<feBlend mode="normal" in2="effect1_dropShadow_1501_842" result="effect2_dropShadow_1501_842"/>
<feBlend mode="normal" in="SourceGraphic" in2="effect2_dropShadow_1501_842" result="shape"/>
</filter>
<filter id="filter2_dd_1501_842" x="187.055" y="95.0974" width="155.422" height="155.423" filterUnits="userSpaceOnUse" color-interpolation-filters="sRGB">
<feFlood flood-opacity="0" result="BackgroundImageFix"/>
<feColorMatrix in="SourceAlpha" type="matrix" values="0 0 0 0 0 0 0 0 0 0 0 0 0 0 0 0 0 0 127 0" result="hardAlpha"/>
<feMorphology radius="1.18582" operator="erode" in="SourceAlpha" result="effect1_dropShadow_1501_842"/>
<feOffset dy="2.37163"/>
<feGaussianBlur stdDeviation="2.37163"/>
<feColorMatrix type="matrix" values="0 0 0 0 0 0 0 0 0 0 0 0 0 0 0 0 0 0 0.06 0"/>
<feBlend mode="normal" in2="BackgroundImageFix" result="effect1_dropShadow_1501_842"/>
<feColorMatrix in="SourceAlpha" type="matrix" values="0 0 0 0 0 0 0 0 0 0 0 0 0 0 0 0 0 0 127 0" result="hardAlpha"/>
<feMorphology radius="1.18582" operator="erode" in="SourceAlpha" result="effect2_dropShadow_1501_842"/>
<feOffset dy="4.74326"/>
<feGaussianBlur stdDeviation="3.55745"/>
<feColorMatrix type="matrix" values="0 0 0 0 0 0 0 0 0 0 0 0 0 0 0 0 0 0 0.1 0"/>
<feBlend mode="normal" in2="effect1_dropShadow_1501_842" result="effect2_dropShadow_1501_842"/>
<feBlend mode="normal" in="SourceGraphic" in2="effect2_dropShadow_1501_842" result="shape"/>
</filter>
<filter id="filter3_dd_1501_842" x="90.2037" y="34.842" width="70.6363" height="70.6366" filterUnits="userSpaceOnUse" color-interpolation-filters="sRGB">
<feFlood flood-opacity="0" result="BackgroundImageFix"/>
<feColorMatrix in="SourceAlpha" type="matrix" values="0 0 0 0 0 0 0 0 0 0 0 0 0 0 0 0 0 0 127 0" result="hardAlpha"/>
<feMorphology radius="0.439779" operator="erode" in="SourceAlpha" result="effect1_dropShadow_1501_842"/>
<feOffset dy="0.879559"/>
<feGaussianBlur stdDeviation="0.879559"/>
<feColorMatrix type="matrix" values="0 0 0 0 0 0 0 0 0 0 0 0 0 0 0 0 0 0 0.06 0"/>
<feBlend mode="normal" in2="BackgroundImageFix" result="effect1_dropShadow_1501_842"/>
<feColorMatrix in="SourceAlpha" type="matrix" values="0 0 0 0 0 0 0 0 0 0 0 0 0 0 0 0 0 0 127 0" result="hardAlpha"/>
<feMorphology radius="0.439779" operator="erode" in="SourceAlpha" result="effect2_dropShadow_1501_842"/>
<feOffset dy="1.75912"/>
<feGaussianBlur stdDeviation="1.31934"/>
<feColorMatrix type="matrix" values="0 0 0 0 0 0 0 0 0 0 0 0 0 0 0 0 0 0 0.1 0"/>
<feBlend mode="normal" in2="effect1_dropShadow_1501_842" result="effect2_dropShadow_1501_842"/>
<feBlend mode="normal" in="SourceGraphic" in2="effect2_dropShadow_1501_842" result="shape"/>
</filter>
<filter id="filter4_dd_1501_842" x="37.5272" y="230.089" width="70.6363" height="70.6366" filterUnits="userSpaceOnUse" color-interpolation-filters="sRGB">
<feFlood flood-opacity="0" result="BackgroundImageFix"/>
<feColorMatrix in="SourceAlpha" type="matrix" values="0 0 0 0 0 0 0 0 0 0 0 0 0 0 0 0 0 0 127 0" result="hardAlpha"/>
<feMorphology radius="0.439779" operator="erode" in="SourceAlpha" result="effect1_dropShadow_1501_842"/>
<feOffset dy="0.879559"/>
<feGaussianBlur stdDeviation="0.879559"/>
<feColorMatrix type="matrix" values="0 0 0 0 0 0 0 0 0 0 0 0 0 0 0 0 0 0 0.06 0"/>
<feBlend mode="normal" in2="BackgroundImageFix" result="effect1_dropShadow_1501_842"/>
<feColorMatrix in="SourceAlpha" type="matrix" values="0 0 0 0 0 0 0 0 0 0 0 0 0 0 0 0 0 0 127 0" result="hardAlpha"/>
<feMorphology radius="0.439779" operator="erode" in="SourceAlpha" result="effect2_dropShadow_1501_842"/>
<feOffset dy="1.75912"/>
<feGaussianBlur stdDeviation="1.31934"/>
<feColorMatrix type="matrix" values="0 0 0 0 0 0 0 0 0 0 0 0 0 0 0 0 0 0 0.1 0"/>
<feBlend mode="normal" in2="effect1_dropShadow_1501_842" result="effect2_dropShadow_1501_842"/>
<feBlend mode="normal" in="SourceGraphic" in2="effect2_dropShadow_1501_842" result="shape"/>
</filter>
<filter id="filter5_dd_1501_842" x="452.878" y="8.34147" width="70.6363" height="70.6366" filterUnits="userSpaceOnUse" color-interpolation-filters="sRGB">
<feFlood flood-opacity="0" result="BackgroundImageFix"/>
<feColorMatrix in="SourceAlpha" type="matrix" values="0 0 0 0 0 0 0 0 0 0 0 0 0 0 0 0 0 0 127 0" result="hardAlpha"/>
<feMorphology radius="0.439779" operator="erode" in="SourceAlpha" result="effect1_dropShadow_1501_842"/>
<feOffset dy="0.879559"/>
<feGaussianBlur stdDeviation="0.879559"/>
<feColorMatrix type="matrix" values="0 0 0 0 0 0 0 0 0 0 0 0 0 0 0 0 0 0 0.06 0"/>
<feBlend mode="normal" in2="BackgroundImageFix" result="effect1_dropShadow_1501_842"/>
<feColorMatrix in="SourceAlpha" type="matrix" values="0 0 0 0 0 0 0 0 0 0 0 0 0 0 0 0 0 0 127 0" result="hardAlpha"/>
<feMorphology radius="0.439779" operator="erode" in="SourceAlpha" result="effect2_dropShadow_1501_842"/>
<feOffset dy="1.75912"/>
<feGaussianBlur stdDeviation="1.31934"/>
<feColorMatrix type="matrix" values="0 0 0 0 0 0 0 0 0 0 0 0 0 0 0 0 0 0 0.1 0"/>
<feBlend mode="normal" in2="effect1_dropShadow_1501_842" result="effect2_dropShadow_1501_842"/>
<feBlend mode="normal" in="SourceGraphic" in2="effect2_dropShadow_1501_842" result="shape"/>
</filter>
<filter id="filter6_dd_1501_842" x="216.979" y="253.603" width="241.252" height="67.0962" filterUnits="userSpaceOnUse" color-interpolation-filters="sRGB">
<feFlood flood-opacity="0" result="BackgroundImageFix"/>
<feColorMatrix in="SourceAlpha" type="matrix" values="0 0 0 0 0 0 0 0 0 0 0 0 0 0 0 0 0 0 127 0" result="hardAlpha"/>
<feMorphology radius="2" operator="erode" in="SourceAlpha" result="effect1_dropShadow_1501_842"/>
<feOffset dy="4"/>
<feGaussianBlur stdDeviation="3"/>
<feColorMatrix type="matrix" values="0 0 0 0 0 0 0 0 0 0 0 0 0 0 0 0 0 0 0.05 0"/>
<feBlend mode="normal" in2="BackgroundImageFix" result="effect1_dropShadow_1501_842"/>
<feColorMatrix in="SourceAlpha" type="matrix" values="0 0 0 0 0 0 0 0 0 0 0 0 0 0 0 0 0 0 127 0" result="hardAlpha"/>
<feMorphology radius="3" operator="erode" in="SourceAlpha" result="effect2_dropShadow_1501_842"/>
<feOffset dy="10"/>
<feGaussianBlur stdDeviation="7.5"/>
<feColorMatrix type="matrix" values="0 0 0 0 0 0 0 0 0 0 0 0 0 0 0 0 0 0 0.1 0"/>
<feBlend mode="normal" in2="effect1_dropShadow_1501_842" result="effect2_dropShadow_1501_842"/>
<feBlend mode="normal" in="SourceGraphic" in2="effect2_dropShadow_1501_842" result="shape"/>
</filter>
<clipPath id="clip0_1501_842">
<rect x="20.0774" width="354.559" height="322.764" rx="14" fill="white"/>
</clipPath>
</defs>
</svg>
