<svg width="576" height="413" viewBox="0 0 576 413" fill="none" xmlns="http://www.w3.org/2000/svg">
<circle cx="247.403" cy="103.921" r="5.04879" transform="rotate(90 247.403 103.921)" fill="#E5E7EB"/>
<circle cx="227.237" cy="103.921" r="5.04879" transform="rotate(90 227.237 103.921)" fill="#E5E7EB"/>
<circle cx="207.07" cy="103.921" r="5.04879" transform="rotate(90 207.07 103.921)" fill="#E5E7EB"/>
<circle cx="186.903" cy="103.921" r="5.04879" transform="rotate(90 186.903 103.921)" fill="#E5E7EB"/>
<circle cx="166.736" cy="103.921" r="5.04879" transform="rotate(90 166.736 103.921)" fill="#E5E7EB"/>
<circle cx="146.57" cy="103.921" r="5.04879" transform="rotate(90 146.57 103.921)" fill="#E5E7EB"/>
<circle cx="126.403" cy="103.921" r="5.04879" transform="rotate(90 126.403 103.921)" fill="#E5E7EB"/>
<circle cx="106.236" cy="103.921" r="5.04879" transform="rotate(90 106.236 103.921)" fill="#E5E7EB"/>
<circle cx="86.069" cy="103.921" r="5.04879" transform="rotate(90 86.069 103.921)" fill="#E5E7EB"/>
<circle cx="65.9023" cy="103.921" r="5.04879" transform="rotate(90 65.9023 103.921)" fill="#E5E7EB"/>
<circle cx="247.404" cy="124.179" r="5.04879" transform="rotate(90 247.404 124.179)" fill="#E5E7EB"/>
<circle cx="227.237" cy="124.179" r="5.04879" transform="rotate(90 227.237 124.179)" fill="#E5E7EB"/>
<circle cx="207.07" cy="124.179" r="5.04879" transform="rotate(90 207.07 124.179)" fill="#E5E7EB"/>
<circle cx="186.903" cy="124.179" r="5.04879" transform="rotate(90 186.903 124.179)" fill="#E5E7EB"/>
<circle cx="166.736" cy="124.179" r="5.04879" transform="rotate(90 166.736 124.179)" fill="#E5E7EB"/>
<circle cx="146.57" cy="124.179" r="5.04879" transform="rotate(90 146.57 124.179)" fill="#E5E7EB"/>
<circle cx="126.403" cy="124.179" r="5.04879" transform="rotate(90 126.403 124.179)" fill="#E5E7EB"/>
<circle cx="106.236" cy="124.179" r="5.04879" transform="rotate(90 106.236 124.179)" fill="#E5E7EB"/>
<circle cx="86.069" cy="124.179" r="5.04879" transform="rotate(90 86.069 124.179)" fill="#E5E7EB"/>
<circle cx="65.9023" cy="124.179" r="5.04879" transform="rotate(90 65.9023 124.179)" fill="#E5E7EB"/>
<circle cx="247.404" cy="144.436" r="5.04879" transform="rotate(90 247.404 144.436)" fill="#E5E7EB"/>
<circle cx="227.237" cy="144.436" r="5.04879" transform="rotate(90 227.237 144.436)" fill="#E5E7EB"/>
<circle cx="207.07" cy="144.436" r="5.04879" transform="rotate(90 207.07 144.436)" fill="#E5E7EB"/>
<circle cx="186.903" cy="144.436" r="5.04879" transform="rotate(90 186.903 144.436)" fill="#E5E7EB"/>
<circle cx="166.736" cy="144.436" r="5.04879" transform="rotate(90 166.736 144.436)" fill="#E5E7EB"/>
<circle cx="146.57" cy="144.436" r="5.04879" transform="rotate(90 146.57 144.436)" fill="#E5E7EB"/>
<circle cx="126.403" cy="144.436" r="5.04879" transform="rotate(90 126.403 144.436)" fill="#E5E7EB"/>
<circle cx="106.236" cy="144.436" r="5.04879" transform="rotate(90 106.236 144.436)" fill="#E5E7EB"/>
<circle cx="86.069" cy="144.436" r="5.04879" transform="rotate(90 86.069 144.436)" fill="#E5E7EB"/>
<circle cx="65.9023" cy="144.436" r="5.04879" transform="rotate(90 65.9023 144.436)" fill="#E5E7EB"/>
<circle cx="247.404" cy="164.693" r="5.04879" transform="rotate(90 247.404 164.693)" fill="#E5E7EB"/>
<circle cx="227.237" cy="164.693" r="5.04879" transform="rotate(90 227.237 164.693)" fill="#E5E7EB"/>
<circle cx="207.07" cy="164.693" r="5.04879" transform="rotate(90 207.07 164.693)" fill="#E5E7EB"/>
<circle cx="186.903" cy="164.693" r="5.04879" transform="rotate(90 186.903 164.693)" fill="#E5E7EB"/>
<circle cx="166.736" cy="164.693" r="5.04879" transform="rotate(90 166.736 164.693)" fill="#E5E7EB"/>
<circle cx="146.57" cy="164.693" r="5.04879" transform="rotate(90 146.57 164.693)" fill="#E5E7EB"/>
<circle cx="126.403" cy="164.693" r="5.04879" transform="rotate(90 126.403 164.693)" fill="#E5E7EB"/>
<circle cx="106.236" cy="164.693" r="5.04879" transform="rotate(90 106.236 164.693)" fill="#E5E7EB"/>
<circle cx="86.069" cy="164.693" r="5.04879" transform="rotate(90 86.069 164.693)" fill="#E5E7EB"/>
<circle cx="65.9023" cy="164.693" r="5.04879" transform="rotate(90 65.9023 164.693)" fill="#E5E7EB"/>
<circle cx="247.404" cy="184.951" r="5.04879" transform="rotate(90 247.404 184.951)" fill="#E5E7EB"/>
<circle cx="227.237" cy="184.951" r="5.04879" transform="rotate(90 227.237 184.951)" fill="#E5E7EB"/>
<circle cx="207.07" cy="184.951" r="5.04879" transform="rotate(90 207.07 184.951)" fill="#E5E7EB"/>
<circle cx="186.903" cy="184.951" r="5.04879" transform="rotate(90 186.903 184.951)" fill="#E5E7EB"/>
<circle cx="166.736" cy="184.951" r="5.04879" transform="rotate(90 166.736 184.951)" fill="#E5E7EB"/>
<circle cx="146.57" cy="184.951" r="5.04879" transform="rotate(90 146.57 184.951)" fill="#E5E7EB"/>
<circle cx="126.403" cy="184.951" r="5.04879" transform="rotate(90 126.403 184.951)" fill="#E5E7EB"/>
<circle cx="106.236" cy="184.951" r="5.04879" transform="rotate(90 106.236 184.951)" fill="#E5E7EB"/>
<circle cx="86.069" cy="184.951" r="5.04879" transform="rotate(90 86.069 184.951)" fill="#E5E7EB"/>
<circle cx="65.9023" cy="184.951" r="5.04879" transform="rotate(90 65.9023 184.951)" fill="#E5E7EB"/>
<circle cx="247.404" cy="205.207" r="5.04879" transform="rotate(90 247.404 205.207)" fill="#E5E7EB"/>
<circle cx="227.237" cy="205.207" r="5.04879" transform="rotate(90 227.237 205.207)" fill="#E5E7EB"/>
<circle cx="207.07" cy="205.207" r="5.04879" transform="rotate(90 207.07 205.207)" fill="#E5E7EB"/>
<circle cx="186.903" cy="205.207" r="5.04879" transform="rotate(90 186.903 205.207)" fill="#E5E7EB"/>
<circle cx="166.736" cy="205.207" r="5.04879" transform="rotate(90 166.736 205.207)" fill="#E5E7EB"/>
<circle cx="146.57" cy="205.207" r="5.04879" transform="rotate(90 146.57 205.207)" fill="#E5E7EB"/>
<circle cx="126.403" cy="205.207" r="5.04879" transform="rotate(90 126.403 205.207)" fill="#E5E7EB"/>
<circle cx="106.236" cy="205.207" r="5.04879" transform="rotate(90 106.236 205.207)" fill="#E5E7EB"/>
<circle cx="86.069" cy="205.207" r="5.04879" transform="rotate(90 86.069 205.207)" fill="#E5E7EB"/>
<circle cx="65.9023" cy="205.207" r="5.04879" transform="rotate(90 65.9023 205.207)" fill="#E5E7EB"/>
<circle cx="247.404" cy="225.465" r="5.04879" transform="rotate(90 247.404 225.465)" fill="#E5E7EB"/>
<circle cx="227.237" cy="225.465" r="5.04879" transform="rotate(90 227.237 225.465)" fill="#E5E7EB"/>
<circle cx="207.07" cy="225.465" r="5.04879" transform="rotate(90 207.07 225.465)" fill="#E5E7EB"/>
<circle cx="186.903" cy="225.465" r="5.04879" transform="rotate(90 186.903 225.465)" fill="#E5E7EB"/>
<circle cx="166.736" cy="225.465" r="5.04879" transform="rotate(90 166.736 225.465)" fill="#E5E7EB"/>
<circle cx="146.57" cy="225.465" r="5.04879" transform="rotate(90 146.57 225.465)" fill="#E5E7EB"/>
<circle cx="126.403" cy="225.465" r="5.04879" transform="rotate(90 126.403 225.465)" fill="#E5E7EB"/>
<circle cx="106.236" cy="225.465" r="5.04879" transform="rotate(90 106.236 225.465)" fill="#E5E7EB"/>
<circle cx="86.069" cy="225.465" r="5.04879" transform="rotate(90 86.069 225.465)" fill="#E5E7EB"/>
<circle cx="65.9023" cy="225.465" r="5.04879" transform="rotate(90 65.9023 225.465)" fill="#E5E7EB"/>
<circle cx="247.404" cy="245.723" r="5.04879" transform="rotate(90 247.404 245.723)" fill="#E5E7EB"/>
<circle cx="227.237" cy="245.723" r="5.04879" transform="rotate(90 227.237 245.723)" fill="#E5E7EB"/>
<circle cx="207.07" cy="245.723" r="5.04879" transform="rotate(90 207.07 245.723)" fill="#E5E7EB"/>
<circle cx="186.903" cy="245.723" r="5.04879" transform="rotate(90 186.903 245.723)" fill="#E5E7EB"/>
<circle cx="166.736" cy="245.723" r="5.04879" transform="rotate(90 166.736 245.723)" fill="#E5E7EB"/>
<circle cx="146.57" cy="245.723" r="5.04879" transform="rotate(90 146.57 245.723)" fill="#E5E7EB"/>
<circle cx="126.403" cy="245.723" r="5.04879" transform="rotate(90 126.403 245.723)" fill="#E5E7EB"/>
<circle cx="106.236" cy="245.723" r="5.04879" transform="rotate(90 106.236 245.723)" fill="#E5E7EB"/>
<circle cx="86.069" cy="245.723" r="5.04879" transform="rotate(90 86.069 245.723)" fill="#E5E7EB"/>
<circle cx="65.9023" cy="245.723" r="5.04879" transform="rotate(90 65.9023 245.723)" fill="#E5E7EB"/>
<circle cx="247.404" cy="265.979" r="5.04879" transform="rotate(90 247.404 265.979)" fill="#E5E7EB"/>
<circle cx="227.237" cy="265.979" r="5.04879" transform="rotate(90 227.237 265.979)" fill="#E5E7EB"/>
<circle cx="207.07" cy="265.979" r="5.04879" transform="rotate(90 207.07 265.979)" fill="#E5E7EB"/>
<circle cx="186.903" cy="265.979" r="5.04879" transform="rotate(90 186.903 265.979)" fill="#E5E7EB"/>
<circle cx="166.736" cy="265.979" r="5.04879" transform="rotate(90 166.736 265.979)" fill="#E5E7EB"/>
<circle cx="146.57" cy="265.979" r="5.04879" transform="rotate(90 146.57 265.979)" fill="#E5E7EB"/>
<circle cx="126.403" cy="265.979" r="5.04879" transform="rotate(90 126.403 265.979)" fill="#E5E7EB"/>
<circle cx="106.236" cy="265.979" r="5.04879" transform="rotate(90 106.236 265.979)" fill="#E5E7EB"/>
<circle cx="86.069" cy="265.979" r="5.04879" transform="rotate(90 86.069 265.979)" fill="#E5E7EB"/>
<circle cx="65.9023" cy="265.979" r="5.04879" transform="rotate(90 65.9023 265.979)" fill="#E5E7EB"/>
<circle cx="247.404" cy="286.237" r="5.04879" transform="rotate(90 247.404 286.237)" fill="#E5E7EB"/>
<circle cx="227.237" cy="286.237" r="5.04879" transform="rotate(90 227.237 286.237)" fill="#E5E7EB"/>
<circle cx="207.07" cy="286.237" r="5.04879" transform="rotate(90 207.07 286.237)" fill="#E5E7EB"/>
<circle cx="186.903" cy="286.237" r="5.04879" transform="rotate(90 186.903 286.237)" fill="#E5E7EB"/>
<circle cx="166.736" cy="286.237" r="5.04879" transform="rotate(90 166.736 286.237)" fill="#E5E7EB"/>
<circle cx="146.57" cy="286.237" r="5.04879" transform="rotate(90 146.57 286.237)" fill="#E5E7EB"/>
<circle cx="126.403" cy="286.237" r="5.04879" transform="rotate(90 126.403 286.237)" fill="#E5E7EB"/>
<circle cx="106.236" cy="286.237" r="5.04879" transform="rotate(90 106.236 286.237)" fill="#E5E7EB"/>
<circle cx="86.0691" cy="286.237" r="5.04879" transform="rotate(90 86.0691 286.237)" fill="#E5E7EB"/>
<circle cx="65.9023" cy="286.237" r="5.04879" transform="rotate(90 65.9023 286.237)" fill="#E5E7EB"/>
<circle cx="247.404" cy="306.495" r="5.04879" transform="rotate(90 247.404 306.495)" fill="#E5E7EB"/>
<circle cx="227.237" cy="306.495" r="5.04879" transform="rotate(90 227.237 306.495)" fill="#E5E7EB"/>
<circle cx="207.07" cy="306.495" r="5.04879" transform="rotate(90 207.07 306.495)" fill="#E5E7EB"/>
<circle cx="186.903" cy="306.495" r="5.04879" transform="rotate(90 186.903 306.495)" fill="#E5E7EB"/>
<circle cx="166.736" cy="306.495" r="5.04879" transform="rotate(90 166.736 306.495)" fill="#E5E7EB"/>
<circle cx="146.57" cy="306.495" r="5.04879" transform="rotate(90 146.57 306.495)" fill="#E5E7EB"/>
<circle cx="126.403" cy="306.495" r="5.04879" transform="rotate(90 126.403 306.495)" fill="#E5E7EB"/>
<circle cx="106.236" cy="306.495" r="5.04879" transform="rotate(90 106.236 306.495)" fill="#E5E7EB"/>
<circle cx="86.0691" cy="306.495" r="5.04879" transform="rotate(90 86.0691 306.495)" fill="#E5E7EB"/>
<circle cx="65.9023" cy="306.495" r="5.04879" transform="rotate(90 65.9023 306.495)" fill="#E5E7EB"/>
<circle cx="247.404" cy="326.752" r="5.04879" transform="rotate(90 247.404 326.752)" fill="#E5E7EB"/>
<circle cx="227.237" cy="326.752" r="5.04879" transform="rotate(90 227.237 326.752)" fill="#E5E7EB"/>
<circle cx="207.07" cy="326.752" r="5.04879" transform="rotate(90 207.07 326.752)" fill="#E5E7EB"/>
<circle cx="186.903" cy="326.752" r="5.04879" transform="rotate(90 186.903 326.752)" fill="#E5E7EB"/>
<circle cx="166.736" cy="326.752" r="5.04879" transform="rotate(90 166.736 326.752)" fill="#E5E7EB"/>
<circle cx="146.57" cy="326.752" r="5.04879" transform="rotate(90 146.57 326.752)" fill="#E5E7EB"/>
<circle cx="126.403" cy="326.752" r="5.04879" transform="rotate(90 126.403 326.752)" fill="#E5E7EB"/>
<circle cx="106.236" cy="326.752" r="5.04879" transform="rotate(90 106.236 326.752)" fill="#E5E7EB"/>
<circle cx="86.0691" cy="326.752" r="5.04879" transform="rotate(90 86.0691 326.752)" fill="#E5E7EB"/>
<circle cx="65.9023" cy="326.752" r="5.04879" transform="rotate(90 65.9023 326.752)" fill="#E5E7EB"/>
<circle cx="247.404" cy="347.009" r="5.04879" transform="rotate(90 247.404 347.009)" fill="#E5E7EB"/>
<circle cx="227.237" cy="347.009" r="5.04879" transform="rotate(90 227.237 347.009)" fill="#E5E7EB"/>
<circle cx="207.07" cy="347.009" r="5.04879" transform="rotate(90 207.07 347.009)" fill="#E5E7EB"/>
<circle cx="186.903" cy="347.009" r="5.04879" transform="rotate(90 186.903 347.009)" fill="#E5E7EB"/>
<circle cx="166.736" cy="347.009" r="5.04879" transform="rotate(90 166.736 347.009)" fill="#E5E7EB"/>
<circle cx="146.57" cy="347.009" r="5.04879" transform="rotate(90 146.57 347.009)" fill="#E5E7EB"/>
<circle cx="126.403" cy="347.009" r="5.04879" transform="rotate(90 126.403 347.009)" fill="#E5E7EB"/>
<circle cx="106.236" cy="347.009" r="5.04879" transform="rotate(90 106.236 347.009)" fill="#E5E7EB"/>
<circle cx="86.0691" cy="347.009" r="5.04879" transform="rotate(90 86.0691 347.009)" fill="#E5E7EB"/>
<circle cx="65.9023" cy="347.009" r="5.04879" transform="rotate(90 65.9023 347.009)" fill="#E5E7EB"/>
<circle cx="247.404" cy="367.267" r="5.04879" transform="rotate(90 247.404 367.267)" fill="#E5E7EB"/>
<circle cx="227.237" cy="367.267" r="5.04879" transform="rotate(90 227.237 367.267)" fill="#E5E7EB"/>
<circle cx="207.07" cy="367.267" r="5.04879" transform="rotate(90 207.07 367.267)" fill="#E5E7EB"/>
<circle cx="186.903" cy="367.267" r="5.04879" transform="rotate(90 186.903 367.267)" fill="#E5E7EB"/>
<circle cx="166.736" cy="367.267" r="5.04879" transform="rotate(90 166.736 367.267)" fill="#E5E7EB"/>
<circle cx="146.57" cy="367.267" r="5.04879" transform="rotate(90 146.57 367.267)" fill="#E5E7EB"/>
<circle cx="126.403" cy="367.267" r="5.04879" transform="rotate(90 126.403 367.267)" fill="#E5E7EB"/>
<circle cx="106.236" cy="367.267" r="5.04879" transform="rotate(90 106.236 367.267)" fill="#E5E7EB"/>
<circle cx="86.0691" cy="367.267" r="5.04879" transform="rotate(90 86.0691 367.267)" fill="#E5E7EB"/>
<circle cx="65.9023" cy="367.267" r="5.04879" transform="rotate(90 65.9023 367.267)" fill="#E5E7EB"/>
<circle cx="247.404" cy="387.525" r="5.04879" transform="rotate(90 247.404 387.525)" fill="#E5E7EB"/>
<circle cx="227.237" cy="387.525" r="5.04879" transform="rotate(90 227.237 387.525)" fill="#E5E7EB"/>
<circle cx="207.07" cy="387.525" r="5.04879" transform="rotate(90 207.07 387.525)" fill="#E5E7EB"/>
<circle cx="186.903" cy="387.525" r="5.04879" transform="rotate(90 186.903 387.525)" fill="#E5E7EB"/>
<circle cx="166.736" cy="387.525" r="5.04879" transform="rotate(90 166.736 387.525)" fill="#E5E7EB"/>
<circle cx="146.57" cy="387.525" r="5.04879" transform="rotate(90 146.57 387.525)" fill="#E5E7EB"/>
<circle cx="126.403" cy="387.525" r="5.04879" transform="rotate(90 126.403 387.525)" fill="#E5E7EB"/>
<circle cx="106.236" cy="387.525" r="5.04879" transform="rotate(90 106.236 387.525)" fill="#E5E7EB"/>
<circle cx="86.0691" cy="387.525" r="5.04879" transform="rotate(90 86.0691 387.525)" fill="#E5E7EB"/>
<circle cx="65.9023" cy="387.525" r="5.04879" transform="rotate(90 65.9023 387.525)" fill="#E5E7EB"/>
<circle cx="247.404" cy="407.782" r="5.04879" transform="rotate(90 247.404 407.782)" fill="#E5E7EB"/>
<circle cx="227.237" cy="407.782" r="5.04879" transform="rotate(90 227.237 407.782)" fill="#E5E7EB"/>
<circle cx="207.07" cy="407.782" r="5.04879" transform="rotate(90 207.07 407.782)" fill="#E5E7EB"/>
<circle cx="186.903" cy="407.782" r="5.04879" transform="rotate(90 186.903 407.782)" fill="#E5E7EB"/>
<circle cx="166.736" cy="407.782" r="5.04879" transform="rotate(90 166.736 407.782)" fill="#E5E7EB"/>
<circle cx="146.57" cy="407.782" r="5.04879" transform="rotate(90 146.57 407.782)" fill="#E5E7EB"/>
<circle cx="126.403" cy="407.782" r="5.04879" transform="rotate(90 126.403 407.782)" fill="#E5E7EB"/>
<circle cx="106.236" cy="407.782" r="5.04879" transform="rotate(90 106.236 407.782)" fill="#E5E7EB"/>
<circle cx="86.0691" cy="407.782" r="5.04879" transform="rotate(90 86.0691 407.782)" fill="#E5E7EB"/>
<circle cx="65.9023" cy="407.782" r="5.04879" transform="rotate(90 65.9023 407.782)" fill="#E5E7EB"/>
<g filter="url(#filter0_dd_1553_925)">
<rect x="3.07739" y="44.2852" width="66.2385" height="66.2385" rx="8" fill="white"/>
</g>
<path d="M24.0066 88.6687C24.3573 88.8125 25.4242 89.0297 25.6172 88.7315L30.9045 80.5642C31.3521 79.8728 31.5759 79.5271 31.9414 79.4841C32.3068 79.4412 32.6233 79.7235 33.2564 80.288L34.0674 81.0114C35.3388 82.1424 36.5014 82.2381 37.2336 82.1502C37.9658 82.0623 39.0534 81.6976 39.9442 80.307L45.3179 72.0061L45.4748 72.5286C45.6727 73.1872 46.4317 73.578 47.1701 73.4015C47.9082 73.2251 48.3464 72.5488 48.1491 71.8904L47.1716 68.6279C47.1439 68.5357 47.1301 68.4895 47.1133 68.4459C47.0076 68.1715 46.8044 67.9353 46.5345 67.7732C46.4917 67.7475 46.4453 67.7236 46.3525 67.6759C46.2604 67.6284 46.2143 67.6047 46.1682 67.5846C45.8777 67.4578 45.549 67.4185 45.2314 67.4725C45.181 67.4811 45.1295 67.4931 45.0266 67.5173L41.4698 68.3539C40.7252 68.5291 40.2821 69.2105 40.4814 69.8739C40.6801 70.5353 41.4425 70.9279 42.1842 70.7507L42.748 70.6159L37.8339 78.2068C37.3863 78.8982 37.1625 79.2439 36.797 79.2868C36.4316 79.3297 36.1151 79.0475 35.482 78.4829L34.6918 77.7781C33.4261 76.6422 32.2691 76.5417 31.5365 76.6267C30.804 76.7117 29.7115 77.0737 28.8137 78.4605L23.0278 87.3982C22.8077 87.7382 23.6066 88.5047 24.0066 88.6687Z" fill="#A78BFA"/>
<path d="M22.7415 66.8993C22.7415 66.0736 23.4108 65.4043 24.2365 65.4043C25.0622 65.4043 25.7315 66.0736 25.7315 66.8993V86.7376H48.3186C49.055 86.7376 49.6519 87.3346 49.6519 88.071C49.6519 88.8073 49.055 89.4043 48.3186 89.4043H25.5979C24.2514 89.4043 23.5781 89.4043 23.1598 88.986C22.7415 88.5677 22.7415 87.8944 22.7415 86.5479V66.8993Z" fill="#A78BFA"/>
<g filter="url(#filter1_dd_1553_925)">
<path d="M120.462 4.54883H535.759V347.112C535.759 351.46 532.234 354.985 527.886 354.985H128.335C123.986 354.985 120.462 351.46 120.462 347.112V4.54883Z" fill="#F9FAFB"/>
<path d="M120.462 3.04883H118.962V4.54883V347.112C118.962 352.288 123.158 356.485 128.335 356.485H527.886C533.063 356.485 537.259 352.288 537.259 347.112V4.54883V3.04883H535.759H120.462Z" stroke="white" stroke-width="3"/>
</g>
<g filter="url(#filter2_d_1553_925)">
<rect x="255.266" y="100.776" width="150.976" height="18.4535" rx="9.22673" fill="#E5E7EB"/>
</g>
<path d="M311.491 80.5667C311.411 80.2915 311.3 80.0483 311.157 79.8372C311.014 79.6223 310.838 79.4413 310.631 79.2943C310.427 79.1435 310.194 79.0285 309.93 78.9493C309.67 78.8702 309.381 78.8306 309.064 78.8306C308.473 78.8306 307.952 78.9776 307.504 79.2717C307.059 79.5657 306.712 79.9937 306.463 80.5554C306.214 81.1134 306.09 81.7958 306.09 82.6026C306.09 83.4094 306.212 84.0955 306.457 84.6611C306.703 85.2266 307.049 85.6583 307.498 85.9561C307.947 86.2502 308.476 86.3972 309.087 86.3972C309.641 86.3972 310.114 86.2992 310.507 86.1031C310.902 85.9033 311.204 85.6224 311.411 85.2605C311.623 84.8986 311.728 84.4707 311.728 83.9768L312.226 84.0503H309.24V82.2067H314.086V83.6657C314.086 84.6837 313.871 85.5583 313.442 86.2897C313.012 87.0174 312.42 87.5791 311.666 87.975C310.912 88.3671 310.048 88.5631 309.076 88.5631C307.99 88.5631 307.036 88.3237 306.214 87.8449C305.392 87.3623 304.751 86.6781 304.292 85.7921C303.835 84.9023 303.607 83.8467 303.607 82.6252C303.607 81.6864 303.743 80.8495 304.014 80.1143C304.29 79.3754 304.674 78.7495 305.168 78.2368C305.662 77.724 306.237 77.3338 306.893 77.0662C307.549 76.7985 308.26 76.6646 309.025 76.6646C309.681 76.6646 310.292 76.7608 310.857 76.9531C311.423 77.1416 311.924 77.4092 312.361 77.7561C312.803 78.1029 313.163 78.5158 313.442 78.9946C313.721 79.4696 313.9 79.9937 313.979 80.5667H311.491ZM319.805 88.5744C318.927 88.5744 318.167 88.3878 317.526 88.0146C316.889 87.6376 316.397 87.1135 316.05 86.4424C315.703 85.7676 315.53 84.9853 315.53 84.0955C315.53 83.1983 315.703 82.4141 316.05 81.743C316.397 81.0681 316.889 80.5441 317.526 80.1708C318.167 79.7938 318.927 79.6053 319.805 79.6053C320.684 79.6053 321.441 79.7938 322.078 80.1708C322.719 80.5441 323.213 81.0681 323.56 81.743C323.907 82.4141 324.08 83.1983 324.08 84.0955C324.08 84.9853 323.907 85.7676 323.56 86.4424C323.213 87.1135 322.719 87.6376 322.078 88.0146C321.441 88.3878 320.684 88.5744 319.805 88.5744ZM319.816 86.7082C320.216 86.7082 320.55 86.5951 320.817 86.3689C321.085 86.1389 321.287 85.826 321.422 85.4302C321.562 85.0343 321.632 84.5838 321.632 84.0786C321.632 83.5734 321.562 83.1228 321.422 82.727C321.287 82.3311 321.085 82.0182 320.817 81.7882C320.55 81.5582 320.216 81.4433 319.816 81.4433C319.413 81.4433 319.074 81.5582 318.798 81.7882C318.527 82.0182 318.322 82.3311 318.182 82.727C318.046 83.1228 317.978 83.5734 317.978 84.0786C317.978 84.5838 318.046 85.0343 318.182 85.4302C318.322 85.826 318.527 86.1389 318.798 86.3689C319.074 86.5951 319.413 86.7082 319.816 86.7082ZM329.572 88.5744C328.693 88.5744 327.933 88.3878 327.293 88.0146C326.655 87.6376 326.163 87.1135 325.817 86.4424C325.47 85.7676 325.296 84.9853 325.296 84.0955C325.296 83.1983 325.47 82.4141 325.817 81.743C326.163 81.0681 326.655 80.5441 327.293 80.1708C327.933 79.7938 328.693 79.6053 329.572 79.6053C330.45 79.6053 331.208 79.7938 331.845 80.1708C332.486 80.5441 332.98 81.0681 333.327 81.743C333.673 82.4141 333.847 83.1983 333.847 84.0955C333.847 84.9853 333.673 85.7676 333.327 86.4424C332.98 87.1135 332.486 87.6376 331.845 88.0146C331.208 88.3878 330.45 88.5744 329.572 88.5744ZM329.583 86.7082C329.983 86.7082 330.316 86.5951 330.584 86.3689C330.852 86.1389 331.053 85.826 331.189 85.4302C331.328 85.0343 331.398 84.5838 331.398 84.0786C331.398 83.5734 331.328 83.1228 331.189 82.727C331.053 82.3311 330.852 82.0182 330.584 81.7882C330.316 81.5582 329.983 81.4433 329.583 81.4433C329.179 81.4433 328.84 81.5582 328.565 81.7882C328.293 82.0182 328.088 82.3311 327.949 82.727C327.813 83.1228 327.745 83.5734 327.745 84.0786C327.745 84.5838 327.813 85.0343 327.949 85.4302C328.088 85.826 328.293 86.1389 328.565 86.3689C328.84 86.5951 329.179 86.7082 329.583 86.7082ZM339.327 91.8431C338.546 91.8431 337.877 91.7357 337.319 91.5208C336.765 91.3097 336.324 91.0212 335.996 90.6555C335.668 90.2898 335.455 89.8789 335.357 89.4227L337.585 89.123C337.653 89.2964 337.76 89.4585 337.907 89.6093C338.054 89.7601 338.248 89.8808 338.49 89.9713C338.735 90.0655 339.033 90.1126 339.383 90.1126C339.907 90.1126 340.339 89.9845 340.678 89.7281C341.021 89.4755 341.193 89.0514 341.193 88.4557V86.8666H341.091C340.986 87.1079 340.827 87.336 340.616 87.5509C340.405 87.7658 340.134 87.9411 339.802 88.0768C339.47 88.2125 339.074 88.2804 338.614 88.2804C337.962 88.2804 337.368 88.1296 336.833 87.828C336.301 87.5226 335.877 87.057 335.56 86.4311C335.247 85.8015 335.091 85.006 335.091 84.0446C335.091 83.0606 335.251 82.2388 335.572 81.579C335.892 80.9192 336.318 80.4253 336.85 80.0973C337.385 79.7693 337.971 79.6053 338.609 79.6053C339.095 79.6053 339.502 79.6883 339.83 79.8542C340.158 80.0163 340.422 80.2199 340.622 80.4649C340.825 80.7062 340.982 80.9437 341.091 81.1775H341.182V79.7184H343.574V88.4896C343.574 89.2286 343.393 89.8469 343.031 90.3445C342.669 90.8422 342.168 91.2154 341.527 91.4642C340.889 91.7168 340.156 91.8431 339.327 91.8431ZM339.378 86.4707C339.766 86.4707 340.094 86.3746 340.362 86.1823C340.633 85.9863 340.84 85.7073 340.984 85.3453C341.131 84.9796 341.204 84.5423 341.204 84.0333C341.204 83.5244 341.133 83.0833 340.989 82.71C340.846 82.333 340.639 82.0408 340.367 81.8335C340.096 81.6261 339.766 81.5224 339.378 81.5224C338.982 81.5224 338.648 81.6299 338.377 81.8448C338.105 82.0559 337.9 82.35 337.76 82.727C337.621 83.104 337.551 83.5394 337.551 84.0333C337.551 84.5348 337.621 84.9683 337.76 85.334C337.904 85.696 338.109 85.9768 338.377 86.1766C338.648 86.3727 338.982 86.4707 339.378 86.4707ZM347.9 76.823V88.4048H345.491V76.823H347.9ZM353.788 88.5744C352.895 88.5744 352.126 88.3935 351.481 88.0315C350.84 87.6658 350.346 87.1493 349.999 86.482C349.653 85.8109 349.479 85.0173 349.479 84.1012C349.479 83.2077 349.653 82.4235 349.999 81.7486C350.346 81.0738 350.835 80.5479 351.464 80.1708C352.098 79.7938 352.84 79.6053 353.692 79.6053C354.265 79.6053 354.799 79.6977 355.293 79.8824C355.79 80.0634 356.224 80.3367 356.593 80.7024C356.967 81.0681 357.257 81.5281 357.464 82.0823C357.672 82.6327 357.775 83.2774 357.775 84.0164V84.678H350.441V83.1851H355.508C355.508 82.8382 355.432 82.5309 355.281 82.2633C355.131 81.9956 354.921 81.7863 354.654 81.6355C354.39 81.481 354.083 81.4037 353.732 81.4037C353.366 81.4037 353.042 81.4885 352.759 81.6582C352.48 81.824 352.262 82.0484 352.103 82.3311C351.945 82.6101 351.864 82.9211 351.86 83.2642V84.6837C351.86 85.1135 351.939 85.4848 352.098 85.7977C352.26 86.1107 352.488 86.352 352.782 86.5216C353.076 86.6913 353.425 86.7761 353.828 86.7761C354.096 86.7761 354.341 86.7384 354.563 86.663C354.786 86.5876 354.976 86.4745 355.134 86.3237C355.293 86.1729 355.413 85.9881 355.496 85.7695L357.724 85.9165C357.611 86.4519 357.379 86.9194 357.029 87.319C356.682 87.7149 356.233 88.024 355.683 88.2464C355.136 88.4651 354.505 88.5744 353.788 88.5744Z" fill="#4B5563"/>
<rect x="120.462" y="4.54883" width="415.298" height="25.96" fill="white"/>
<g filter="url(#filter3_d_1553_925)">
<mask id="path-168-outside-1_1553_925" maskUnits="userSpaceOnUse" x="117.462" y="1.54883" width="422" height="29" fill="black">
<rect fill="white" x="117.462" y="1.54883" width="422" height="29"/>
<path d="M120.462 6.97495C120.462 5.63504 121.548 4.54883 122.888 4.54883H533.333C534.673 4.54883 535.759 5.63504 535.759 6.97495V30.5088H120.462V6.97495Z"/>
</mask>
<path d="M120.462 6.97495C120.462 5.63504 121.548 4.54883 122.888 4.54883H533.333C534.673 4.54883 535.759 5.63504 535.759 6.97495V30.5088H120.462V6.97495Z" fill="#F9FAFB"/>
<path d="M117.462 6.97495C117.462 3.97819 119.891 1.54883 122.888 1.54883H533.333C536.33 1.54883 538.759 3.97819 538.759 6.97495L532.759 7.54883H123.462L117.462 6.97495ZM535.759 30.5088H120.462H535.759ZM117.462 30.5088V6.97495C117.462 3.97819 119.891 1.54883 122.888 1.54883L123.462 7.54883V30.5088H117.462ZM533.333 1.54883C536.33 1.54883 538.759 3.97819 538.759 6.97495V30.5088H532.759V7.54883L533.333 1.54883Z" fill="white" mask="url(#path-168-outside-1_1553_925)"/>
</g>
<circle cx="133.698" cy="16.488" r="2.91135" fill="#EF4444"/>
<circle cx="143.402" cy="16.488" r="2.91135" fill="#F59E0B"/>
<circle cx="153.107" cy="16.488" r="2.91135" fill="#10B981"/>
<g filter="url(#filter4_d_1553_925)">
<rect x="231.324" y="11.7017" width="210.601" height="11.9207" rx="2.38414" fill="#E5E7EB"/>
</g>
<g filter="url(#filter5_dd_1553_925)">
<rect x="154.891" y="228.058" width="346.439" height="72.3149" rx="5.73211" fill="#F9FAFB"/>
<rect x="177.819" y="245.254" width="20.0624" height="20" rx="10" fill="#E5E7EB"/>
<path d="M185.038 258.254L185.993 252.436H186.902L185.947 258.254H185.038ZM182.433 256.811L182.584 255.902H187.129L186.978 256.811H182.433ZM182.993 258.254L183.947 252.436H184.856L183.902 258.254H182.993ZM182.765 254.788L182.919 253.879H187.464L187.311 254.788H182.765ZM188.017 258.254V257.368L190.089 255.45C190.265 255.279 190.412 255.126 190.532 254.99C190.653 254.853 190.745 254.72 190.807 254.589C190.87 254.457 190.901 254.314 190.901 254.16C190.901 253.99 190.862 253.843 190.785 253.72C190.707 253.595 190.601 253.499 190.466 253.433C190.332 253.365 190.179 253.331 190.009 253.331C189.831 253.331 189.676 253.367 189.543 253.439C189.41 253.511 189.308 253.614 189.236 253.748C189.164 253.883 189.128 254.043 189.128 254.228H187.961C187.961 253.848 188.047 253.517 188.219 253.237C188.392 252.957 188.633 252.74 188.944 252.586C189.254 252.433 189.612 252.356 190.017 252.356C190.434 252.356 190.797 252.43 191.106 252.578C191.416 252.724 191.658 252.926 191.83 253.186C192.002 253.445 192.089 253.743 192.089 254.078C192.089 254.297 192.045 254.514 191.958 254.728C191.873 254.942 191.72 255.18 191.5 255.441C191.281 255.701 190.971 256.012 190.571 256.376L189.722 257.208V257.248H192.165V258.254H188.017Z" fill="#4B5563"/>
<g filter="url(#filter6_d_1553_925)">
<rect x="203.614" y="250.238" width="122.411" height="10.0312" rx="1.43303" fill="white"/>
</g>
<g filter="url(#filter7_d_1553_925)">
<path d="M177.819 272.419C177.819 271.628 178.461 270.986 179.252 270.986H415.194C415.985 270.986 416.627 271.628 416.627 272.419V287.212C416.627 288.003 415.985 288.645 415.194 288.645H179.252C178.461 288.645 177.819 288.003 177.819 287.212V272.419Z" fill="white"/>
</g>
<g filter="url(#filter8_dd_1553_925)">
<rect x="433.823" y="233.79" width="61.7746" height="60.8507" rx="3.37675" fill="#E5E7EB"/>
<rect x="434.323" y="234.29" width="60.7746" height="59.8507" rx="2.87675" stroke="white"/>
</g>
<mask id="mask0_1553_925" style="mask-type:alpha" maskUnits="userSpaceOnUse" x="437" y="237" width="55" height="54">
<rect x="437.833" y="237.74" width="53.7552" height="52.9512" rx="3.37675" fill="white"/>
</mask>
<g mask="url(#mask0_1553_925)">
<path d="M476.334 267.622C477.145 266.565 478.738 266.565 479.549 267.622L495.061 287.843C496.083 289.175 495.133 291.102 493.453 291.102H462.43C460.751 291.102 459.8 289.175 460.823 287.843L476.334 267.622Z" fill="#D1D5DB"/>
<path d="M451.782 259.42C452.593 258.363 454.186 258.363 454.997 259.42L476.896 287.967C477.918 289.3 476.968 291.226 475.288 291.226H431.491C429.811 291.226 428.861 289.3 429.883 287.967L451.782 259.42Z" fill="#9CA3AF"/>
<ellipse cx="470.66" cy="253.252" rx="7.03633" ry="6.9311" fill="#9CA3AF"/>
</g>
<rect x="153.891" y="227.058" width="348.439" height="74.3149" rx="6.73211" stroke="white" stroke-width="2"/>
</g>
<g filter="url(#filter9_dd_1553_925)">
<rect x="154.891" y="310.161" width="346.439" height="72.3149" rx="5.73211" fill="#F9FAFB"/>
<rect x="177.819" y="327.357" width="20.0624" height="20" rx="10" fill="#E5E7EB"/>
<path d="M185.038 340.357L185.993 334.539H186.902L185.947 340.357H185.038ZM182.433 338.914L182.584 338.005H187.129L186.978 338.914H182.433ZM182.993 340.357L183.947 334.539H184.856L183.902 340.357H182.993ZM182.765 336.892L182.919 335.982H187.464L187.311 336.892H182.765ZM190.168 340.437C189.744 340.437 189.366 340.364 189.035 340.218C188.705 340.07 188.445 339.868 188.253 339.61C188.064 339.351 187.966 339.052 187.961 338.713H189.199C189.207 338.855 189.253 338.98 189.339 339.088C189.426 339.194 189.541 339.276 189.685 339.335C189.829 339.393 189.991 339.423 190.171 339.423C190.358 339.423 190.524 339.39 190.668 339.323C190.812 339.257 190.925 339.165 191.006 339.048C191.088 338.93 191.128 338.795 191.128 338.642C191.128 338.486 191.085 338.349 190.998 338.23C190.912 338.108 190.789 338.014 190.628 337.945C190.469 337.877 190.28 337.843 190.06 337.843H189.517V336.94H190.06C190.246 336.94 190.41 336.908 190.552 336.843C190.696 336.779 190.807 336.69 190.887 336.576C190.966 336.461 191.006 336.326 191.006 336.173C191.006 336.027 190.971 335.899 190.901 335.789C190.833 335.677 190.736 335.59 190.611 335.528C190.488 335.465 190.344 335.434 190.179 335.434C190.013 335.434 189.86 335.464 189.722 335.525C189.584 335.584 189.473 335.668 189.39 335.778C189.306 335.888 189.262 336.017 189.256 336.164H188.077C188.083 335.829 188.178 335.534 188.364 335.278C188.55 335.022 188.8 334.822 189.114 334.678C189.43 334.533 189.787 334.46 190.185 334.46C190.587 334.46 190.938 334.533 191.239 334.678C191.54 334.824 191.774 335.021 191.941 335.269C192.109 335.516 192.193 335.792 192.191 336.099C192.193 336.425 192.091 336.696 191.887 336.914C191.684 337.132 191.42 337.27 191.094 337.329V337.374C191.522 337.429 191.848 337.578 192.071 337.82C192.297 338.061 192.409 338.362 192.407 338.724C192.409 339.055 192.313 339.35 192.12 339.607C191.928 339.865 191.664 340.068 191.327 340.215C190.99 340.363 190.604 340.437 190.168 340.437Z" fill="#4B5563"/>
<g filter="url(#filter10_d_1553_925)">
<rect x="203.614" y="332.342" width="122.411" height="10.0312" rx="1.43303" fill="white"/>
</g>
<g filter="url(#filter11_d_1553_925)">
<path d="M177.819 354.523C177.819 353.731 178.461 353.09 179.252 353.09H415.194C415.985 353.09 416.627 353.731 416.627 354.523V369.315C416.627 370.107 415.985 370.748 415.194 370.748H179.252C178.461 370.748 177.819 370.107 177.819 369.315V354.523Z" fill="white"/>
</g>
<g filter="url(#filter12_dd_1553_925)">
<rect x="433.823" y="315.894" width="61.7746" height="60.8507" rx="3.37675" fill="#E5E7EB"/>
<rect x="434.323" y="316.394" width="60.7746" height="59.8507" rx="2.87675" stroke="white"/>
</g>
<mask id="mask1_1553_925" style="mask-type:alpha" maskUnits="userSpaceOnUse" x="437" y="319" width="55" height="54">
<rect x="437.833" y="319.843" width="53.7552" height="52.9512" rx="3.37675" fill="white"/>
</mask>
<g mask="url(#mask1_1553_925)">
<path d="M476.334 349.725C477.145 348.668 478.738 348.668 479.549 349.725L495.061 369.946C496.083 371.279 495.133 373.205 493.453 373.205H462.43C460.751 373.205 459.8 371.279 460.823 369.946L476.334 349.725Z" fill="#D1D5DB"/>
<path d="M451.782 341.523C452.593 340.466 454.186 340.466 454.997 341.523L476.896 370.07C477.918 371.403 476.968 373.33 475.288 373.33H431.491C429.811 373.33 428.861 371.403 429.883 370.07L451.782 341.523Z" fill="#9CA3AF"/>
<ellipse cx="470.66" cy="335.355" rx="7.03633" ry="6.9311" fill="#9CA3AF"/>
</g>
<rect x="153.891" y="309.161" width="348.439" height="74.3149" rx="6.73211" stroke="white" stroke-width="2"/>
</g>
<g filter="url(#filter13_ddf_1553_925)">
<rect x="100.875" y="137.732" width="454.472" height="96" rx="7.951" fill="#A78BFA"/>
</g>
<rect x="99.3745" y="136.232" width="457.472" height="97.4363" rx="8.18576" fill="#F9FAFB"/>
<g filter="url(#filter14_d_1553_925)">
<rect x="127.618" y="157.79" width="22" height="22" rx="11" fill="#E5E7EB"/>
<path d="M135.77 168.315L133.542 164.33C133.286 163.871 133.158 163.642 133.18 163.455C133.199 163.291 133.285 163.143 133.419 163.046C133.572 162.936 133.835 162.936 134.36 162.936H135.668C135.863 162.936 135.961 162.936 136.048 162.964C136.126 162.989 136.197 163.03 136.258 163.084C136.327 163.145 136.376 163.229 136.475 163.397L138.618 167.034L140.76 163.397C140.859 163.229 140.908 163.145 140.977 163.084C141.038 163.03 141.109 162.989 141.187 162.964C141.274 162.936 141.372 162.936 141.567 162.936H142.875C143.4 162.936 143.663 162.936 143.816 163.046C143.95 163.143 144.037 163.291 144.055 163.455C144.077 163.642 143.949 163.871 143.693 164.33L141.466 168.315M137.739 169.961L138.618 169.375V172.303M137.886 172.303H139.349M141.308 168.148C142.794 169.634 142.794 172.044 141.308 173.53C139.822 175.016 137.413 175.016 135.927 173.53C134.441 172.044 134.441 169.634 135.927 168.148C137.413 166.662 139.822 166.662 141.308 168.148Z" stroke="#4B5563" stroke-width="1.4" stroke-linecap="round" stroke-linejoin="round"/>
<rect x="127.2" y="157.372" width="22.8357" height="22.8357" rx="11.4179" stroke="white" stroke-width="0.83572"/>
</g>
<g filter="url(#filter15_d_1553_925)">
<rect x="156.303" y="161.397" width="176.627" height="14.7851" rx="1.67144" fill="white"/>
</g>
<g filter="url(#filter16_d_1553_925)">
<path d="M127.618 188.147C127.618 187.224 128.366 186.476 129.289 186.476H445.031C445.954 186.476 446.703 187.224 446.703 188.147V213.627C446.703 214.55 445.954 215.298 445.031 215.298H129.289C128.366 215.298 127.618 214.55 127.618 213.627V188.147Z" fill="white"/>
<path d="M127.618 188.147C127.618 187.224 128.366 186.476 129.289 186.476H445.031C445.954 186.476 446.703 187.224 446.703 188.147V213.627C446.703 214.55 445.954 215.298 445.031 215.298H129.289C128.366 215.298 127.618 214.55 127.618 213.627V188.147Z" stroke="white" stroke-width="1.67144"/>
</g>
<g filter="url(#filter17_dd_1553_925)">
<rect x="466.76" y="144.418" width="81.9005" height="81.0648" rx="3.93854" fill="white"/>
</g>
<mask id="mask2_1553_925" style="mask-type:alpha" maskUnits="userSpaceOnUse" x="472" y="149" width="72" height="72">
<rect x="472.076" y="149.68" width="71.2684" height="70.5412" rx="3.93854" fill="white"/>
</mask>
<g mask="url(#mask2_1553_925)">
<path d="M522.092 190.836C523.683 188.752 526.821 188.752 528.412 190.836L546.386 214.381C548.384 216.997 546.518 220.769 543.226 220.769H507.277C503.986 220.769 502.12 216.997 504.118 214.381L522.092 190.836Z" fill="#C4B5FD"/>
<path d="M487.961 181.98C490.347 178.853 495.054 178.853 497.44 181.98L527.18 220.935H470.276C465.339 220.935 462.54 215.278 465.536 211.353L487.961 181.98Z" fill="#8B5CF6"/>
<ellipse cx="515.598" cy="170.345" rx="9.32875" ry="9.23356" fill="#C4B5FD"/>
</g>
<rect x="99.3745" y="136.232" width="457.472" height="97.4363" rx="8.18576" stroke="white" stroke-width="3"/>
<defs>
<filter id="filter0_dd_1553_925" x="0.878495" y="43.8454" width="70.6363" height="70.6366" filterUnits="userSpaceOnUse" color-interpolation-filters="sRGB">
<feFlood flood-opacity="0" result="BackgroundImageFix"/>
<feColorMatrix in="SourceAlpha" type="matrix" values="0 0 0 0 0 0 0 0 0 0 0 0 0 0 0 0 0 0 127 0" result="hardAlpha"/>
<feMorphology radius="0.439779" operator="erode" in="SourceAlpha" result="effect1_dropShadow_1553_925"/>
<feOffset dy="0.879559"/>
<feGaussianBlur stdDeviation="0.879559"/>
<feColorMatrix type="matrix" values="0 0 0 0 0 0 0 0 0 0 0 0 0 0 0 0 0 0 0.06 0"/>
<feBlend mode="normal" in2="BackgroundImageFix" result="effect1_dropShadow_1553_925"/>
<feColorMatrix in="SourceAlpha" type="matrix" values="0 0 0 0 0 0 0 0 0 0 0 0 0 0 0 0 0 0 127 0" result="hardAlpha"/>
<feMorphology radius="0.439779" operator="erode" in="SourceAlpha" result="effect2_dropShadow_1553_925"/>
<feOffset dy="1.75912"/>
<feGaussianBlur stdDeviation="1.31934"/>
<feColorMatrix type="matrix" values="0 0 0 0 0 0 0 0 0 0 0 0 0 0 0 0 0 0 0.1 0"/>
<feBlend mode="normal" in2="effect1_dropShadow_1553_925" result="effect2_dropShadow_1553_925"/>
<feBlend mode="normal" in="SourceGraphic" in2="effect2_dropShadow_1553_925" result="shape"/>
</filter>
<filter id="filter1_dd_1553_925" x="97.4617" y="1.54883" width="461.298" height="396.436" filterUnits="userSpaceOnUse" color-interpolation-filters="sRGB">
<feFlood flood-opacity="0" result="BackgroundImageFix"/>
<feColorMatrix in="SourceAlpha" type="matrix" values="0 0 0 0 0 0 0 0 0 0 0 0 0 0 0 0 0 0 127 0" result="hardAlpha"/>
<feMorphology radius="5" operator="erode" in="SourceAlpha" result="effect1_dropShadow_1553_925"/>
<feOffset dy="10"/>
<feGaussianBlur stdDeviation="5"/>
<feColorMatrix type="matrix" values="0 0 0 0 0 0 0 0 0 0 0 0 0 0 0 0 0 0 0.04 0"/>
<feBlend mode="normal" in2="BackgroundImageFix" result="effect1_dropShadow_1553_925"/>
<feColorMatrix in="SourceAlpha" type="matrix" values="0 0 0 0 0 0 0 0 0 0 0 0 0 0 0 0 0 0 127 0" result="hardAlpha"/>
<feMorphology radius="5" operator="erode" in="SourceAlpha" result="effect2_dropShadow_1553_925"/>
<feOffset dy="20"/>
<feGaussianBlur stdDeviation="12.5"/>
<feColorMatrix type="matrix" values="0 0 0 0 0 0 0 0 0 0 0 0 0 0 0 0 0 0 0.1 0"/>
<feBlend mode="normal" in2="effect1_dropShadow_1553_925" result="effect2_dropShadow_1553_925"/>
<feBlend mode="normal" in="SourceGraphic" in2="effect2_dropShadow_1553_925" result="shape"/>
</filter>
<filter id="filter2_d_1553_925" x="253.266" y="99.7759" width="154.976" height="22.4536" filterUnits="userSpaceOnUse" color-interpolation-filters="sRGB">
<feFlood flood-opacity="0" result="BackgroundImageFix"/>
<feColorMatrix in="SourceAlpha" type="matrix" values="0 0 0 0 0 0 0 0 0 0 0 0 0 0 0 0 0 0 127 0" result="hardAlpha"/>
<feOffset dy="1"/>
<feGaussianBlur stdDeviation="1"/>
<feColorMatrix type="matrix" values="0 0 0 0 0 0 0 0 0 0 0 0 0 0 0 0 0 0 0.05 0"/>
<feBlend mode="normal" in2="BackgroundImageFix" result="effect1_dropShadow_1553_925"/>
<feBlend mode="normal" in="SourceGraphic" in2="effect1_dropShadow_1553_925" result="shape"/>
</filter>
<filter id="filter3_d_1553_925" x="115.078" y="0.356756" width="426.066" height="33.7282" filterUnits="userSpaceOnUse" color-interpolation-filters="sRGB">
<feFlood flood-opacity="0" result="BackgroundImageFix"/>
<feColorMatrix in="SourceAlpha" type="matrix" values="0 0 0 0 0 0 0 0 0 0 0 0 0 0 0 0 0 0 127 0" result="hardAlpha"/>
<feOffset dy="1.19207"/>
<feGaussianBlur stdDeviation="1.19207"/>
<feColorMatrix type="matrix" values="0 0 0 0 0 0 0 0 0 0 0 0 0 0 0 0 0 0 0.05 0"/>
<feBlend mode="normal" in2="BackgroundImageFix" result="effect1_dropShadow_1553_925"/>
<feBlend mode="normal" in="SourceGraphic" in2="effect1_dropShadow_1553_925" result="shape"/>
</filter>
<filter id="filter4_d_1553_925" x="229.324" y="10.7017" width="214.601" height="15.9209" filterUnits="userSpaceOnUse" color-interpolation-filters="sRGB">
<feFlood flood-opacity="0" result="BackgroundImageFix"/>
<feColorMatrix in="SourceAlpha" type="matrix" values="0 0 0 0 0 0 0 0 0 0 0 0 0 0 0 0 0 0 127 0" result="hardAlpha"/>
<feOffset dy="1"/>
<feGaussianBlur stdDeviation="1"/>
<feColorMatrix type="matrix" values="0 0 0 0 0 0 0 0 0 0 0 0 0 0 0 0 0 0 0.05 0"/>
<feBlend mode="normal" in2="BackgroundImageFix" result="effect1_dropShadow_1553_925"/>
<feBlend mode="normal" in="SourceGraphic" in2="effect1_dropShadow_1553_925" result="shape"/>
</filter>
<filter id="filter5_dd_1553_925" x="150.368" y="224.376" width="355.484" height="81.3602" filterUnits="userSpaceOnUse" color-interpolation-filters="sRGB">
<feFlood flood-opacity="0" result="BackgroundImageFix"/>
<feColorMatrix in="SourceAlpha" type="matrix" values="0 0 0 0 0 0 0 0 0 0 0 0 0 0 0 0 0 0 127 0" result="hardAlpha"/>
<feOffset dy="0.840871"/>
<feGaussianBlur stdDeviation="0.840871"/>
<feColorMatrix type="matrix" values="0 0 0 0 0 0 0 0 0 0 0 0 0 0 0 0 0 0 0.06 0"/>
<feBlend mode="normal" in2="BackgroundImageFix" result="effect1_dropShadow_1553_925"/>
<feColorMatrix in="SourceAlpha" type="matrix" values="0 0 0 0 0 0 0 0 0 0 0 0 0 0 0 0 0 0 127 0" result="hardAlpha"/>
<feOffset dy="0.840871"/>
<feGaussianBlur stdDeviation="1.26131"/>
<feColorMatrix type="matrix" values="0 0 0 0 0 0 0 0 0 0 0 0 0 0 0 0 0 0 0.1 0"/>
<feBlend mode="normal" in2="effect1_dropShadow_1553_925" result="effect2_dropShadow_1553_925"/>
<feBlend mode="normal" in="SourceGraphic" in2="effect2_dropShadow_1553_925" result="shape"/>
</filter>
<filter id="filter6_d_1553_925" x="202.181" y="249.522" width="125.277" height="12.8973" filterUnits="userSpaceOnUse" color-interpolation-filters="sRGB">
<feFlood flood-opacity="0" result="BackgroundImageFix"/>
<feColorMatrix in="SourceAlpha" type="matrix" values="0 0 0 0 0 0 0 0 0 0 0 0 0 0 0 0 0 0 127 0" result="hardAlpha"/>
<feOffset dy="0.716513"/>
<feGaussianBlur stdDeviation="0.716513"/>
<feColorMatrix type="matrix" values="0 0 0 0 0 0 0 0 0 0 0 0 0 0 0 0 0 0 0.05 0"/>
<feBlend mode="normal" in2="BackgroundImageFix" result="effect1_dropShadow_1553_925"/>
<feBlend mode="normal" in="SourceGraphic" in2="effect1_dropShadow_1553_925" result="shape"/>
</filter>
<filter id="filter7_d_1553_925" x="176.386" y="270.27" width="241.673" height="20.5243" filterUnits="userSpaceOnUse" color-interpolation-filters="sRGB">
<feFlood flood-opacity="0" result="BackgroundImageFix"/>
<feColorMatrix in="SourceAlpha" type="matrix" values="0 0 0 0 0 0 0 0 0 0 0 0 0 0 0 0 0 0 127 0" result="hardAlpha"/>
<feOffset dy="0.716513"/>
<feGaussianBlur stdDeviation="0.716513"/>
<feColorMatrix type="matrix" values="0 0 0 0 0 0 0 0 0 0 0 0 0 0 0 0 0 0 0.05 0"/>
<feBlend mode="normal" in2="BackgroundImageFix" result="effect1_dropShadow_1553_925"/>
<feBlend mode="normal" in="SourceGraphic" in2="effect1_dropShadow_1553_925" result="shape"/>
</filter>
<filter id="filter8_dd_1553_925" x="430.953" y="233.216" width="67.5154" height="66.5913" filterUnits="userSpaceOnUse" color-interpolation-filters="sRGB">
<feFlood flood-opacity="0" result="BackgroundImageFix"/>
<feColorMatrix in="SourceAlpha" type="matrix" values="0 0 0 0 0 0 0 0 0 0 0 0 0 0 0 0 0 0 127 0" result="hardAlpha"/>
<feMorphology radius="0.574073" operator="erode" in="SourceAlpha" result="effect1_dropShadow_1553_925"/>
<feOffset dy="1.14815"/>
<feGaussianBlur stdDeviation="1.14815"/>
<feColorMatrix type="matrix" values="0 0 0 0 0 0 0 0 0 0 0 0 0 0 0 0 0 0 0.06 0"/>
<feBlend mode="normal" in2="BackgroundImageFix" result="effect1_dropShadow_1553_925"/>
<feColorMatrix in="SourceAlpha" type="matrix" values="0 0 0 0 0 0 0 0 0 0 0 0 0 0 0 0 0 0 127 0" result="hardAlpha"/>
<feMorphology radius="0.574073" operator="erode" in="SourceAlpha" result="effect2_dropShadow_1553_925"/>
<feOffset dy="2.29629"/>
<feGaussianBlur stdDeviation="1.72222"/>
<feColorMatrix type="matrix" values="0 0 0 0 0 0 0 0 0 0 0 0 0 0 0 0 0 0 0.1 0"/>
<feBlend mode="normal" in2="effect1_dropShadow_1553_925" result="effect2_dropShadow_1553_925"/>
<feBlend mode="normal" in="SourceGraphic" in2="effect2_dropShadow_1553_925" result="shape"/>
</filter>
<filter id="filter9_dd_1553_925" x="150.368" y="306.479" width="355.484" height="81.3602" filterUnits="userSpaceOnUse" color-interpolation-filters="sRGB">
<feFlood flood-opacity="0" result="BackgroundImageFix"/>
<feColorMatrix in="SourceAlpha" type="matrix" values="0 0 0 0 0 0 0 0 0 0 0 0 0 0 0 0 0 0 127 0" result="hardAlpha"/>
<feOffset dy="0.840871"/>
<feGaussianBlur stdDeviation="0.840871"/>
<feColorMatrix type="matrix" values="0 0 0 0 0 0 0 0 0 0 0 0 0 0 0 0 0 0 0.06 0"/>
<feBlend mode="normal" in2="BackgroundImageFix" result="effect1_dropShadow_1553_925"/>
<feColorMatrix in="SourceAlpha" type="matrix" values="0 0 0 0 0 0 0 0 0 0 0 0 0 0 0 0 0 0 127 0" result="hardAlpha"/>
<feOffset dy="0.840871"/>
<feGaussianBlur stdDeviation="1.26131"/>
<feColorMatrix type="matrix" values="0 0 0 0 0 0 0 0 0 0 0 0 0 0 0 0 0 0 0.1 0"/>
<feBlend mode="normal" in2="effect1_dropShadow_1553_925" result="effect2_dropShadow_1553_925"/>
<feBlend mode="normal" in="SourceGraphic" in2="effect2_dropShadow_1553_925" result="shape"/>
</filter>
<filter id="filter10_d_1553_925" x="202.181" y="331.625" width="125.277" height="12.8973" filterUnits="userSpaceOnUse" color-interpolation-filters="sRGB">
<feFlood flood-opacity="0" result="BackgroundImageFix"/>
<feColorMatrix in="SourceAlpha" type="matrix" values="0 0 0 0 0 0 0 0 0 0 0 0 0 0 0 0 0 0 127 0" result="hardAlpha"/>
<feOffset dy="0.716513"/>
<feGaussianBlur stdDeviation="0.716513"/>
<feColorMatrix type="matrix" values="0 0 0 0 0 0 0 0 0 0 0 0 0 0 0 0 0 0 0.05 0"/>
<feBlend mode="normal" in2="BackgroundImageFix" result="effect1_dropShadow_1553_925"/>
<feBlend mode="normal" in="SourceGraphic" in2="effect1_dropShadow_1553_925" result="shape"/>
</filter>
<filter id="filter11_d_1553_925" x="176.386" y="352.373" width="241.673" height="20.5243" filterUnits="userSpaceOnUse" color-interpolation-filters="sRGB">
<feFlood flood-opacity="0" result="BackgroundImageFix"/>
<feColorMatrix in="SourceAlpha" type="matrix" values="0 0 0 0 0 0 0 0 0 0 0 0 0 0 0 0 0 0 127 0" result="hardAlpha"/>
<feOffset dy="0.716513"/>
<feGaussianBlur stdDeviation="0.716513"/>
<feColorMatrix type="matrix" values="0 0 0 0 0 0 0 0 0 0 0 0 0 0 0 0 0 0 0.05 0"/>
<feBlend mode="normal" in2="BackgroundImageFix" result="effect1_dropShadow_1553_925"/>
<feBlend mode="normal" in="SourceGraphic" in2="effect1_dropShadow_1553_925" result="shape"/>
</filter>
<filter id="filter12_dd_1553_925" x="430.953" y="315.319" width="67.5154" height="66.5913" filterUnits="userSpaceOnUse" color-interpolation-filters="sRGB">
<feFlood flood-opacity="0" result="BackgroundImageFix"/>
<feColorMatrix in="SourceAlpha" type="matrix" values="0 0 0 0 0 0 0 0 0 0 0 0 0 0 0 0 0 0 127 0" result="hardAlpha"/>
<feMorphology radius="0.574073" operator="erode" in="SourceAlpha" result="effect1_dropShadow_1553_925"/>
<feOffset dy="1.14815"/>
<feGaussianBlur stdDeviation="1.14815"/>
<feColorMatrix type="matrix" values="0 0 0 0 0 0 0 0 0 0 0 0 0 0 0 0 0 0 0.06 0"/>
<feBlend mode="normal" in2="BackgroundImageFix" result="effect1_dropShadow_1553_925"/>
<feColorMatrix in="SourceAlpha" type="matrix" values="0 0 0 0 0 0 0 0 0 0 0 0 0 0 0 0 0 0 127 0" result="hardAlpha"/>
<feMorphology radius="0.574073" operator="erode" in="SourceAlpha" result="effect2_dropShadow_1553_925"/>
<feOffset dy="2.29629"/>
<feGaussianBlur stdDeviation="1.72222"/>
<feColorMatrix type="matrix" values="0 0 0 0 0 0 0 0 0 0 0 0 0 0 0 0 0 0 0.1 0"/>
<feBlend mode="normal" in2="effect1_dropShadow_1553_925" result="effect2_dropShadow_1553_925"/>
<feBlend mode="normal" in="SourceGraphic" in2="effect2_dropShadow_1553_925" result="shape"/>
</filter>
<filter id="filter13_ddf_1553_925" x="80.997" y="125.732" width="494.227" height="147.755" filterUnits="userSpaceOnUse" color-interpolation-filters="sRGB">
<feFlood flood-opacity="0" result="BackgroundImageFix"/>
<feColorMatrix in="SourceAlpha" type="matrix" values="0 0 0 0 0 0 0 0 0 0 0 0 0 0 0 0 0 0 127 0" result="hardAlpha"/>
<feMorphology radius="4.96937" operator="erode" in="SourceAlpha" result="effect1_dropShadow_1553_925"/>
<feOffset dy="9.93875"/>
<feGaussianBlur stdDeviation="4.96937"/>
<feColorMatrix type="matrix" values="0 0 0 0 0 0 0 0 0 0 0 0 0 0 0 0 0 0 0.04 0"/>
<feBlend mode="normal" in2="BackgroundImageFix" result="effect1_dropShadow_1553_925"/>
<feColorMatrix in="SourceAlpha" type="matrix" values="0 0 0 0 0 0 0 0 0 0 0 0 0 0 0 0 0 0 127 0" result="hardAlpha"/>
<feMorphology radius="4.96937" operator="erode" in="SourceAlpha" result="effect2_dropShadow_1553_925"/>
<feOffset dy="19.8775"/>
<feGaussianBlur stdDeviation="12.4234"/>
<feColorMatrix type="matrix" values="0 0 0 0 0 0 0 0 0 0 0 0 0 0 0 0 0 0 0.1 0"/>
<feBlend mode="normal" in2="effect1_dropShadow_1553_925" result="effect2_dropShadow_1553_925"/>
<feBlend mode="normal" in="SourceGraphic" in2="effect2_dropShadow_1553_925" result="shape"/>
<feGaussianBlur stdDeviation="6" result="effect3_foregroundBlur_1553_925"/>
</filter>
<filter id="filter14_d_1553_925" x="125.11" y="156.118" width="27.0143" height="27.0148" filterUnits="userSpaceOnUse" color-interpolation-filters="sRGB">
<feFlood flood-opacity="0" result="BackgroundImageFix"/>
<feColorMatrix in="SourceAlpha" type="matrix" values="0 0 0 0 0 0 0 0 0 0 0 0 0 0 0 0 0 0 127 0" result="hardAlpha"/>
<feOffset dy="0.83572"/>
<feGaussianBlur stdDeviation="0.83572"/>
<feColorMatrix type="matrix" values="0 0 0 0 0 0 0 0 0 0 0 0 0 0 0 0 0 0 0.05 0"/>
<feBlend mode="normal" in2="BackgroundImageFix" result="effect1_dropShadow_1553_925"/>
<feBlend mode="normal" in="SourceGraphic" in2="effect1_dropShadow_1553_925" result="shape"/>
</filter>
<filter id="filter15_d_1553_925" x="154.303" y="160.397" width="180.627" height="18.7852" filterUnits="userSpaceOnUse" color-interpolation-filters="sRGB">
<feFlood flood-opacity="0" result="BackgroundImageFix"/>
<feColorMatrix in="SourceAlpha" type="matrix" values="0 0 0 0 0 0 0 0 0 0 0 0 0 0 0 0 0 0 127 0" result="hardAlpha"/>
<feOffset dy="1"/>
<feGaussianBlur stdDeviation="1"/>
<feColorMatrix type="matrix" values="0 0 0 0 0 0 0 0 0 0 0 0 0 0 0 0 0 0 0.05 0"/>
<feBlend mode="normal" in2="BackgroundImageFix" result="effect1_dropShadow_1553_925"/>
<feBlend mode="normal" in="SourceGraphic" in2="effect1_dropShadow_1553_925" result="shape"/>
</filter>
<filter id="filter16_d_1553_925" x="124.782" y="184.64" width="324.757" height="34.4941" filterUnits="userSpaceOnUse" color-interpolation-filters="sRGB">
<feFlood flood-opacity="0" result="BackgroundImageFix"/>
<feColorMatrix in="SourceAlpha" type="matrix" values="0 0 0 0 0 0 0 0 0 0 0 0 0 0 0 0 0 0 127 0" result="hardAlpha"/>
<feOffset dy="1"/>
<feGaussianBlur stdDeviation="1"/>
<feColorMatrix type="matrix" values="0 0 0 0 0 0 0 0 0 0 0 0 0 0 0 0 0 0 0.05 0"/>
<feBlend mode="normal" in2="BackgroundImageFix" result="effect1_dropShadow_1553_925"/>
<feBlend mode="normal" in="SourceGraphic" in2="effect1_dropShadow_1553_925" result="shape"/>
</filter>
<filter id="filter17_dd_1553_925" x="463.412" y="143.749" width="88.5965" height="87.7608" filterUnits="userSpaceOnUse" color-interpolation-filters="sRGB">
<feFlood flood-opacity="0" result="BackgroundImageFix"/>
<feColorMatrix in="SourceAlpha" type="matrix" values="0 0 0 0 0 0 0 0 0 0 0 0 0 0 0 0 0 0 127 0" result="hardAlpha"/>
<feMorphology radius="0.669582" operator="erode" in="SourceAlpha" result="effect1_dropShadow_1553_925"/>
<feOffset dy="1.33916"/>
<feGaussianBlur stdDeviation="1.33916"/>
<feColorMatrix type="matrix" values="0 0 0 0 0 0 0 0 0 0 0 0 0 0 0 0 0 0 0.06 0"/>
<feBlend mode="normal" in2="BackgroundImageFix" result="effect1_dropShadow_1553_925"/>
<feColorMatrix in="SourceAlpha" type="matrix" values="0 0 0 0 0 0 0 0 0 0 0 0 0 0 0 0 0 0 127 0" result="hardAlpha"/>
<feMorphology radius="0.669582" operator="erode" in="SourceAlpha" result="effect2_dropShadow_1553_925"/>
<feOffset dy="2.67833"/>
<feGaussianBlur stdDeviation="2.00875"/>
<feColorMatrix type="matrix" values="0 0 0 0 0 0 0 0 0 0 0 0 0 0 0 0 0 0 0.1 0"/>
<feBlend mode="normal" in2="effect1_dropShadow_1553_925" result="effect2_dropShadow_1553_925"/>
<feBlend mode="normal" in="SourceGraphic" in2="effect2_dropShadow_1553_925" result="shape"/>
</filter>
</defs>
</svg>
