<svg width="14" height="24" viewBox="0 0 14 24" fill="none" xmlns="http://www.w3.org/2000/svg">
<path d="M12.4365 9.6H10.3637H9.62345V8.82581V6.42581V5.65161H10.3637H11.9183C12.3254 5.65161 12.6585 5.34194 12.6585 4.87742V0.774194C12.6585 0.348387 12.3624 0 11.9183 0H9.2163C6.29226 0 4.25653 2.16774 4.25653 5.38064V8.74839V9.52258H3.51626H0.999358C0.481172 9.52258 0 9.94839 0 10.5677V13.3548C0 13.8968 0.407146 14.4 0.999358 14.4H3.44223H4.1825V15.1742V22.9548C4.1825 23.4968 4.58964 24 5.18186 24H8.66111C8.88318 24 9.06825 23.8839 9.2163 23.729C9.36436 23.5742 9.4754 23.3032 9.4754 23.071V15.2129V14.4387H10.2527H11.9183C12.3994 14.4387 12.7696 14.129 12.8436 13.6645V13.6258V13.5871L13.3618 10.9161C13.3988 10.6452 13.3618 10.3355 13.1397 10.0258C13.0657 9.83226 12.7326 9.63871 12.4365 9.6Z" fill="#D1D5DB"/>
</svg>
