<svg width="74" height="78" viewBox="0 0 74 78" fill="none" xmlns="http://www.w3.org/2000/svg">
<g filter="url(#filter0_d_1306_157)">
<path d="M37 72.5C55.0988 72.5 69.5 56.8994 69.5 38C69.5 19.1006 55.0988 3.5 37 3.5C18.9012 3.5 4.5 19.1006 4.5 38C4.5 56.8994 18.9012 72.5 37 72.5Z" fill="white" stroke="white" stroke-width="5"/>
<mask id="mask0_1306_157" style="mask-type:luminance" maskUnits="userSpaceOnUse" x="7" y="6" width="60" height="64">
<path d="M66.104 32.1818H37.595V44.5455H54.0051C52.4753 52.4 46.0782 56.9091 37.595 56.9091C27.5821 56.9091 19.5162 48.4727 19.5162 38C19.5162 27.5273 27.5821 19.0909 37.595 19.0909C41.9062 19.0909 45.8 20.6909 48.8595 23.3091L57.7599 14C52.3363 9.05455 45.3829 6 37.595 6C20.6287 6 7 20.2545 7 38C7 55.7455 20.6287 70 37.595 70C52.8926 70 66.7994 58.3636 66.7994 38C66.7994 36.1091 66.5213 34.0727 66.104 32.1818Z" fill="white"/>
</mask>
<g mask="url(#mask0_1306_157)">
<path d="M4.21851 56.9095V19.0913L27.8601 38.0004L4.21851 56.9095Z" fill="#6B7280"/>
</g>
<mask id="mask1_1306_157" style="mask-type:luminance" maskUnits="userSpaceOnUse" x="7" y="6" width="60" height="64">
<path d="M66.104 32.1818H37.595V44.5455H54.0051C52.4753 52.4 46.0782 56.9091 37.595 56.9091C27.5821 56.9091 19.5162 48.4727 19.5162 38C19.5162 27.5273 27.5821 19.0909 37.595 19.0909C41.9062 19.0909 45.8 20.6909 48.8595 23.3091L57.7599 14C52.3363 9.05455 45.3829 6 37.595 6C20.6287 6 7 20.2545 7 38C7 55.7455 20.6287 70 37.595 70C52.8926 70 66.7994 58.3636 66.7994 38C66.7994 36.1091 66.5213 34.0727 66.104 32.1818Z" fill="white"/>
</mask>
<g mask="url(#mask1_1306_157)">
<path d="M4.21851 19.0908L27.8601 37.9999L37.5949 29.1272L70.9713 23.4545V3.09082H4.21851V19.0908Z" fill="#9CA3AF"/>
</g>
<mask id="mask2_1306_157" style="mask-type:luminance" maskUnits="userSpaceOnUse" x="7" y="6" width="60" height="64">
<path d="M66.104 32.1818H37.595V44.5455H54.0051C52.4753 52.4 46.0782 56.9091 37.595 56.9091C27.5821 56.9091 19.5162 48.4727 19.5162 38C19.5162 27.5273 27.5821 19.0909 37.595 19.0909C41.9062 19.0909 45.8 20.6909 48.8595 23.3091L57.7599 14C52.3363 9.05455 45.3829 6 37.595 6C20.6287 6 7 20.2545 7 38C7 55.7455 20.6287 70 37.595 70C52.8926 70 66.7994 58.3636 66.7994 38C66.7994 36.1091 66.5213 34.0727 66.104 32.1818Z" fill="white"/>
</mask>
<g mask="url(#mask2_1306_157)">
<path d="M4.21851 56.909L45.939 23.4545L56.9254 24.909L70.9713 3.09082V72.909H4.21851V56.909Z" fill="#4B5563"/>
</g>
<mask id="mask3_1306_157" style="mask-type:luminance" maskUnits="userSpaceOnUse" x="7" y="6" width="60" height="64">
<path d="M66.104 32.1818H37.595V44.5455H54.0051C52.4753 52.4 46.0782 56.9091 37.595 56.9091C27.5821 56.9091 19.5162 48.4727 19.5162 38C19.5162 27.5273 27.5821 19.0909 37.595 19.0909C41.9062 19.0909 45.8 20.6909 48.8595 23.3091L57.7599 14C52.3363 9.05455 45.3829 6 37.595 6C20.6287 6 7 20.2545 7 38C7 55.7455 20.6287 70 37.595 70C52.8926 70 66.7994 58.3636 66.7994 38C66.7994 36.1091 66.5213 34.0727 66.104 32.1818Z" fill="white"/>
</mask>
<g mask="url(#mask3_1306_157)">
<path d="M70.9715 72.9095L27.8603 38.0004L22.2976 33.6368L70.9715 19.0913V72.9095Z" fill="#6B7280"/>
</g>
</g>
<defs>
<filter id="filter0_d_1306_157" x="0" y="0" width="74" height="78" filterUnits="userSpaceOnUse" color-interpolation-filters="sRGB">
<feFlood flood-opacity="0" result="BackgroundImageFix"/>
<feColorMatrix in="SourceAlpha" type="matrix" values="0 0 0 0 0 0 0 0 0 0 0 0 0 0 0 0 0 0 127 0" result="hardAlpha"/>
<feOffset dy="1"/>
<feGaussianBlur stdDeviation="1"/>
<feColorMatrix type="matrix" values="0 0 0 0 0 0 0 0 0 0 0 0 0 0 0 0 0 0 0.05 0"/>
<feBlend mode="normal" in2="BackgroundImageFix" result="effect1_dropShadow_1306_157"/>
<feBlend mode="normal" in="SourceGraphic" in2="effect1_dropShadow_1306_157" result="shape"/>
</filter>
</defs>
</svg>
