<svg width="69" height="71" viewBox="0 0 69 71" fill="none" xmlns="http://www.w3.org/2000/svg">
<rect x="21.7061" y="19.96" width="25.8" height="49.82" rx="12.9" fill="white"/>
<rect x="42.7061" y="0.959961" width="25.8" height="69.08" rx="12.9" fill="white"/>
<path d="M13.6361 43.96C16.1934 43.96 18.6932 44.7179 20.8196 46.1378C22.9459 47.5578 24.6032 49.576 25.5818 51.9374C26.5605 54.2987 26.8165 56.897 26.3176 59.4037C25.8187 61.9105 24.5872 64.2131 22.7789 66.0204C20.9706 67.8277 18.6667 69.0584 16.1586 69.5571C13.6504 70.0557 11.0506 69.7998 8.68796 68.8217C6.32531 67.8436 4.30592 66.1873 2.88515 64.0622C1.46439 61.937 0.706055 59.4386 0.706055 56.8827C0.706055 53.4554 2.06832 50.1684 4.49316 47.745C6.91801 45.3215 10.2068 43.96 13.6361 43.96Z" fill="white"/>
<path d="M63.3309 57.5774C63.3365 58.5417 63.1344 59.4977 62.7362 60.3906C62.3379 61.2835 61.7513 62.0959 61.0099 62.7814C60.2685 63.4669 59.3867 64.012 58.415 64.3858C57.4433 64.7595 56.4006 64.9545 55.3465 64.9595C55.0163 64.9619 54.6862 64.9449 54.3584 64.9084C52.3711 64.6395 50.5599 63.7151 49.266 62.3092C47.972 60.9033 47.2847 59.113 47.3335 57.2757V13.5663C47.2858 11.7274 47.9752 9.93597 49.2717 8.52995C50.5681 7.12393 52.3821 6.20046 54.3715 5.93365C55.5001 5.81144 56.6443 5.91018 57.728 6.22331C58.8118 6.53644 59.8104 7.05682 60.6576 7.74991C61.5048 8.44301 62.1812 9.29298 62.642 10.2435C63.1028 11.1939 63.3374 12.2232 63.3303 13.2629L63.3309 57.5774Z" fill="#9CA3AF"/>
<path d="M13.6379 48.96C15.2067 48.96 16.7402 49.4249 18.0446 50.296C19.349 51.167 20.3657 52.4051 20.966 53.8537C21.5663 55.3022 21.7234 56.8961 21.4174 58.4339C21.1113 59.9717 20.3559 61.3842 19.2466 62.4929C18.1373 63.6015 16.724 64.3565 15.1853 64.6624C13.6467 64.9683 12.0519 64.8113 10.6025 64.2113C9.15316 63.6113 7.91438 62.5952 7.04281 61.2916C6.17125 59.9879 5.70605 58.4552 5.70605 56.8874C5.70605 54.7849 6.54173 52.7685 8.02924 51.2819C9.51675 49.7952 11.5343 48.96 13.6379 48.96Z" fill="#6B7280"/>
<path d="M28.7402 27.6846C30.1798 26.1289 32.1687 25.1941 34.2858 25.0781H34.4243C35.4696 25.0801 36.5041 25.2878 37.469 25.6893C38.4339 26.0909 39.3102 26.6786 40.0478 27.4186C40.7855 28.1587 41.37 29.0368 41.7681 30.0027C42.1662 30.9686 42.37 32.0034 42.3679 33.048V56.9311C42.3707 57.4684 42.3177 58.0046 42.2097 58.5311C42.0027 59.5532 41.5963 60.5246 41.0136 61.3897C40.4309 62.2548 39.6834 62.9967 38.8138 63.573C37.9441 64.1493 36.9694 64.5486 35.9452 64.7483C34.9211 64.948 33.8676 64.944 32.845 64.7366C29.1174 63.992 26.5725 60.4849 26.5725 54.7058V33.4135C26.5231 31.295 27.3005 29.2404 28.7402 27.6846Z" fill="#6B7280"/>
</svg>
