<svg width="1157" height="900" viewBox="0 0 1157 900" fill="none" xmlns="http://www.w3.org/2000/svg">
<mask id="mask0_1277_910" style="mask-type:alpha" maskUnits="userSpaceOnUse" x="0" y="0" width="1157" height="901">
<line x1="0.500244" y1="1.10327e-07" x2="0.500049" y2="899.111" stroke="#F3F4F6"/>
<line x1="64.7224" y1="1.10327e-07" x2="64.7222" y2="899.111" stroke="#F3F4F6"/>
<line x1="128.945" y1="1.10327e-07" x2="128.945" y2="899.111" stroke="#F3F4F6"/>
<line x1="193.167" y1="1.10327e-07" x2="193.167" y2="899.111" stroke="#F3F4F6"/>
<line x1="257.389" y1="1.10327e-07" x2="257.389" y2="899.111" stroke="#F3F4F6"/>
<line x1="321.611" y1="1.10327e-07" x2="321.611" y2="899.111" stroke="#F3F4F6"/>
<line x1="385.833" y1="1.10327e-07" x2="385.833" y2="899.111" stroke="#F3F4F6"/>
<line x1="450.056" y1="1.10327e-07" x2="450.055" y2="899.111" stroke="#F3F4F6"/>
<line x1="514.278" y1="1.10327e-07" x2="514.278" y2="899.111" stroke="#F3F4F6"/>
<line x1="578.5" y1="1.10327e-07" x2="578.5" y2="899.111" stroke="#F3F4F6"/>
<line x1="642.722" y1="0.000488392" x2="642.722" y2="899.112" stroke="#F3F4F6"/>
<line x1="706.945" y1="0.000488392" x2="706.944" y2="899.112" stroke="#F3F4F6"/>
<line x1="771.167" y1="0.000488392" x2="771.167" y2="899.112" stroke="#F3F4F6"/>
<line x1="835.389" y1="0.000488392" x2="835.389" y2="899.112" stroke="#F3F4F6"/>
<line x1="899.611" y1="0.000488392" x2="899.611" y2="899.112" stroke="#F3F4F6"/>
<line x1="963.833" y1="0.000488392" x2="963.833" y2="899.112" stroke="#F3F4F6"/>
<line x1="1028.06" y1="0.000488392" x2="1028.06" y2="899.112" stroke="#F3F4F6"/>
<line x1="1092.28" y1="0.000488392" x2="1092.28" y2="899.112" stroke="#F3F4F6"/>
<line x1="1156.5" y1="41.1426" x2="1156.5" y2="856.966" stroke="#F3F4F6"/>
<line x1="1156" y1="0.500488" x2="-1.49388e-07" y2="0.500215" stroke="#F3F4F6"/>
<line x1="1156" y1="64.7227" x2="-1.49388e-07" y2="64.7224" stroke="#F3F4F6"/>
<line x1="1156" y1="128.945" x2="-1.49388e-07" y2="128.945" stroke="#F3F4F6"/>
<line x1="1156" y1="193.167" x2="-1.49388e-07" y2="193.167" stroke="#F3F4F6"/>
<line x1="1156" y1="257.389" x2="0.000243991" y2="257.389" stroke="#F3F4F6"/>
<line x1="1156" y1="321.611" x2="0.000243991" y2="321.611" stroke="#F3F4F6"/>
<line x1="1156" y1="385.833" x2="0.000243991" y2="385.833" stroke="#F3F4F6"/>
<line x1="1156" y1="450.056" x2="0.000243991" y2="450.056" stroke="#F3F4F6"/>
<line x1="1156" y1="514.278" x2="0.000243991" y2="514.278" stroke="#F3F4F6"/>
<line x1="1156" y1="578.5" x2="0.000243991" y2="578.5" stroke="#F3F4F6"/>
<line x1="1156" y1="642.723" x2="0.000243991" y2="642.722" stroke="#F3F4F6"/>
<line x1="1156" y1="706.945" x2="-1.49388e-07" y2="706.945" stroke="#F3F4F6"/>
<line x1="1156" y1="771.167" x2="-1.49388e-07" y2="771.167" stroke="#F3F4F6"/>
<line x1="1156" y1="835.389" x2="-1.49388e-07" y2="835.389" stroke="#F3F4F6"/>
<line x1="1156" y1="899.612" x2="-1.49388e-07" y2="899.612" stroke="#F3F4F6"/>
</mask>
<g mask="url(#mask0_1277_910)">
<path d="M1283.5 303.5C1283.5 418.818 1204.76 523.308 1077.26 598.994C949.765 674.675 773.606 721.5 579 721.5C384.394 721.5 208.235 674.674 80.7448 598.994C-46.7561 523.307 -125.5 418.818 -125.5 303.5C-125.5 188.182 -46.7561 83.6925 80.7449 8.00577C208.235 -67.6745 384.394 -114.5 579 -114.5C773.606 -114.5 949.765 -67.6744 1077.26 8.00594C1204.76 83.6927 1283.5 188.182 1283.5 303.5Z" fill="url(#paint0_radial_1277_910)" stroke="#F3F4F6"/>
</g>
<defs>
<radialGradient id="paint0_radial_1277_910" cx="0" cy="0" r="1" gradientUnits="userSpaceOnUse" gradientTransform="translate(579 303.5) rotate(90) scale(560.188 943.686)">
<stop stop-color="#F4F4F4"/>
<stop offset="0.72182" stop-color="#898989" stop-opacity="0"/>
</radialGradient>
</defs>
</svg>
