<svg width="218" height="561" viewBox="0 0 218 561" fill="none" xmlns="http://www.w3.org/2000/svg">
<path d="M100.866 531.866C99.605 530.605 98.1085 529.605 96.4615 528.923C94.8146 528.241 93.0493 527.89 91.2667 527.89C89.484 527.89 87.7188 528.241 86.0718 528.923C84.4248 529.605 82.9284 530.605 81.6678 531.866C80.4073 533.126 79.4074 534.623 78.7252 536.269C78.043 537.916 77.6918 539.682 77.6918 541.464C77.6918 543.247 78.043 545.012 78.7252 546.659C79.4074 548.306 80.4073 549.803 81.6678 551.063L91.2667 541.464L100.866 531.866Z" fill="#6B7280"/>
<path d="M-3.5033 422.497C-5.01307 424.006 -6.21068 425.799 -7.02776 427.771C-7.84484 429.744 -8.26539 431.858 -8.26539 433.993C-8.26539 436.129 -7.84484 438.243 -7.02776 440.215C-6.21068 442.188 -5.01307 443.98 -3.5033 445.49C-1.99353 447 -0.201172 448.197 1.77144 449.015C3.74404 449.832 5.85827 450.252 7.99341 450.252C10.1285 450.252 12.2428 449.832 14.2154 449.015C16.188 448.197 17.9803 447 19.4901 445.49L7.99341 433.993L-3.5033 422.497Z" fill="#F87171"/>
<path d="M62 124L62 156L34 124L34 92L62 124Z" fill="#6B7280"/>
<path d="M214 6.00001L201.477 18L190.985 7.94595L180.492 18L170 7.94595L159.508 18L149.015 7.94595L138.523 18L126 6" stroke="#FCD34D" stroke-width="11"/>
<path d="M153 367L159.804 373.648C161.008 374.825 161.008 376.763 159.804 377.939L156.656 381.016C155.451 382.193 155.451 384.13 156.656 385.307L159.804 388.383C161.008 389.56 161.008 391.498 159.804 392.675L156.656 395.751C155.451 396.928 155.451 398.866 156.656 400.043L159.804 403.119C161.008 404.296 161.008 406.233 159.804 407.41L156.656 410.487C155.451 411.663 155.451 413.601 156.656 414.778L162 420" stroke="#8B5CF6" stroke-width="10"/>
<circle cx="141.244" cy="240.244" r="20.0927" transform="rotate(-128.703 141.244 240.244)" fill="#10B981"/>
</svg>
