<svg width="404" height="576" viewBox="0 0 404 576" fill="none" xmlns="http://www.w3.org/2000/svg">
<path d="M306.94 27.2104C303.407 23.6774 299.212 20.8748 294.596 18.9627C289.98 17.0506 285.032 16.0665 280.036 16.0665C275.039 16.0665 270.092 17.0506 265.476 18.9627C260.86 20.8748 256.665 23.6774 253.132 27.2104C249.599 30.7435 246.796 34.9379 244.884 39.554C242.972 44.1702 241.988 49.1178 241.988 54.1143C241.988 59.1108 242.972 64.0583 244.884 68.6745C246.796 73.2907 249.599 77.485 253.132 81.0181L280.036 54.1143L306.94 27.2104Z" fill="#F87171"/>
<path d="M422.952 141.214C417.956 141.214 413.008 142.198 408.392 144.11C403.776 146.022 399.582 148.824 396.048 152.358C392.515 155.891 389.713 160.085 387.801 164.701C385.889 169.317 384.905 174.265 384.905 179.261C384.905 184.258 385.889 189.205 387.801 193.822C389.713 198.438 392.515 202.632 396.048 206.165C399.582 209.698 403.776 212.501 408.392 214.413C413.008 216.325 417.956 217.309 422.952 217.309L422.952 179.261L422.952 141.214Z" fill="#8B5CF6"/>
<path d="M269.104 299.107C267.256 300.588 265.717 302.419 264.576 304.495C263.435 306.57 262.714 308.851 262.454 311.205C262.194 313.56 262.401 315.942 263.062 318.217C263.723 320.492 264.825 322.614 266.306 324.462C267.787 326.311 269.618 327.85 271.694 328.991C273.77 330.132 276.05 330.853 278.404 331.113C280.759 331.372 283.142 331.166 285.416 330.505C287.691 329.844 289.813 328.742 291.662 327.26L280.383 313.184L269.104 299.107Z" fill="#6B7280"/>
<circle cx="403.799" cy="415.028" r="20.5953" transform="rotate(-128.703 403.799 415.028)" stroke="#6B7280" stroke-width="22"/>
<path d="M43.5344 536.196C41.6608 534.323 39.4364 532.836 36.9883 531.822C34.5402 530.808 31.9163 530.286 29.2665 530.286C26.6167 530.286 23.9929 530.808 21.5448 531.822C19.0967 532.836 16.8723 534.323 14.9986 536.196C13.1249 538.07 11.6386 540.295 10.6246 542.743C9.61058 545.191 9.08866 547.815 9.08866 550.464C9.08866 553.114 9.61058 555.738 10.6246 558.186C11.6386 560.634 13.1249 562.859 14.9986 564.732L29.2665 550.464L43.5344 536.196Z" fill="#6B7280"/>
<rect x="223.02" y="524.627" width="9.55692" height="9.55692" transform="rotate(45 223.02 524.627)" stroke="#10B981" stroke-width="9.55692"/>
</svg>
