<svg width="650" height="480" viewBox="0 0 650 480" fill="none" xmlns="http://www.w3.org/2000/svg">
<g filter="url(#filter0_i_1327_164)">
<path fill-rule="evenodd" clip-rule="evenodd" d="M21.4488 0C9.60296 0 0 9.60297 0 21.4488V384.551C0 396.397 9.60293 406 21.4488 406H168.355C180.201 406 189.804 415.603 189.804 427.449V458.551C189.804 470.397 199.407 480 211.253 480H628.551C640.397 480 650 470.397 650 458.551V167.436C650 155.59 640.397 145.987 628.551 145.987H579.449C567.603 145.987 558 136.384 558 124.538V21.4488C558 9.60296 548.397 0 536.551 0H21.4488Z" fill="#D1D5DB"/>
</g>
<circle cx="89.5" cy="85.5" r="65.5" fill="#E5E7EB"/>
<!-- slide left class -->
<circle class="slide-left" cx="243" cy="413" r="22" fill="#E5E7EB"/>
<circle cx="590" cy="202" r="17" fill="#E5E7EB"/>
<circle cx="277.5" cy="438.5" r="10.5" fill="#E5E7EB"/>
<g filter="url(#filter1_dd_1327_164)">
<path d="M60.5532 74.9429H495.809V356.71C495.809 359.97 493.167 362.612 489.907 362.612H66.4556C63.1958 362.612 60.5532 359.97 60.5532 356.71V74.9429Z" fill="#F3F4F6"/>
</g>
<path d="M255.229 152.247L254.798 153.21H249.05L249.412 152.247H255.229ZM254.389 154.062L253.899 155.051H249.05L249.412 154.062H254.389ZM256.371 149.908L255.595 151.557C255.504 151.506 255.385 151.437 255.237 151.352C255.092 151.264 254.919 151.186 254.717 151.118C254.518 151.05 254.293 151.016 254.04 151.016C253.676 151.016 253.364 151.105 253.102 151.284C252.841 151.46 252.639 151.741 252.497 152.128C252.358 152.514 252.288 153.021 252.288 153.649C252.288 154.283 252.358 154.791 252.497 155.175C252.639 155.555 252.841 155.831 253.102 156.001C253.364 156.172 253.676 156.257 254.04 156.257C254.29 156.257 254.513 156.224 254.709 156.159C254.908 156.094 255.078 156.02 255.22 155.938C255.365 155.852 255.479 155.781 255.561 155.724L256.341 157.378C256.028 157.625 255.676 157.811 255.284 157.936C254.895 158.058 254.48 158.119 254.04 158.119C253.281 158.119 252.609 157.945 252.024 157.595C251.442 157.246 250.986 156.739 250.656 156.074C250.327 155.406 250.162 154.598 250.162 153.649C250.162 152.703 250.327 151.895 250.656 151.224C250.986 150.554 251.442 150.041 252.024 149.686C252.609 149.331 253.281 149.153 254.04 149.153C254.497 149.153 254.919 149.219 255.305 149.349C255.695 149.48 256.05 149.666 256.371 149.908ZM261.687 149.273V158H259.582V151.241H259.531L257.579 152.435V150.611L259.731 149.273H261.687ZM263.616 158V156.483L266.799 153.696C267.038 153.48 267.241 153.283 267.409 153.104C267.576 152.922 267.704 152.74 267.792 152.558C267.88 152.374 267.924 152.173 267.924 151.957C267.924 151.716 267.872 151.51 267.767 151.339C267.662 151.166 267.517 151.033 267.332 150.939C267.147 150.845 266.936 150.798 266.697 150.798C266.456 150.798 266.244 150.848 266.062 150.947C265.88 151.044 265.738 151.185 265.636 151.369C265.537 151.554 265.487 151.778 265.487 152.043H263.488C263.488 151.449 263.622 150.936 263.889 150.504C264.156 150.072 264.531 149.74 265.014 149.507C265.5 149.271 266.064 149.153 266.706 149.153C267.368 149.153 267.943 149.264 268.431 149.486C268.92 149.707 269.298 150.017 269.565 150.415C269.835 150.81 269.97 151.268 269.97 151.791C269.97 152.124 269.903 152.453 269.77 152.78C269.636 153.107 269.396 153.467 269.049 153.862C268.706 154.257 268.217 154.73 267.583 155.281L266.539 156.244V156.3H270.076V158H263.616ZM273.412 156.807L273.374 157.28C273.339 157.672 273.27 158.054 273.165 158.426C273.063 158.801 272.953 159.138 272.837 159.436C272.72 159.734 272.628 159.966 272.56 160.131H271.247C271.293 159.966 271.354 159.734 271.43 159.436C271.51 159.138 271.584 158.801 271.652 158.426C271.72 158.051 271.759 157.67 271.767 157.284L271.776 156.807H273.412ZM278.093 149.153C278.57 149.153 279.026 149.232 279.461 149.388C279.896 149.541 280.283 149.787 280.624 150.125C280.965 150.46 281.234 150.902 281.43 151.45C281.626 151.999 281.724 152.668 281.724 153.457C281.727 154.185 281.641 154.837 281.468 155.413C281.295 155.987 281.046 156.476 280.722 156.879C280.401 157.283 280.015 157.591 279.563 157.804C279.112 158.014 278.607 158.119 278.05 158.119C277.437 158.119 276.896 158.001 276.427 157.766C275.961 157.527 275.587 157.206 275.306 156.803C275.028 156.399 274.862 155.947 274.808 155.447H276.883C276.948 155.737 277.086 155.956 277.296 156.104C277.506 156.249 277.758 156.321 278.05 156.321C278.585 156.321 278.984 156.089 279.248 155.626C279.512 155.163 279.644 154.534 279.644 153.739H279.593C279.471 154 279.298 154.224 279.073 154.412C278.852 154.599 278.594 154.743 278.302 154.842C278.009 154.942 277.701 154.991 277.377 154.991C276.854 154.991 276.393 154.872 275.992 154.634C275.594 154.395 275.282 154.067 275.055 153.649C274.83 153.232 274.717 152.754 274.714 152.217C274.711 151.615 274.852 151.084 275.136 150.624C275.42 150.161 275.816 149.8 276.325 149.541C276.833 149.28 277.423 149.151 278.093 149.153ZM278.106 150.773C277.844 150.773 277.612 150.834 277.407 150.956C277.205 151.078 277.046 151.243 276.93 151.45C276.813 151.658 276.756 151.891 276.759 152.149C276.762 152.408 276.82 152.641 276.934 152.848C277.05 153.055 277.208 153.22 277.407 153.342C277.609 153.464 277.839 153.526 278.097 153.526C278.29 153.526 278.469 153.49 278.634 153.419C278.799 153.348 278.942 153.25 279.065 153.125C279.187 152.997 279.282 152.849 279.35 152.682C279.421 152.514 279.455 152.335 279.452 152.145C279.45 151.892 279.39 151.662 279.273 151.455C279.157 151.247 278.996 151.082 278.792 150.96C278.59 150.835 278.362 150.773 278.106 150.773ZM286.167 149.153C286.645 149.153 287.1 149.232 287.535 149.388C287.97 149.541 288.358 149.787 288.699 150.125C289.039 150.46 289.308 150.902 289.504 151.45C289.7 151.999 289.798 152.668 289.798 153.457C289.801 154.185 289.716 154.837 289.542 155.413C289.369 155.987 289.12 156.476 288.797 156.879C288.475 157.283 288.089 157.591 287.637 157.804C287.186 158.014 286.681 158.119 286.125 158.119C285.511 158.119 284.97 158.001 284.501 157.766C284.035 157.527 283.662 157.206 283.38 156.803C283.102 156.399 282.936 155.947 282.882 155.447H284.957C285.022 155.737 285.16 155.956 285.37 156.104C285.581 156.249 285.832 156.321 286.125 156.321C286.659 156.321 287.058 156.089 287.322 155.626C287.586 155.163 287.718 154.534 287.718 153.739H287.667C287.545 154 287.372 154.224 287.147 154.412C286.926 154.599 286.669 154.743 286.376 154.842C286.083 154.942 285.775 154.991 285.451 154.991C284.929 154.991 284.467 154.872 284.066 154.634C283.669 154.395 283.356 154.067 283.129 153.649C282.904 153.232 282.791 152.754 282.788 152.217C282.785 151.615 282.926 151.084 283.21 150.624C283.494 150.161 283.89 149.8 284.399 149.541C284.907 149.28 285.497 149.151 286.167 149.153ZM286.18 150.773C285.919 150.773 285.686 150.834 285.481 150.956C285.279 151.078 285.12 151.243 285.004 151.45C284.887 151.658 284.831 151.891 284.833 152.149C284.836 152.408 284.895 152.641 285.008 152.848C285.125 153.055 285.282 153.22 285.481 153.342C285.683 153.464 285.913 153.526 286.172 153.526C286.365 153.526 286.544 153.49 286.708 153.419C286.873 153.348 287.017 153.25 287.139 153.125C287.261 152.997 287.356 152.849 287.424 152.682C287.495 152.514 287.529 152.335 287.527 152.145C287.524 151.892 287.464 151.662 287.348 151.455C287.231 151.247 287.071 151.082 286.866 150.96C286.664 150.835 286.436 150.773 286.18 150.773Z" fill="#4B5563"/>
<rect x="60.0874" y="48.3926" width="435.735" height="26.8462" fill="white"/>
<g filter="url(#filter2_d_1327_164)">
<path d="M60.0874 50.2115C60.0874 49.2069 60.9017 48.3926 61.9063 48.3926H494.004C495.008 48.3926 495.823 49.2069 495.823 50.2115V75.2388H60.0874V50.2115Z" fill="white"/>
</g>
<circle cx="76.8816" cy="60.7398" r="2.18265" fill="#EF4444"/>
<circle cx="84.1573" cy="60.7398" r="2.18265" fill="#F59E0B"/>
<circle cx="91.4326" cy="60.7398" r="2.18265" fill="#10B981"/>
<rect x="163.415" y="57.4316" width="204.112" height="8.93701" rx="1.81887" fill="#F3F4F6"/>
<rect x="106.365" y="120.936" width="100.059" height="117.569" rx="7.14961" fill="#E5E7EB"/>
<path fill-rule="evenodd" clip-rule="evenodd" d="M159.212 162.796C159.218 162.756 159.22 162.716 159.22 162.676V154.894C159.22 154.4 158.82 154 158.327 154L150.544 154C150.307 154 150.08 154.094 149.912 154.262L132.343 171.831C132.175 171.999 132.081 172.226 132.081 172.463L132.081 180.245C132.081 180.739 132.481 181.139 132.975 181.139H140.757C140.994 181.139 141.222 181.045 141.389 180.877L149.924 172.343C149.918 172.383 149.916 172.423 149.916 172.463V180.245C149.916 180.739 150.316 181.139 150.809 181.139H158.592C158.829 181.139 159.056 181.045 159.224 180.877L176.793 163.308C176.96 163.141 177.055 162.913 177.055 162.676V154.894C177.055 154.4 176.654 154 176.161 154L168.378 154C168.141 154 167.914 154.094 167.747 154.262L159.212 162.796Z" fill="#6B7280"/>
<path d="M177.02 180.213C177.02 180.706 176.619 181.106 176.126 181.106L166.392 181.106C165.596 181.106 165.197 180.144 165.76 179.581L175.494 169.847C176.057 169.284 177.02 169.683 177.02 170.479L177.02 180.213Z" fill="#6B7280"/>
<rect x="246.447" y="180.971" width="186.36" height="10.0059" rx="4.42678" fill="#E5E7EB"/>
<rect x="106.365" y="303.543" width="186.36" height="10.0059" rx="4.42678" fill="#E5E7EB"/>
<rect x="246.447" y="200.982" width="115.068" height="10.0059" rx="4.42678" fill="#E5E7EB"/>
<rect x="106.365" y="323.555" width="115.068" height="10.0059" rx="4.42678" fill="#E5E7EB"/>
<rect x="246.447" y="220.994" width="80.0471" height="17.5103" rx="8.75515" fill="#735BD3"/>
<rect x="265.208" y="225.997" width="42.525" height="7.50442" rx="3.75221" fill="#B4A4F0"/>
<rect x="246.447" y="120.936" width="66.289" height="10.0059" rx="4.42678" fill="#6B7280"/>
<rect x="106.365" y="283.531" width="66.289" height="10.0059" rx="4.42678" fill="#6B7280"/>
<g filter="url(#filter3_dd_1327_164)">
<rect x="339.616" y="189.462" width="242.597" height="236.911" rx="5.3622" fill="white"/>
<rect x="366.15" y="326.87" width="191.424" height="28.4293" rx="5.3622" fill="#F3F4F6"/>
<path d="M385.962 344.451V337.952H386.943V341.055H387.022L389.749 337.952H390.983L388.362 340.878L390.993 344.451H389.812L387.711 341.547L386.943 342.43V344.451H385.962ZM393.517 344.55C393.06 344.55 392.661 344.445 392.32 344.235C391.979 344.026 391.715 343.733 391.527 343.356C391.338 342.98 391.244 342.54 391.244 342.036C391.244 341.53 391.338 341.088 391.527 340.709C391.715 340.331 391.979 340.037 392.32 339.827C392.661 339.618 393.06 339.513 393.517 339.513C393.974 339.513 394.372 339.618 394.713 339.827C395.054 340.037 395.318 340.331 395.506 340.709C395.695 341.088 395.789 341.53 395.789 342.036C395.789 342.54 395.695 342.98 395.506 343.356C395.318 343.733 395.054 344.026 394.713 344.235C394.372 344.445 393.974 344.55 393.517 344.55ZM393.52 343.753C393.816 343.753 394.061 343.675 394.256 343.518C394.451 343.362 394.595 343.153 394.688 342.893C394.783 342.633 394.83 342.346 394.83 342.033C394.83 341.722 394.783 341.436 394.688 341.176C394.595 340.914 394.451 340.703 394.256 340.544C394.061 340.386 393.816 340.306 393.52 340.306C393.221 340.306 392.974 340.386 392.777 340.544C392.582 340.703 392.437 340.914 392.342 341.176C392.249 341.436 392.203 341.722 392.203 342.033C392.203 342.346 392.249 342.633 392.342 342.893C392.437 343.153 392.582 343.362 392.777 343.518C392.974 343.675 393.221 343.753 393.52 343.753ZM396.848 344.451V339.576H397.765V340.351H397.816C397.905 340.088 398.061 339.882 398.286 339.732C398.512 339.58 398.768 339.503 399.054 339.503C399.113 339.503 399.183 339.506 399.263 339.51C399.346 339.514 399.41 339.519 399.457 339.526V340.433C399.419 340.423 399.351 340.411 399.254 340.398C399.156 340.384 399.059 340.376 398.962 340.376C398.737 340.376 398.538 340.424 398.362 340.519C398.188 340.612 398.051 340.742 397.949 340.909C397.848 341.074 397.797 341.263 397.797 341.474V344.451H396.848ZM402.842 339.576V340.338H400.179V339.576H402.842ZM400.893 338.409H401.842V343.02C401.842 343.204 401.869 343.343 401.924 343.436C401.979 343.527 402.05 343.589 402.137 343.623C402.226 343.655 402.322 343.67 402.426 343.67C402.502 343.67 402.569 343.665 402.626 343.655C402.683 343.644 402.727 343.636 402.759 343.629L402.93 344.413C402.875 344.434 402.797 344.455 402.696 344.477C402.594 344.5 402.467 344.513 402.315 344.515C402.065 344.519 401.832 344.474 401.616 344.381C401.401 344.288 401.226 344.144 401.093 343.95C400.96 343.755 400.893 343.511 400.893 343.217V338.409ZM403.891 344.451V339.576H404.84V344.451H403.891ZM404.37 338.824C404.205 338.824 404.064 338.769 403.945 338.659C403.829 338.547 403.771 338.414 403.771 338.259C403.771 338.103 403.829 337.97 403.945 337.859C404.064 337.747 404.205 337.691 404.37 337.691C404.535 337.691 404.676 337.747 404.793 337.859C404.911 337.97 404.97 338.103 404.97 338.259C404.97 338.414 404.911 338.547 404.793 338.659C404.676 338.769 404.535 338.824 404.37 338.824ZM407.066 341.557V344.451H406.117V339.576H407.028V340.37H407.088C407.2 340.112 407.376 339.904 407.615 339.748C407.856 339.591 408.16 339.513 408.526 339.513C408.858 339.513 409.149 339.583 409.398 339.722C409.648 339.86 409.842 340.065 409.979 340.338C410.117 340.611 410.185 340.949 410.185 341.351V344.451H409.236V341.465C409.236 341.111 409.144 340.835 408.96 340.636C408.776 340.435 408.523 340.335 408.202 340.335C407.982 340.335 407.786 340.383 407.615 340.478C407.445 340.573 407.311 340.713 407.212 340.897C407.114 341.079 407.066 341.299 407.066 341.557ZM413.502 346.381C413.115 346.381 412.781 346.33 412.502 346.228C412.225 346.127 411.999 345.993 411.823 345.825C411.647 345.658 411.516 345.475 411.429 345.276L412.245 344.94C412.302 345.033 412.378 345.131 412.474 345.235C412.571 345.341 412.702 345.431 412.867 345.505C413.034 345.579 413.249 345.616 413.511 345.616C413.871 345.616 414.168 345.528 414.403 345.352C414.638 345.179 414.755 344.902 414.755 344.521V343.563H414.695C414.638 343.666 414.555 343.782 414.448 343.908C414.342 344.035 414.196 344.145 414.01 344.239C413.823 344.332 413.581 344.378 413.283 344.378C412.898 344.378 412.551 344.288 412.242 344.108C411.935 343.926 411.692 343.659 411.512 343.305C411.334 342.95 411.245 342.513 411.245 341.995C411.245 341.476 411.333 341.032 411.509 340.662C411.687 340.292 411.93 340.008 412.239 339.811C412.548 339.612 412.898 339.513 413.289 339.513C413.592 339.513 413.836 339.564 414.022 339.665C414.208 339.765 414.353 339.881 414.457 340.014C414.563 340.148 414.644 340.265 414.701 340.367H414.771V339.576H415.701V344.559C415.701 344.978 415.604 345.322 415.409 345.591C415.215 345.859 414.951 346.058 414.619 346.187C414.289 346.316 413.917 346.381 413.502 346.381ZM413.492 343.591C413.765 343.591 413.996 343.528 414.184 343.401C414.375 343.272 414.518 343.088 414.616 342.848C414.715 342.607 414.765 342.318 414.765 341.982C414.765 341.654 414.716 341.365 414.619 341.116C414.522 340.866 414.379 340.671 414.191 340.532C414.002 340.39 413.769 340.319 413.492 340.319C413.207 340.319 412.969 340.393 412.778 340.541C412.588 340.687 412.444 340.886 412.347 341.138C412.251 341.39 412.204 341.671 412.204 341.982C412.204 342.302 412.252 342.582 412.35 342.823C412.447 343.064 412.591 343.253 412.781 343.388C412.974 343.523 413.211 343.591 413.492 343.591ZM420.627 340.767L419.767 340.919C419.731 340.809 419.674 340.704 419.595 340.605C419.519 340.505 419.415 340.424 419.284 340.36C419.153 340.297 418.989 340.265 418.792 340.265C418.524 340.265 418.299 340.325 418.119 340.446C417.94 340.565 417.85 340.718 417.85 340.906C417.85 341.069 417.91 341.2 418.031 341.3C418.151 341.399 418.346 341.481 418.615 341.544L419.389 341.722C419.837 341.826 420.172 341.985 420.392 342.201C420.612 342.417 420.722 342.697 420.722 343.042C420.722 343.334 420.637 343.594 420.468 343.823C420.301 344.049 420.067 344.227 419.767 344.356C419.468 344.485 419.122 344.55 418.729 344.55C418.183 344.55 417.738 344.433 417.393 344.2C417.048 343.966 416.836 343.632 416.758 343.201L417.675 343.061C417.732 343.3 417.85 343.481 418.027 343.604C418.205 343.724 418.437 343.785 418.722 343.785C419.034 343.785 419.282 343.72 419.468 343.591C419.654 343.46 419.748 343.3 419.748 343.112C419.748 342.96 419.69 342.832 419.576 342.728C419.464 342.624 419.292 342.546 419.059 342.493L418.234 342.312C417.779 342.208 417.442 342.043 417.225 341.817C417.009 341.591 416.901 341.304 416.901 340.957C416.901 340.669 416.981 340.417 417.142 340.202C417.303 339.986 417.525 339.818 417.808 339.697C418.092 339.574 418.417 339.513 418.783 339.513C419.31 339.513 419.724 339.627 420.027 339.856C420.329 340.082 420.529 340.386 420.627 340.767ZM426.184 344.55C425.712 344.55 425.306 344.443 424.965 344.229C424.627 344.013 424.366 343.716 424.184 343.337C424.002 342.958 423.911 342.525 423.911 342.036C423.911 341.541 424.005 341.104 424.191 340.725C424.377 340.344 424.639 340.047 424.978 339.834C425.316 339.62 425.715 339.513 426.174 339.513C426.544 339.513 426.875 339.582 427.164 339.719C427.454 339.855 427.688 340.045 427.866 340.291C428.046 340.536 428.152 340.823 428.186 341.151H427.263C427.212 340.922 427.096 340.725 426.914 340.56C426.734 340.395 426.493 340.313 426.19 340.313C425.926 340.313 425.694 340.383 425.495 340.522C425.298 340.66 425.145 340.856 425.035 341.112C424.925 341.366 424.87 341.667 424.87 342.014C424.87 342.369 424.924 342.676 425.032 342.934C425.14 343.192 425.292 343.392 425.489 343.534C425.688 343.676 425.921 343.747 426.19 343.747C426.37 343.747 426.533 343.714 426.679 343.648C426.827 343.581 426.951 343.484 427.05 343.359C427.152 343.235 427.223 343.084 427.263 342.909H428.186C428.152 343.224 428.05 343.505 427.878 343.753C427.707 344.001 427.478 344.195 427.19 344.337C426.904 344.479 426.569 344.55 426.184 344.55ZM431.254 344.55C430.797 344.55 430.399 344.445 430.058 344.235C429.717 344.026 429.453 343.733 429.265 343.356C429.076 342.98 428.982 342.54 428.982 342.036C428.982 341.53 429.076 341.088 429.265 340.709C429.453 340.331 429.717 340.037 430.058 339.827C430.399 339.618 430.797 339.513 431.254 339.513C431.711 339.513 432.11 339.618 432.451 339.827C432.792 340.037 433.056 340.331 433.244 340.709C433.433 341.088 433.527 341.53 433.527 342.036C433.527 342.54 433.433 342.98 433.244 343.356C433.056 343.733 432.792 344.026 432.451 344.235C432.11 344.445 431.711 344.55 431.254 344.55ZM431.258 343.753C431.554 343.753 431.799 343.675 431.994 343.518C432.189 343.362 432.332 343.153 432.426 342.893C432.521 342.633 432.568 342.346 432.568 342.033C432.568 341.722 432.521 341.436 432.426 341.176C432.332 340.914 432.189 340.703 431.994 340.544C431.799 340.386 431.554 340.306 431.258 340.306C430.959 340.306 430.712 340.386 430.515 340.544C430.32 340.703 430.175 340.914 430.08 341.176C429.987 341.436 429.941 341.722 429.941 342.033C429.941 342.346 429.987 342.633 430.08 342.893C430.175 343.153 430.32 343.362 430.515 343.518C430.712 343.675 430.959 343.753 431.258 343.753ZM436.411 344.546C436.017 344.546 435.666 344.446 435.357 344.245C435.05 344.042 434.809 343.753 434.634 343.378C434.46 343.002 434.373 342.55 434.373 342.023C434.373 341.497 434.461 341.046 434.637 340.671C434.814 340.297 435.058 340.01 435.367 339.811C435.676 339.612 436.026 339.513 436.417 339.513C436.72 339.513 436.963 339.564 437.147 339.665C437.333 339.765 437.477 339.881 437.579 340.014C437.682 340.148 437.763 340.265 437.82 340.367H437.877V337.952H438.826V344.451H437.899V343.693H437.82C437.763 343.796 437.68 343.915 437.572 344.048C437.467 344.181 437.321 344.298 437.134 344.397C436.948 344.497 436.707 344.546 436.411 344.546ZM436.62 343.737C436.893 343.737 437.124 343.665 437.312 343.521C437.503 343.375 437.646 343.173 437.744 342.915C437.843 342.657 437.893 342.357 437.893 342.014C437.893 341.675 437.844 341.379 437.747 341.125C437.65 340.871 437.507 340.673 437.319 340.532C437.13 340.39 436.897 340.319 436.62 340.319C436.335 340.319 436.097 340.393 435.906 340.541C435.716 340.689 435.572 340.891 435.475 341.147C435.379 341.403 435.332 341.692 435.332 342.014C435.332 342.34 435.38 342.633 435.478 342.893C435.575 343.153 435.719 343.359 435.909 343.512C436.102 343.662 436.339 343.737 436.62 343.737ZM442.281 344.55C441.801 344.55 441.387 344.447 441.04 344.242C440.696 344.034 440.429 343.743 440.241 343.369C440.054 342.992 439.961 342.551 439.961 342.046C439.961 341.546 440.054 341.106 440.241 340.725C440.429 340.344 440.691 340.047 441.028 339.834C441.366 339.62 441.762 339.513 442.215 339.513C442.49 339.513 442.756 339.558 443.014 339.649C443.273 339.74 443.504 339.883 443.709 340.078C443.915 340.273 444.077 340.525 444.195 340.836C444.314 341.145 444.373 341.521 444.373 341.963V342.299H440.498V341.589H443.443C443.443 341.339 443.392 341.118 443.291 340.925C443.189 340.731 443.046 340.577 442.862 340.465C442.68 340.353 442.466 340.297 442.221 340.297C441.954 340.297 441.722 340.362 441.523 340.494C441.326 340.623 441.174 340.792 441.066 341.001C440.96 341.209 440.907 341.434 440.907 341.677V342.233C440.907 342.559 440.964 342.836 441.078 343.064C441.195 343.293 441.357 343.467 441.564 343.588C441.771 343.706 442.014 343.766 442.291 343.766C442.471 343.766 442.635 343.74 442.783 343.689C442.931 343.637 443.059 343.558 443.167 343.455C443.275 343.351 443.357 343.223 443.414 343.071L444.312 343.232C444.241 343.497 444.111 343.729 443.925 343.928C443.741 344.124 443.51 344.278 443.23 344.388C442.953 344.496 442.637 344.55 442.281 344.55Z" fill="#6B7280"/>
<path d="M512.297 344.451V337.952H516.372V338.796H513.278V340.776H516.16V341.617H513.278V343.607H516.41V344.451H512.297ZM522.928 337.952V344.451H522.027L518.723 339.684H518.663V344.451H517.682V337.952H518.59L521.897 342.725H521.957V337.952H522.928ZM524.038 338.796V337.952H529.068V338.796H527.04V344.451H526.063V338.796H524.038ZM530.18 344.451V337.952H534.255V338.796H531.161V340.776H534.042V341.617H531.161V343.607H534.293V344.451H530.18ZM535.565 344.451V337.952H537.882C538.385 337.952 538.803 338.038 539.135 338.212C539.469 338.385 539.719 338.625 539.884 338.932C540.049 339.237 540.132 339.589 540.132 339.989C540.132 340.387 540.048 340.737 539.881 341.039C539.716 341.34 539.466 341.574 539.132 341.741C538.8 341.908 538.382 341.992 537.878 341.992H536.123V341.147H537.79C538.107 341.147 538.365 341.102 538.564 341.011C538.765 340.92 538.912 340.788 539.005 340.614C539.098 340.441 539.145 340.232 539.145 339.989C539.145 339.744 539.097 339.531 539.002 339.351C538.909 339.171 538.762 339.034 538.561 338.939C538.362 338.841 538.101 338.793 537.777 338.793H536.545V344.451H535.565ZM538.773 341.519L540.379 344.451H539.262L537.688 341.519H538.773Z" fill="#10B981"/>
<rect x="366.15" y="365.723" width="191.424" height="28.4293" rx="5.3622" fill="#6B7280"/>
<rect x="416.375" y="375.2" width="121.298" height="10.4241" rx="5.21204" fill="#9CA3AF"/>
<path d="M389.104 383.39C388.735 383.39 386.524 383.39 386.156 383.39C385.787 383.39 385.418 383.018 385.418 382.645C385.418 382.273 385.787 381.901 386.156 381.901C386.524 381.901 388.735 381.901 389.104 381.901C389.472 381.901 389.841 382.273 389.841 382.645C389.841 383.018 389.472 383.39 389.104 383.39Z" fill="white"/>
<path fill-rule="evenodd" clip-rule="evenodd" d="M396.474 378.178C396.474 376.533 395.154 375.2 393.526 375.2H386.156C384.527 375.2 383.207 376.533 383.207 378.178V382.645C383.207 384.29 384.527 385.624 386.155 385.624H393.526C395.154 385.624 396.474 384.29 396.474 382.645V378.178ZM395 379.667H384.681V382.347C384.681 383.19 384.681 383.611 384.943 383.873C385.205 384.135 385.626 384.135 386.469 384.135H393.213C394.055 384.135 394.477 384.135 394.738 383.873C395 383.611 395 383.19 395 382.347V379.667ZM389.104 383.39H386.156C385.787 383.39 385.418 383.018 385.418 382.645C385.418 382.273 385.787 381.901 386.156 381.901H389.104C389.472 381.901 389.841 382.273 389.841 382.645C389.841 383.018 389.472 383.39 389.104 383.39ZM395 378.178H384.681C384.681 377.621 384.681 377.343 384.801 377.136C384.879 377 384.992 376.887 385.128 376.808C385.336 376.689 385.614 376.689 386.171 376.689H393.511C394.068 376.689 394.346 376.689 394.553 376.808C394.689 376.887 394.802 377 394.881 377.136C395 377.343 395 377.621 395 378.178Z" fill="white"/>
<rect x="369.94" y="216.943" width="121.298" height="14.2147" rx="5.3622" fill="#6B7280"/>
<rect x="369.94" y="242.53" width="121.298" height="11.3717" rx="5.3622" fill="#E5E7EB"/>
<rect x="369.94" y="259.588" width="121.298" height="11.3717" rx="5.3622" fill="#E5E7EB"/>
<rect x="369.94" y="276.645" width="43.5916" height="11.3717" rx="5.3622" fill="#E5E7EB"/>
<rect x="513.982" y="276.645" width="38.8534" height="11.3717" rx="5.3622" fill="#E5E7EB"/>
<rect x="531.04" y="259.588" width="21.7958" height="11.3717" rx="5.3622" fill="#10B981"/>
<rect x="531.04" y="242.53" width="21.7958" height="11.3717" rx="5.3622" fill="#E5E7EB"/>
</g>
<defs>
<filter id="filter0_i_1327_164" x="0" y="0" width="650" height="482" filterUnits="userSpaceOnUse" color-interpolation-filters="sRGB">
<feFlood flood-opacity="0" result="BackgroundImageFix"/>
<feBlend mode="normal" in="SourceGraphic" in2="BackgroundImageFix" result="shape"/>
<feColorMatrix in="SourceAlpha" type="matrix" values="0 0 0 0 0 0 0 0 0 0 0 0 0 0 0 0 0 0 127 0" result="hardAlpha"/>
<feOffset dy="2"/>
<feGaussianBlur stdDeviation="2"/>
<feComposite in2="hardAlpha" operator="arithmetic" k2="-1" k3="1"/>
<feColorMatrix type="matrix" values="0 0 0 0 0 0 0 0 0 0 0 0 0 0 0 0 0 0 0.06 0"/>
<feBlend mode="normal" in2="shape" result="effect1_innerShadow_1327_164"/>
</filter>
<filter id="filter1_dd_1327_164" x="55.5532" y="73.9429" width="445.256" height="297.669" filterUnits="userSpaceOnUse" color-interpolation-filters="sRGB">
<feFlood flood-opacity="0" result="BackgroundImageFix"/>
<feColorMatrix in="SourceAlpha" type="matrix" values="0 0 0 0 0 0 0 0 0 0 0 0 0 0 0 0 0 0 127 0" result="hardAlpha"/>
<feMorphology radius="1" operator="erode" in="SourceAlpha" result="effect1_dropShadow_1327_164"/>
<feOffset dy="2"/>
<feGaussianBlur stdDeviation="2"/>
<feColorMatrix type="matrix" values="0 0 0 0 0 0 0 0 0 0 0 0 0 0 0 0 0 0 0.06 0"/>
<feBlend mode="normal" in2="BackgroundImageFix" result="effect1_dropShadow_1327_164"/>
<feColorMatrix in="SourceAlpha" type="matrix" values="0 0 0 0 0 0 0 0 0 0 0 0 0 0 0 0 0 0 127 0" result="hardAlpha"/>
<feMorphology radius="1" operator="erode" in="SourceAlpha" result="effect2_dropShadow_1327_164"/>
<feOffset dy="4"/>
<feGaussianBlur stdDeviation="3"/>
<feColorMatrix type="matrix" values="0 0 0 0 0 0 0 0 0 0 0 0 0 0 0 0 0 0 0.1 0"/>
<feBlend mode="normal" in2="effect1_dropShadow_1327_164" result="effect2_dropShadow_1327_164"/>
<feBlend mode="normal" in="SourceGraphic" in2="effect2_dropShadow_1327_164" result="shape"/>
</filter>
<filter id="filter2_d_1327_164" x="58.3" y="47.4989" width="439.31" height="30.421" filterUnits="userSpaceOnUse" color-interpolation-filters="sRGB">
<feFlood flood-opacity="0" result="BackgroundImageFix"/>
<feColorMatrix in="SourceAlpha" type="matrix" values="0 0 0 0 0 0 0 0 0 0 0 0 0 0 0 0 0 0 127 0" result="hardAlpha"/>
<feOffset dy="0.893701"/>
<feGaussianBlur stdDeviation="0.893701"/>
<feColorMatrix type="matrix" values="0 0 0 0 0 0 0 0 0 0 0 0 0 0 0 0 0 0 0.05 0"/>
<feBlend mode="normal" in2="BackgroundImageFix" result="effect1_dropShadow_1327_164"/>
<feBlend mode="normal" in="SourceGraphic" in2="effect1_dropShadow_1327_164" result="shape"/>
</filter>
<filter id="filter3_dd_1327_164" x="327.616" y="187.462" width="266.597" height="260.911" filterUnits="userSpaceOnUse" color-interpolation-filters="sRGB">
<feFlood flood-opacity="0" result="BackgroundImageFix"/>
<feColorMatrix in="SourceAlpha" type="matrix" values="0 0 0 0 0 0 0 0 0 0 0 0 0 0 0 0 0 0 127 0" result="hardAlpha"/>
<feMorphology radius="2" operator="erode" in="SourceAlpha" result="effect1_dropShadow_1327_164"/>
<feOffset dy="4"/>
<feGaussianBlur stdDeviation="3"/>
<feColorMatrix type="matrix" values="0 0 0 0 0 0 0 0 0 0 0 0 0 0 0 0 0 0 0.05 0"/>
<feBlend mode="normal" in2="BackgroundImageFix" result="effect1_dropShadow_1327_164"/>
<feColorMatrix in="SourceAlpha" type="matrix" values="0 0 0 0 0 0 0 0 0 0 0 0 0 0 0 0 0 0 127 0" result="hardAlpha"/>
<feMorphology radius="3" operator="erode" in="SourceAlpha" result="effect2_dropShadow_1327_164"/>
<feOffset dy="10"/>
<feGaussianBlur stdDeviation="7.5"/>
<feColorMatrix type="matrix" values="0 0 0 0 0 0 0 0 0 0 0 0 0 0 0 0 0 0 0.1 0"/>
<feBlend mode="normal" in2="effect1_dropShadow_1327_164" result="effect2_dropShadow_1327_164"/>
<feBlend mode="normal" in="SourceGraphic" in2="effect2_dropShadow_1327_164" result="shape"/>
</filter>
</defs>
</svg>
