<svg width="25" height="24" viewBox="0 0 25 24" fill="none" xmlns="http://www.w3.org/2000/svg">
<path d="M17.2904 0.0371094H7.45814C3.54846 0.0371094 0.374268 3.20158 0.374268 7.09929V16.8243C0.374268 20.7991 3.54846 23.9636 7.45814 23.9636H17.213C21.2001 23.9636 24.3743 20.7991 24.3743 16.9014V7.09929C24.3743 3.20158 21.2001 0.0371094 17.2904 0.0371094ZM12.413 17.8662C9.12265 17.8662 6.52911 15.2034 6.52911 12.0004C6.52911 8.7973 9.16136 6.13451 12.413 6.13451C15.6259 6.13451 18.2581 8.7973 18.2581 12.0004C18.2581 15.2034 15.6646 17.8662 12.413 17.8662ZM20.542 6.67479C20.1549 7.09929 19.5743 7.33084 18.9162 7.33084C18.3356 7.33084 17.7549 7.09929 17.2904 6.67479C16.8646 6.25028 16.6323 5.71001 16.6323 5.05396C16.6323 4.39791 16.8646 3.89622 17.2904 3.43313C17.7162 2.97004 18.2581 2.73849 18.9162 2.73849C19.4968 2.73849 20.1162 2.97004 20.542 3.39454C20.9291 3.89622 21.2001 4.47509 21.2001 5.09255C21.1614 5.71001 20.9291 6.25028 20.542 6.67479Z" fill="#D1D5DB"/>
</svg>
