<svg width="25" height="24" viewBox="0 0 25 24" fill="none" xmlns="http://www.w3.org/2000/svg">
<path d="M22.6967 0.0371094H2.12428C1.15205 0.0371094 0.374268 0.808932 0.374268 1.77371V22.227C0.374268 23.1532 1.15205 23.9636 2.12428 23.9636H22.6189C23.5911 23.9636 24.3689 23.1918 24.3689 22.227V1.73512C24.4467 0.808932 23.6689 0.0371094 22.6967 0.0371094ZM7.49099 20.3746H3.95207V8.99026H7.49099V20.3746ZM5.70209 7.40802C4.53541 7.40802 3.64096 6.48183 3.64096 5.36269C3.64096 4.24354 4.5743 3.31736 5.70209 3.31736C6.82987 3.31736 7.76321 4.24354 7.76321 5.36269C7.76321 6.48183 6.90765 7.40802 5.70209 7.40802ZM20.9078 20.3746H17.3688V14.8561C17.3688 13.544 17.33 11.8074 15.5022 11.8074C13.6355 11.8074 13.3633 13.2739 13.3633 14.7403V20.3746H9.82434V8.99026H13.2855V10.5725H13.3244C13.8299 9.6463 14.9577 8.72012 16.7077 8.72012C20.3244 8.72012 20.9855 11.0356 20.9855 14.2001V20.3746H20.9078Z" fill="#D1D5DB"/>
</svg>
