<svg width="55" height="34" viewBox="0 0 55 34" fill="none" xmlns="http://www.w3.org/2000/svg">
<path d="M33.0828 10.7545C33.0828 11.0197 32.9774 11.274 32.7899 11.4616L11.3205 32.931C11.1329 33.1185 10.8786 33.2239 10.6133 33.2239L0.999966 33.2239C0.447678 33.2239 -3.81372e-05 32.7762 -3.81251e-05 32.2239L-3.7915e-05 22.6105C-3.79092e-05 22.3453 0.10532 22.0909 0.292855 21.9034L21.7623 0.433971C21.9498 0.246433 22.2042 0.141075 22.4694 0.141075L32.0828 0.141075C32.635 0.141075 33.0828 0.588791 33.0828 1.14108L33.0828 10.7545Z" fill="#111827"/>
<path d="M54.8234 10.7545C54.8234 11.0197 54.718 11.274 54.5305 11.4616L33.0611 32.931C32.8735 33.1185 32.6192 33.2239 32.354 33.2239L22.7406 33.2239C22.1883 33.2239 21.7406 32.7762 21.7406 32.2239L21.7406 22.6105C21.7406 22.3453 21.8459 22.0909 22.0335 21.9034L43.5029 0.433971C43.6904 0.246433 43.9448 0.141075 44.21 0.141075L53.8234 0.141075C54.3756 0.141075 54.8234 0.588791 54.8234 1.14108L54.8234 10.7545Z" fill="#111827"/>
<path d="M54.6946 31.9578C54.6946 32.51 54.2469 32.9578 53.6946 32.9578L41.7943 32.9578C40.9034 32.9578 40.4573 31.8806 41.0872 31.2507L52.9875 19.3504C53.6174 18.7204 54.6946 19.1666 54.6946 20.0575L54.6946 31.9578Z" fill="#5B21B6"/>
</svg>
