<svg width="70" height="42" viewBox="0 0 70 42" fill="none" xmlns="http://www.w3.org/2000/svg">
<g id="Group 153">
<path id="Union" fill-rule="evenodd" clip-rule="evenodd" d="M69.0435 14.1669C69.2311 13.9794 69.3364 13.725 69.3364 13.4598L69.3364 2C69.3364 0.895435 68.441 3.79513e-06 67.3364 3.77099e-06L55.8766 3.52052e-06C55.6114 3.51472e-06 55.357 0.105362 55.1695 0.2929L41.6222 13.8402L41.6222 2C41.6222 0.895435 40.7268 3.18941e-06 39.6222 3.16527e-06L28.1624 2.91481e-06C27.8972 2.90901e-06 27.6428 0.105361 27.4553 0.292899L0.293022 27.4552C0.105484 27.6427 0.00012237 27.897 0.000122364 28.1623L0.000122114 39.6221C0.00012209 40.7266 0.895554 41.6221 2.00013 41.6221L13.4599 41.6221C13.7252 41.6221 13.9795 41.5167 14.167 41.3292L27.7144 27.7819L27.7144 39.6221C27.7144 40.7266 28.6098 41.6221 29.7144 41.6221L41.1742 41.6221C41.4394 41.6221 41.6937 41.5167 41.8813 41.3292L69.0435 14.1669Z" fill="#374151"/>
<path id="Rectangle 7862" d="M68.9974 40.6211C68.9974 41.1734 68.5497 41.6211 67.9974 41.6211L52.8809 41.6211C51.99 41.6211 51.5438 40.544 52.1738 39.914L67.2903 24.7974C67.9203 24.1675 68.9974 24.6136 68.9974 25.5045L68.9974 40.6211Z" fill="#8B5CF6"/>
</g>
</svg>
