<svg width="87" height="79" viewBox="0 0 87 79" fill="none" xmlns="http://www.w3.org/2000/svg">
<g filter="url(#filter0_d_1306_186)">
<path d="M2.3999 38.367C2.3999 44.5829 8.46959 50.3854 18.0385 53.6562C16.1276 63.2759 17.6963 71.0297 22.9349 74.0508C28.3194 77.1563 36.3414 75.0067 43.9554 68.3509C51.3773 74.7379 58.8782 77.2514 64.1123 74.2216C69.492 71.1074 71.1279 62.8279 69.1643 52.9077C79.1311 49.6126 84.7061 44.6647 84.7061 38.367C84.7061 32.2953 78.6255 27.0428 69.1853 23.793C71.2993 13.4629 69.5081 5.89738 64.0524 2.75141C58.7928 -0.281657 51.2046 2.36192 43.6737 8.91589C35.8387 1.9595 28.3256 -0.16423 22.8757 2.99047C17.6209 6.03227 16.1215 13.9271 18.0385 23.7247C8.79244 26.9483 2.3999 32.3199 2.3999 38.367Z" fill="white"/>
<path d="M67.1865 27.02C66.4085 26.7532 65.6239 26.5059 64.8334 26.2786C64.9645 25.7459 65.0857 25.2109 65.197 24.6737C66.9782 16.0274 65.8136 9.06199 61.8366 6.76907C58.0236 4.56997 51.7873 6.86288 45.4889 12.3438C44.8683 12.8851 44.2614 13.442 43.6689 14.014C43.2722 13.6337 42.8684 13.2607 42.4578 12.8954C35.8569 7.03434 29.2405 4.56479 25.2677 6.8645C21.4582 9.06975 20.3299 15.6182 21.9335 23.8123C22.093 24.6237 22.2731 25.431 22.4737 26.2333C21.5375 26.4992 20.6333 26.7826 19.7683 27.0841C12.0297 29.782 7.0874 34.0107 7.0874 38.3966C7.0874 42.9268 12.3927 47.4706 20.4535 50.2255C21.1071 50.4478 21.7661 50.6538 22.43 50.8433C22.2143 51.7077 22.0229 52.5779 21.8558 53.4529C20.327 61.5047 21.521 67.8979 25.3204 70.0895C29.2447 72.3524 35.831 70.0264 42.2446 64.4203C42.7515 63.9771 43.2604 63.5071 43.7699 63.0144C44.4116 63.6336 45.0705 64.2348 45.7458 64.8172C51.9581 70.163 58.0935 72.3216 61.8897 70.1241C65.8104 67.8545 67.0843 60.9864 65.43 52.6303C65.3038 51.992 65.1566 51.3402 64.9916 50.6764C65.4542 50.5399 65.9081 50.3988 66.3509 50.252C74.7307 47.4758 80.1825 42.9873 80.1825 38.3966C80.1825 33.9949 75.081 29.7377 67.1865 27.02Z" fill="#6B7280"/>
<path d="M65.3685 47.2881C64.969 47.4204 64.5588 47.5482 64.1409 47.6721C63.2157 44.7435 61.967 41.6292 60.4395 38.4121C61.8975 35.271 63.0976 32.1969 63.9969 29.287C64.7445 29.5038 65.4704 29.7318 66.1698 29.9728C72.9341 32.301 77.0599 35.7439 77.0599 38.3966C77.0599 41.2223 72.6035 44.8907 65.3685 47.2881ZM62.3665 53.2368C63.0979 56.9317 63.2024 60.2725 62.7178 62.884C62.2824 65.2306 61.407 66.795 60.3246 67.4216C58.021 68.7551 53.0946 67.0218 47.7822 62.4502C47.173 61.9262 46.5594 61.3665 45.9441 60.7745C48.0038 58.5217 50.0622 55.9027 52.071 52.9945C55.6049 52.6811 58.9433 52.1683 61.9709 51.4686C62.1197 52.0703 62.2523 52.66 62.3665 53.2368ZM32.0067 67.1913C29.7562 67.9861 27.9637 68.0088 26.8803 67.3841C24.5745 66.0546 23.6163 60.9207 24.9235 54.0352C25.079 53.2215 25.257 52.4122 25.4573 51.6084C28.4512 52.2705 31.7654 52.747 35.3077 53.0343C37.3298 55.8801 39.4477 58.4958 41.5821 60.7865C41.1285 61.2253 40.6641 61.6529 40.1895 62.0688C37.3534 64.5481 34.5115 66.3066 32.0071 67.1913H32.0067ZM21.4631 47.2706C17.8989 46.0524 14.9554 44.4692 12.9378 42.7417C11.125 41.189 10.2095 39.6475 10.2095 38.3966C10.2095 35.7352 14.1778 32.3402 20.7961 30.0327C21.6268 29.7443 22.4658 29.4804 23.3119 29.2411C24.2267 32.2163 25.4266 35.327 26.8745 38.4726C25.4078 41.6652 24.1908 44.8254 23.2676 47.8355C22.6616 47.662 22.0599 47.4737 21.4631 47.2706ZM24.9976 23.2125C23.6237 16.1917 24.536 10.8958 26.8318 9.56692C29.2774 8.15132 34.6846 10.1699 40.3839 15.2303C40.7482 15.5538 41.114 15.8925 41.4805 16.2428C39.3571 18.5231 37.2586 21.1192 35.254 23.9484C31.8162 24.2671 28.5253 24.7788 25.5 25.4643C25.3136 24.7179 25.1461 23.9673 24.9976 23.2125ZM56.5275 30.998C55.8129 29.7637 55.0718 28.5449 54.3048 27.3425C56.6371 27.6369 58.8715 28.0283 60.9697 28.5074C60.3398 30.5263 59.5547 32.6374 58.6302 34.8016C57.9547 33.5199 57.2536 32.2517 56.5275 30.998ZM43.6696 18.4743C45.1098 20.0345 46.5523 21.7768 47.9711 23.667C45.093 23.531 42.2101 23.5303 39.3319 23.6651C40.752 21.7924 42.2068 20.0526 43.6696 18.4743ZM30.7293 31.0193C30.0122 32.2631 29.3243 33.5235 28.666 34.7993C27.7567 32.6426 26.9787 30.5221 26.3433 28.4744C28.4289 28.0076 30.6529 27.6262 32.9701 27.3367C32.1944 28.5465 31.4473 29.7744 30.7293 31.0193ZM33.0367 49.6794C30.6429 49.4122 28.3852 49.0502 26.3003 48.5963C26.9457 46.5124 27.7408 44.3463 28.6696 42.1433C29.3306 43.4201 30.0216 44.6812 30.7419 45.9256C31.4769 47.1949 32.2421 48.4465 33.0367 49.6794ZM43.756 58.5395C42.276 56.9424 40.7999 55.1762 39.3581 53.2763C40.7575 53.3313 42.1845 53.3591 43.6347 53.3591C45.1247 53.3591 46.5975 53.3258 48.0471 53.2611C46.6237 55.1956 45.1865 56.9644 43.756 58.5395ZM58.6599 42.031C59.6369 44.258 60.4605 46.4124 61.1146 48.4611C58.9951 48.9447 56.707 49.3342 54.296 49.6234C55.0686 48.3986 55.8168 47.1585 56.5401 45.9039C57.2754 44.6288 57.9822 43.3375 58.6599 42.031ZM53.8351 44.344C52.7278 46.2675 51.5583 48.1544 50.3284 50.0019C48.1597 50.1568 45.9185 50.2367 43.6347 50.2367C41.3602 50.2367 39.1475 50.1659 37.0167 50.0278C35.7549 48.1846 34.5632 46.2944 33.4443 44.3611C32.3307 42.4382 31.2904 40.4736 30.3259 38.4716C31.288 36.4691 32.3251 34.5035 33.435 32.5789V32.5795C34.5445 30.6546 35.7267 28.7724 36.9791 26.9372C39.153 26.7729 41.3819 26.6868 43.635 26.6868C45.8982 26.6868 48.1299 26.7735 50.3032 26.9391C51.5429 28.7715 52.7176 30.6471 53.825 32.5624C54.9387 34.4827 55.9897 36.4387 56.9762 38.4273C55.9998 40.4362 54.9519 42.4097 53.8351 44.344ZM60.2768 9.47408C62.7243 10.8858 63.6763 16.5783 62.1385 24.0435C62.0377 24.5299 61.9281 25.0143 61.8098 25.4967C58.7774 24.797 55.4842 24.2761 52.0364 23.9526C50.0279 21.0926 47.9468 18.4921 45.8577 16.2412C46.4052 15.7135 46.9656 15.1994 47.5386 14.6995C52.9351 10.003 57.9787 8.14873 60.2768 9.47408Z" fill="white"/>
<path d="M43.6345 31.8696C47.2395 31.8696 50.1616 34.7921 50.1616 38.3967C50.1616 42.0017 47.2395 44.9242 43.6345 44.9242C40.0299 44.9242 37.1074 42.0017 37.1074 38.3967C37.1074 34.7921 40.0299 31.8696 43.6345 31.8696Z" fill="#6B7280"/>
</g>
<defs>
<filter id="filter0_d_1306_186" x="0.399902" y="0.5" width="86.3062" height="78" filterUnits="userSpaceOnUse" color-interpolation-filters="sRGB">
<feFlood flood-opacity="0" result="BackgroundImageFix"/>
<feColorMatrix in="SourceAlpha" type="matrix" values="0 0 0 0 0 0 0 0 0 0 0 0 0 0 0 0 0 0 127 0" result="hardAlpha"/>
<feOffset dy="1"/>
<feGaussianBlur stdDeviation="1"/>
<feColorMatrix type="matrix" values="0 0 0 0 0 0 0 0 0 0 0 0 0 0 0 0 0 0 0.05 0"/>
<feBlend mode="normal" in2="BackgroundImageFix" result="effect1_dropShadow_1306_186"/>
<feBlend mode="normal" in="SourceGraphic" in2="effect1_dropShadow_1306_186" result="shape"/>
</filter>
</defs>
</svg>
