<svg width="73" height="79" viewBox="0 0 73 79" fill="none" xmlns="http://www.w3.org/2000/svg">
<g filter="url(#filter0_d_1306_180)">
<path d="M57.8723 18.5252C57.8199 18.2157 57.5579 18.0095 57.2959 18.0095C57.034 18.0095 52.4232 17.9063 52.4232 17.9063C52.4232 17.9063 48.5459 14.1934 48.1792 13.8324C47.8124 13.4714 47.0265 13.5746 46.7645 13.6777C46.7645 13.6777 46.031 13.884 44.8259 14.245C44.6163 13.5746 44.3019 12.8011 43.8828 11.976C42.5205 9.39754 40.4771 8.00519 38.0669 8.00519C37.9097 8.00519 37.7525 8.00519 37.543 8.05675C37.4906 7.95362 37.3858 7.90205 37.3334 7.79891C36.2855 6.6644 34.9232 6.14872 33.299 6.20029C30.1553 6.30343 27.0115 8.52087 24.4966 12.4916C22.7151 15.2763 21.3529 18.783 20.9337 21.5161C17.3184 22.5991 14.8035 23.3726 14.7511 23.4242C12.9172 23.9914 12.8649 24.043 12.6553 25.7447C12.4981 27.034 7.67773 63.3897 7.67773 63.3897L47.7076 70.1968L65.0504 65.9682C64.998 65.9166 57.9247 18.8346 57.8723 18.5252ZM42.8349 14.8638C41.8918 15.1216 40.8439 15.4826 39.7436 15.792C39.7436 14.245 39.534 12.0275 38.8004 10.1711C41.1582 10.6352 42.3109 13.2652 42.8349 14.8638ZM37.5954 16.4624C35.4996 17.0812 33.1942 17.8032 30.8888 18.4736C31.5175 16.0499 32.775 13.6262 34.2421 12.0275C34.8184 11.4603 35.6043 10.7899 36.4951 10.3773C37.4382 12.1822 37.6478 14.7091 37.5954 16.4624ZM33.3514 8.26303C34.0849 8.26303 34.7136 8.41773 35.2376 8.72714C34.3993 9.19126 33.5609 9.81008 32.775 10.6352C30.784 12.7495 29.2645 16.0499 28.6358 19.1955C26.7496 19.7628 24.8633 20.3301 23.1343 20.8457C24.2346 15.8952 28.4786 8.41773 33.3514 8.26303Z" fill="#9CA3AF"/>
<path fill-rule="evenodd" clip-rule="evenodd" d="M44.6532 13.7345C44.7131 13.8994 44.7675 14.0595 44.8164 14.2142C44.8196 14.2244 44.8228 14.2346 44.826 14.2448C46.0311 13.8838 46.7646 13.6776 46.7646 13.6776C46.9354 13.6103 47.3291 13.543 47.684 13.6045C47.8733 13.6373 48.0517 13.7067 48.1793 13.8323C48.546 14.1932 52.4233 17.9062 52.4233 17.9062C52.4233 17.9062 57.034 18.0093 57.296 18.0093C57.558 18.0093 57.82 18.2156 57.8724 18.525C57.8863 18.607 58.3934 21.975 59.1323 26.8823C61.1561 40.3226 64.9185 65.3093 65.0474 65.9553C65.049 65.9633 65.0505 65.968 65.0505 65.968L47.7077 70.1966L7.67782 63.3896C7.67782 63.3896 12.4982 27.0338 12.6554 25.7446C12.8649 24.0428 12.9173 23.9912 14.7512 23.424C14.7855 23.3902 15.8771 23.0465 17.6427 22.5088C18.5717 22.2259 19.6874 21.8893 20.9338 21.516C20.9888 21.1574 21.06 20.7855 21.1463 20.4037C21.3673 19.4254 21.6872 18.3819 22.0859 17.33C22.2864 16.8009 22.5069 16.2697 22.7449 15.7436C23.2566 14.612 23.8489 13.504 24.4967 12.4915C25.6527 10.6662 26.9417 9.21142 28.3024 8.16217C28.6543 7.89078 29.0111 7.64651 29.3716 7.42999C29.3795 7.42523 29.3875 7.42048 29.3954 7.41575C30.2236 6.92135 31.0714 6.57329 31.9261 6.37892C32.3781 6.27612 32.832 6.2163 33.286 6.20056C33.2903 6.20041 33.2947 6.20026 33.299 6.20012C33.3165 6.19957 33.334 6.19908 33.3514 6.19865C33.4658 6.19587 33.5789 6.19593 33.6907 6.19884C33.7411 6.20015 33.7913 6.20205 33.8412 6.20452C34.1027 6.21751 34.3567 6.24651 34.6029 6.29177C35.2163 6.40449 35.7816 6.61803 36.2952 6.93613C36.6692 7.16775 37.0158 7.45481 37.3335 7.79874C37.3597 7.85031 37.399 7.88899 37.4383 7.92767C37.4776 7.96634 37.5169 8.00502 37.5431 8.05659C37.7526 8.00502 37.9098 8.00502 38.067 8.00502C38.4566 8.00502 38.8365 8.04139 39.2056 8.11326C39.5615 8.18258 39.9073 8.28491 40.2417 8.41948C40.6368 8.57844 41.016 8.78239 41.3775 9.03004C41.4149 9.05572 41.4522 9.08187 41.4893 9.10849C41.9397 9.43164 42.3616 9.82383 42.751 10.2825C43.1669 10.7722 43.5457 11.3377 43.8829 11.9758C44.1994 12.5988 44.4561 13.1925 44.6532 13.7345ZM39.8347 10.5429C39.5188 10.3729 39.1749 10.2446 38.8005 10.1709C38.881 10.3744 38.9551 10.5823 39.0233 10.7932C39.1667 11.2362 39.2841 11.6924 39.3794 12.1491C39.5187 12.8172 39.6107 13.4864 39.6674 14.1173C39.6699 14.1447 39.6723 14.172 39.6746 14.1992C39.694 14.4257 39.7088 14.6471 39.7197 14.8613C39.7363 15.1904 39.7436 15.5028 39.7436 15.7919C39.8442 15.7636 39.9444 15.7349 40.044 15.7058C40.4792 15.5791 40.9053 15.4464 41.319 15.3175C41.7544 15.1819 42.1761 15.0506 42.58 14.935C42.6658 14.9105 42.7508 14.8866 42.835 14.8636C42.7476 14.597 42.6427 14.3017 42.5177 13.9926C42.3815 13.656 42.2215 13.3029 42.0341 12.9526C42.0288 12.9427 42.0235 12.9329 42.0182 12.923C41.7116 12.3548 41.3327 11.795 40.8667 11.3257C40.5614 11.0183 40.2188 10.7497 39.8347 10.5429ZM36.7668 10.9637C36.6839 10.7615 36.5935 10.5654 36.4952 10.3772C36.4041 10.4193 36.3142 10.4642 36.2255 10.5113C36.1582 10.5471 36.0916 10.5842 36.0257 10.6225C35.3748 11.0006 34.7964 11.4919 34.3377 11.9343C34.3072 11.9637 34.2772 11.9929 34.2478 12.0218C34.2459 12.0237 34.244 12.0255 34.2422 12.0274L34.2397 12.0301C34.2207 12.0508 34.2017 12.0716 34.1828 12.0926C34.1408 12.1392 34.0989 12.1865 34.0573 12.2345C34.0306 12.2652 34.004 12.2961 33.9775 12.3274C33.815 12.5187 33.6555 12.7199 33.4996 12.9297C33.4499 12.9967 33.4005 13.0646 33.3514 13.1333C33.3233 13.1728 33.2953 13.2125 33.2674 13.2525C33.2311 13.3046 33.1951 13.3571 33.1593 13.41C32.9339 13.7432 32.7176 14.0939 32.5124 14.4582C31.8171 15.6928 31.2495 17.0831 30.8889 18.4734C32.0598 18.1329 33.2308 17.7791 34.3742 17.4323C34.4977 17.3948 34.6209 17.3575 34.7436 17.3202C34.7509 17.318 34.7582 17.3158 34.7655 17.3136C35.5387 17.0789 36.2978 16.8486 37.034 16.6289C37.2227 16.5726 37.4099 16.517 37.5955 16.4622C37.6018 16.2499 37.6043 16.0263 37.6021 15.794L37.6021 15.7919C37.601 15.6747 37.5987 15.5553 37.5951 15.434C37.5932 15.3711 37.591 15.3076 37.5884 15.2436C37.5864 15.1933 37.5841 15.1428 37.5816 15.092C37.5801 15.0616 37.5786 15.0311 37.5769 15.0005C37.5465 14.44 37.4876 13.85 37.3904 13.2611C37.3895 13.2554 37.3885 13.2497 37.3876 13.244C37.3311 12.9041 37.2618 12.5647 37.1779 12.2316C37.0684 11.7969 36.934 11.3729 36.7706 10.973C36.7693 10.9699 36.7681 10.9668 36.7668 10.9637ZM33.424 10.0091C33.6737 9.78817 33.927 9.58548 34.1824 9.39954C34.5315 9.14534 34.8846 8.92244 35.2377 8.72698C34.7174 8.41972 34.0937 8.26502 33.3667 8.26288L33.3645 8.26288C33.3602 8.26287 33.3558 8.26286 33.3514 8.26286C33.1316 8.26984 32.9131 8.29172 32.6961 8.3276C32.1558 8.41692 31.6249 8.59298 31.1069 8.84184C31.0598 8.86449 31.0127 8.88774 30.9658 8.91159C30.9613 8.91388 30.9568 8.91618 30.9523 8.91848C30.9314 8.92914 30.9105 8.93992 30.8897 8.95081C30.4538 9.17882 30.0275 9.45772 29.6131 9.77901C28.3653 10.7463 27.2246 12.0979 26.2501 13.6021C26.2484 13.6047 26.2467 13.6073 26.245 13.6099C25.9668 14.0398 25.7021 14.4821 25.4524 14.9314C24.8458 16.0228 24.3275 17.1556 23.9173 18.2522C23.5793 19.1556 23.3147 20.0345 23.1344 20.8456C23.8258 20.6393 24.5424 20.4249 25.2741 20.2055C25.6779 20.0844 26.0863 19.9618 26.4976 19.8382C27.2044 19.6259 27.9197 19.4107 28.6351 19.1956C28.7168 18.7868 28.8144 18.3751 28.9252 17.964C29.1834 17.0067 29.5182 16.0512 29.918 15.1347C30.1992 14.49 30.5125 13.8645 30.8539 13.2713C31.1507 12.7556 31.4688 12.2643 31.8054 11.8058C32.1066 11.3955 32.4228 11.0114 32.7519 10.6597C32.7596 10.6515 32.7674 10.6432 32.7751 10.635C32.791 10.6183 32.8069 10.6018 32.8228 10.5852C32.8953 10.5101 32.9682 10.4367 33.0415 10.365C33.0563 10.3506 33.071 10.3363 33.0857 10.322L33.0881 10.3198C33.1753 10.2355 33.2631 10.1536 33.3514 10.0739C33.36 10.0663 33.3685 10.0586 33.377 10.051C33.3871 10.0419 33.3972 10.0329 33.4074 10.0239C33.4116 10.0201 33.4158 10.0163 33.4201 10.0126L33.424 10.0091ZM53.8993 12.3955C54.0961 12.5843 54.2913 12.7714 54.478 12.9504C54.6073 12.9532 54.7385 12.9561 54.8701 12.9589C55.4623 12.9718 56.061 12.9846 56.5272 12.9943C57.0402 13.0048 57.296 13.0093 57.296 13.0093C60.0792 13.0093 62.3563 15.0574 62.8022 17.6902C62.8231 17.8138 63.4297 21.8417 64.2795 27.4851C64.9024 31.6218 65.656 36.6264 66.4056 41.5978C67.2962 47.5053 68.1867 53.4033 68.8576 57.827C69.1932 60.0393 69.4734 61.8802 69.6713 63.1685C69.6923 63.3053 69.7123 63.4358 69.7314 63.5595L70.1777 68.1967L47.8882 75.2991L2.08765 67.5107L2.7212 62.7324L7.67782 63.3896C2.7212 62.7324 2.7212 62.7324 2.7212 62.7324L3.4768 57.0319C3.93115 53.6036 4.53857 49.019 5.15091 44.3942C6.37956 35.1146 7.61767 25.75 7.69212 25.1394L7.69285 25.1334C7.69495 25.1164 7.69713 25.0986 7.69938 25.0802C7.74341 24.7211 7.8182 24.1109 7.96169 23.535C8.13757 22.8291 8.50268 21.7802 9.38802 20.8026C10.231 19.8717 11.1846 19.4102 11.7515 19.1733C12.2002 18.9858 12.6943 18.8271 13.0745 18.7089C13.1407 18.6843 13.1977 18.6642 13.2367 18.6506C13.3738 18.6028 13.5348 18.5498 13.6954 18.498C14.0265 18.3912 14.4835 18.2482 15.0333 18.0787C15.5185 17.9291 16.0887 17.7549 16.7292 17.5606C17.5292 14.8996 18.7898 12.1361 20.2787 9.8066C23.241 5.13383 27.5694 1.88021 33.0415 1.70068L33.0468 1.70051C38.5842 1.70051 43.8829 3.70068 45.9342 7.93086C50.6777 8.05659 52.1777 9.10849 53.8993 12.3955Z" fill="white"/>
<path d="M57.2962 18.0091C57.0342 18.0091 52.4235 17.906 52.4235 17.906C52.4235 17.906 48.5462 14.193 48.1795 13.8321C48.0223 13.6774 47.8651 13.6258 47.6555 13.5742V70.1449L64.9983 65.9162C64.9983 65.9162 57.925 18.8342 57.8726 18.4732C57.8202 18.2154 57.5582 18.0091 57.2962 18.0091Z" fill="#6B7280"/>
<path d="M38.0149 26.7752L36.0239 34.201C36.0239 34.201 33.7709 33.1697 31.0988 33.3759C27.1691 33.6338 27.1691 36.0575 27.1691 36.6763C27.3787 39.9767 36.2335 40.6987 36.7575 48.4855C37.1242 54.6222 33.4566 58.7992 28.1646 59.1086C21.7724 59.5212 18.262 55.8082 18.262 55.8082L19.6242 50.1357C19.6242 50.1357 23.1347 52.7657 25.964 52.5594C27.7979 52.4563 28.479 50.9608 28.4266 49.9294C28.1646 45.5977 20.9341 45.8555 20.4626 38.7391C20.0958 32.7571 24.0778 26.672 32.8802 26.1564C36.2859 25.8985 38.0149 26.7752 38.0149 26.7752Z" fill="white"/>
</g>
<defs>
<filter id="filter0_d_1306_180" x="0.0876465" y="0.700684" width="72.0901" height="77.5986" filterUnits="userSpaceOnUse" color-interpolation-filters="sRGB">
<feFlood flood-opacity="0" result="BackgroundImageFix"/>
<feColorMatrix in="SourceAlpha" type="matrix" values="0 0 0 0 0 0 0 0 0 0 0 0 0 0 0 0 0 0 127 0" result="hardAlpha"/>
<feOffset dy="1"/>
<feGaussianBlur stdDeviation="1"/>
<feColorMatrix type="matrix" values="0 0 0 0 0 0 0 0 0 0 0 0 0 0 0 0 0 0 0.05 0"/>
<feBlend mode="normal" in2="BackgroundImageFix" result="effect1_dropShadow_1306_180"/>
<feBlend mode="normal" in="SourceGraphic" in2="effect1_dropShadow_1306_180" result="shape"/>
</filter>
</defs>
</svg>
