<svg width="25" height="20" viewBox="0 0 25 20" fill="none" xmlns="http://www.w3.org/2000/svg">
<path d="M21.7033 3.90008L23.1743 2.15202C23.6001 1.67859 23.7162 1.31441 23.7549 1.13233C22.5936 1.78785 21.5098 2.00635 20.813 2.00635H20.542L20.3872 1.86068C19.4581 1.09591 18.2968 0.695312 17.0581 0.695312C14.3485 0.695312 12.2194 2.80754 12.2194 5.24754C12.2194 5.39321 12.2194 5.61171 12.2581 5.75738L12.3743 6.48574L11.5614 6.44932C6.60652 6.30365 2.54201 2.2977 1.88395 1.60576C0.800074 3.42665 1.41943 5.1747 2.07749 6.26723L3.39362 8.30663L1.3033 7.2141C1.34201 8.74364 1.96136 9.94543 3.16136 10.8195L4.20653 11.5478L3.16136 11.9484C3.81943 13.8057 5.2904 14.5705 6.37427 14.8618L7.80653 15.226L6.45169 16.1C4.28395 17.5567 1.57427 17.4475 0.374268 17.3382C2.81298 18.9406 5.7162 19.3048 7.72911 19.3048C9.23878 19.3048 10.3614 19.1591 10.6323 19.0499C21.471 16.6463 21.9743 7.54186 21.9743 5.72097V5.46604L22.2065 5.32037C23.5227 4.155 24.0646 3.5359 24.3743 3.17172C24.2581 3.20814 24.1033 3.28098 23.9485 3.31739L21.7033 3.90008Z" fill="#D1D5DB"/>
</svg>
