<svg width="77" height="79" viewBox="0 0 77 79" fill="none" xmlns="http://www.w3.org/2000/svg">
<g filter="url(#filter0_d_1361_604)">
<path fill-rule="evenodd" clip-rule="evenodd" d="M70.9901 32.741C72.0009 34.0578 72.9024 35.4724 73.4034 37.0549C75.1606 42.6049 74.6129 48.7844 71.6089 54.0564C69.1339 58.4588 65.1762 61.7879 60.4906 63.4589C57.071 70.722 49.7779 75.5119 41.6007 75.4997C36.5687 75.5274 31.7446 73.7033 27.9905 70.4391C20.0227 71.0564 12.3205 66.9951 8.2873 59.8843C5.76144 55.4976 4.91265 50.3636 5.83659 45.4402C1.33093 38.7989 0.920579 30.0397 4.97287 22.9349C7.448 18.5326 11.4059 15.2035 16.0917 13.5328C19.5119 6.27451 26.8035 1.48965 34.9753 1.50027C40.0076 1.47435 44.83 3.29905 48.5843 6.56286C56.5524 5.94536 64.2548 10.0067 68.2882 17.1177C70.4805 20.9252 71.4095 25.2957 71.0123 29.6029L70.8268 32.197C70.8129 32.3922 70.871 32.5857 70.9901 32.741ZM34.9909 5.68439L34.9869 5.68438L34.9909 5.68439Z" fill="white"/>
</g>
<g filter="url(#filter1_d_1361_604)">
<path d="M65.2969 32.6949C66.7276 28.3368 66.2349 23.5627 63.9471 19.5986C60.5064 13.5184 53.5895 10.3904 46.8343 11.8624C43.8291 8.42634 39.5115 6.4723 34.985 6.5003C28.08 6.4843 21.9534 10.9964 19.8291 17.6645C15.3932 18.5866 11.5643 21.4046 9.32377 25.3987C5.85747 31.4628 6.64768 39.107 11.2786 44.3071C9.84795 48.6652 10.3406 53.4393 12.6285 57.4034C16.0692 63.4835 22.986 66.6116 29.7412 65.1395C32.7444 68.5756 37.064 70.5297 41.5905 70.4997C48.4995 70.5177 54.628 66.0016 56.7524 59.3274C61.1882 58.4054 65.0171 55.5873 67.2577 51.5933C70.72 45.5291 69.9279 37.891 65.2989 32.6909L65.2969 32.6949ZM41.5944 66.3176C38.8297 66.3216 36.1516 65.3396 34.0293 63.5415C34.1258 63.4895 34.2933 63.3955 34.4017 63.3275L46.9584 55.9673C47.6009 55.5973 47.995 54.9033 47.991 54.1533V36.1869L53.2979 39.297C53.355 39.325 53.3925 39.381 53.4004 39.445V54.3233C53.3925 60.9395 48.1132 66.3036 41.5944 66.3176ZM16.2051 55.3113C14.8198 52.8833 14.3212 50.0372 14.7961 47.2752C14.8888 47.3312 15.0523 47.4332 15.1686 47.5012L27.7253 54.8613C28.3618 55.2393 29.1501 55.2393 29.7885 54.8613L45.1179 45.8771V52.0973C45.1218 52.1613 45.0923 52.2233 45.043 52.2633L32.3503 59.7014C26.6966 63.0055 19.4763 61.0415 16.2071 55.3113H16.2051ZM12.9004 27.4927C14.2798 25.0607 16.4574 23.2007 19.0507 22.2346C19.0507 22.3446 19.0448 22.5386 19.0448 22.6746V37.397C19.0408 38.145 19.435 38.839 20.0754 39.209L35.4048 48.1912L30.0979 51.3013C30.0447 51.3372 29.9777 51.3433 29.9186 51.3173L17.2239 43.8731C11.5821 40.557 9.64695 33.2309 12.8984 27.4947L12.9004 27.4927ZM56.5021 37.791L41.1727 28.8068L46.4796 25.6987C46.5328 25.6627 46.5998 25.6567 46.6589 25.6827L59.3536 33.1209C65.0053 36.4349 66.9424 43.7731 63.6771 49.5092C62.2957 51.9373 60.1201 53.7973 57.5288 54.7653V39.603C57.5347 38.855 57.1425 38.163 56.5041 37.791H56.5021ZM61.7833 29.7228C61.6907 29.6648 61.5272 29.5648 61.4109 29.4968L48.8542 22.1366C48.2177 21.7586 47.4294 21.7586 46.7909 22.1366L31.4616 31.1208V24.9007C31.4576 24.8367 31.4872 24.7747 31.5365 24.7347L44.2291 17.3025C49.8828 13.9925 57.111 15.9625 60.3704 21.7026C61.7479 24.1267 62.2464 26.9647 61.7794 29.7228H61.7833ZM28.5766 40.809L23.2678 37.699C23.2106 37.671 23.1732 37.615 23.1653 37.551V22.6726C23.1693 16.0485 28.4643 10.6804 34.9909 10.6844C37.7518 10.6844 40.4239 11.6684 42.5462 13.4604C42.4497 13.5124 42.2842 13.6064 42.1738 13.6744L29.6171 21.0346C28.9747 21.4046 28.5805 22.0966 28.5845 22.8466L28.5766 40.805V40.809ZM31.4596 34.5009L38.2878 30.4988L45.1159 34.4989V42.5011L38.2878 46.5011L31.4596 42.5011V34.5009Z" fill="#6B7280"/>
</g>
<defs>
<filter id="filter0_d_1361_604" x="0.177734" y="0.5" width="76.2222" height="78" filterUnits="userSpaceOnUse" color-interpolation-filters="sRGB">
<feFlood flood-opacity="0" result="BackgroundImageFix"/>
<feColorMatrix in="SourceAlpha" type="matrix" values="0 0 0 0 0 0 0 0 0 0 0 0 0 0 0 0 0 0 127 0" result="hardAlpha"/>
<feOffset dy="1"/>
<feGaussianBlur stdDeviation="1"/>
<feColorMatrix type="matrix" values="0 0 0 0 0 0 0 0 0 0 0 0 0 0 0 0 0 0 0.05 0"/>
<feBlend mode="normal" in2="BackgroundImageFix" result="effect1_dropShadow_1361_604"/>
<feBlend mode="normal" in="SourceGraphic" in2="effect1_dropShadow_1361_604" result="shape"/>
</filter>
<filter id="filter1_d_1361_604" x="5.17773" y="5.5" width="66.2222" height="68" filterUnits="userSpaceOnUse" color-interpolation-filters="sRGB">
<feFlood flood-opacity="0" result="BackgroundImageFix"/>
<feColorMatrix in="SourceAlpha" type="matrix" values="0 0 0 0 0 0 0 0 0 0 0 0 0 0 0 0 0 0 127 0" result="hardAlpha"/>
<feOffset dy="1"/>
<feGaussianBlur stdDeviation="1"/>
<feColorMatrix type="matrix" values="0 0 0 0 0 0 0 0 0 0 0 0 0 0 0 0 0 0 0.05 0"/>
<feBlend mode="normal" in2="BackgroundImageFix" result="effect1_dropShadow_1361_604"/>
<feBlend mode="normal" in="SourceGraphic" in2="effect1_dropShadow_1361_604" result="shape"/>
</filter>
</defs>
</svg>
