<svg width="78" height="78" viewBox="0 0 78 78" fill="none" xmlns="http://www.w3.org/2000/svg">
<g filter="url(#filter0_d_1358_572)">
<g filter="url(#filter1_d_1358_572)">
<circle cx="39" cy="38" r="37" fill="white"/>
</g>
<path d="M11.5485 37.9981C11.5485 48.8639 17.8628 58.2538 27.0195 62.7037L13.9251 26.8266C12.3554 30.3417 11.5456 34.1485 11.5485 37.9981ZM57.5307 36.6128C57.5307 33.2205 56.312 30.8709 55.267 29.0424C53.8754 26.7812 52.5711 24.8663 52.5711 22.6051C52.5711 20.0817 54.485 17.7326 57.1808 17.7326C57.3025 17.7326 57.4177 17.7477 57.5364 17.7547C52.6527 13.2803 46.1459 10.5485 38.9994 10.5485C29.4092 10.5485 20.972 15.4689 16.0636 22.9216C16.7076 22.9409 17.3144 22.9542 17.8302 22.9542C20.7012 22.9542 25.1458 22.6061 25.1458 22.6061C26.6258 22.5188 26.8002 24.6922 25.322 24.8673C25.322 24.8673 23.8348 25.0423 22.1799 25.1289L32.1769 54.863L38.1842 36.8462L33.9073 25.1281C32.4291 25.0415 31.0287 24.8666 31.0287 24.8666C29.5495 24.7798 29.7229 22.5181 31.2021 22.6054C31.2021 22.6054 35.7356 22.9537 38.4327 22.9537C41.3037 22.9537 45.7486 22.6054 45.7486 22.6054C47.2293 22.5181 47.4035 24.6914 45.9248 24.8666C45.9248 24.8666 44.4345 25.0415 42.7827 25.1281L52.7031 54.6369L55.4411 45.4872C56.6277 41.6903 57.5309 38.9633 57.5309 36.613L57.5307 36.6128ZM39.481 40.3994L31.2448 64.3322C33.7629 65.0738 36.3743 65.4504 38.9994 65.4505C42.1959 65.4505 45.2615 64.8979 48.1152 63.8945C48.039 63.7744 47.9736 63.6479 47.9197 63.5163L39.481 40.3994ZM63.0863 24.8282C63.2043 25.7026 63.2713 26.6412 63.2713 27.6508C63.2713 30.4365 62.751 33.5678 61.184 37.4831L52.799 61.7264C60.9599 56.9674 66.449 48.1258 66.449 37.9989C66.4495 33.2263 65.2306 28.7382 63.0863 24.8282ZM38.9994 6C21.3552 6 7 20.3542 7 37.9981C7 55.6443 21.3552 69.998 38.9994 69.998C56.6428 69.998 71 55.6443 71 37.9981C70.9997 20.3542 56.6428 6 38.9994 6ZM38.9994 68.5313C22.1646 68.5313 8.46715 54.8341 8.46715 37.9981C8.46715 21.1633 22.1638 7.46715 38.9994 7.46715C55.8336 7.46715 69.5298 21.1633 69.5298 37.9981C69.5298 54.8341 55.8336 68.5313 38.9994 68.5313Z" fill="#6B7280"/>
</g>
<defs>
<filter id="filter0_d_1358_572" x="0" y="0" width="78" height="78" filterUnits="userSpaceOnUse" color-interpolation-filters="sRGB">
<feFlood flood-opacity="0" result="BackgroundImageFix"/>
<feColorMatrix in="SourceAlpha" type="matrix" values="0 0 0 0 0 0 0 0 0 0 0 0 0 0 0 0 0 0 127 0" result="hardAlpha"/>
<feOffset dy="1"/>
<feGaussianBlur stdDeviation="1"/>
<feColorMatrix type="matrix" values="0 0 0 0 0 0 0 0 0 0 0 0 0 0 0 0 0 0 0.05 0"/>
<feBlend mode="normal" in2="BackgroundImageFix" result="effect1_dropShadow_1358_572"/>
<feBlend mode="normal" in="SourceGraphic" in2="effect1_dropShadow_1358_572" result="shape"/>
</filter>
<filter id="filter1_d_1358_572" x="0" y="0" width="78" height="78" filterUnits="userSpaceOnUse" color-interpolation-filters="sRGB">
<feFlood flood-opacity="0" result="BackgroundImageFix"/>
<feColorMatrix in="SourceAlpha" type="matrix" values="0 0 0 0 0 0 0 0 0 0 0 0 0 0 0 0 0 0 127 0" result="hardAlpha"/>
<feOffset dy="1"/>
<feGaussianBlur stdDeviation="1"/>
<feColorMatrix type="matrix" values="0 0 0 0 0 0 0 0 0 0 0 0 0 0 0 0 0 0 0.05 0"/>
<feBlend mode="normal" in2="BackgroundImageFix" result="effect1_dropShadow_1358_572"/>
<feBlend mode="normal" in="SourceGraphic" in2="effect1_dropShadow_1358_572" result="shape"/>
</filter>
</defs>
</svg>
